<?xml version="1.0" encoding="UTF-8" standalone="no"?>
<!-- Created with Inkscape (http://www.inkscape.org/) -->

<svg
   version="1.1"
   id="svg1"
   width="1052"
   height="1052"
   viewBox="0 0 1052 1052"
   xmlns="http://www.w3.org/2000/svg"
   xmlns:svg="http://www.w3.org/2000/svg">
  <defs
     id="defs1" />
  <g
     id="g1">
    <g
       id="g2">
      <path
         style="fill:#f2e277"
         d="m 262.83192,1051.25 c 144.83256,-0.1396 381.53256,-0.1396 526,0 144.46744,0.1396 25.96808,0.2538 -263.33192,0.2538 -289.3,0 -407.50064,-0.1142 -262.66808,-0.2538 z"
         id="path8" />
      <path
         style="fill:#eed94d"
         d="M 0,526 V 1 H 525.5 1051 v 525 525 H 525.5 0 Z M 445.78941,967.94224 C 521.48769,959.69651 564.35428,915.70316 570.94198,839.5 c 0.66552,-7.69844 1.04108,-73.74532 1.0477,-184.25 L 572,483 h -49.9813 -49.98129 l -0.27509,178.25 c -0.25918,167.94376 -0.37862,178.59691 -2.06583,184.25 -4.33839,14.53603 -11.40821,24.25484 -21.0894,28.99141 -6.87127,3.3618 -17.32207,5.47004 -27.2206,5.49123 -25.8374,0.0553 -40.96291,-10.46452 -59.37098,-41.2926 -3.92626,-6.57533 -5.6608,-8.6564 -6.83837,-8.20452 -1.77814,0.68234 -74.65035,44.64268 -77.53478,46.77305 -1.78297,1.31686 -1.72759,1.63065 1.37777,7.80672 7.29185,14.50232 17.04592,27.72753 29.64163,40.19009 24.27851,24.02185 55.47971,38.26984 93.33824,42.6228 10.89734,1.25297 32.58358,1.2847 43.78941,0.0641 z m 381.42801,0.0398 c 53.0095,-5.02685 94.23684,-25.73271 118.25588,-59.39238 15.42592,-21.61748 22.85552,-47.22767 22.79912,-78.58962 -0.1013,-56.33194 -22.46663,-94.27543 -74.08749,-125.69178 -15.30277,-9.31323 -36.35056,-19.66452 -65.44232,-32.18448 -51.41185,-22.12566 -64.91698,-30.72401 -71.98689,-45.83207 -10.28721,-21.98325 -2.44391,-46.79677 18.0248,-57.02436 8.79515,-4.39467 15.72795,-5.60789 28.71948,-5.02586 12.33407,0.55258 21.99901,3.30348 30.28316,8.6194 8.85982,5.68534 18.95634,17.19313 27.71684,31.59109 0.85928,1.41223 6.43945,-1.84563 39.65327,-23.15069 35.51567,-22.78158 38.56773,-24.95684 37.59941,-26.79773 -3.06448,-5.82596 -13.02843,-19.95609 -19.57039,-27.75325 -21.0398,-25.07673 -48.65819,-40.4988 -84.07167,-46.94552 -16.05642,-2.92293 -51.7212,-3.14668 -66.61062,-0.41789 -33.47219,6.13445 -57.00251,17.78362 -78.29232,38.76023 -17.37938,17.1237 -28.54411,38.7149 -33.85893,65.47891 -2.4017,12.09434 -2.34986,38.98241 0.10193,52.874 8.58703,48.65315 37.86567,82.68945 95.05002,110.49523 6.60039,3.20942 23.62028,10.83593 37.82199,16.94779 42.11229,18.12349 56.73046,26.07336 66.84886,36.35473 18.52113,18.81942 16.83118,49.88451 -3.56997,65.62388 -13.18658,10.17338 -28.72817,14.57456 -51.10158,14.47134 -30.87342,-0.14243 -52.10545,-8.8209 -73.00146,-29.83894 -7.46097,-7.50453 -17.34058,-20.08408 -22.01084,-28.02602 -0.89312,-1.51878 -5.74987,1.02093 -41.25,21.5706 C 643.10696,856.90925 625,867.79738 625,868.29446 c 0,0.49708 2.42374,5.02167 5.38609,10.05466 30.33359,51.53633 83.25403,83.21673 149.61391,89.56518 12.50448,1.19627 34.97661,1.22849 47.21742,0.0677 z"
         id="path7" />
      <path
         style="fill:#c8b847"
         d="m 409.8125,968.31689 c 0.72187,-0.28887 1.58438,-0.25335 1.91667,0.0789 0.33229,0.33229 -0.25834,0.56864 -1.3125,0.52522 -1.16495,-0.048 -1.4019,-0.28494 -0.60417,-0.60416 z m 26.9375,0.0208 c 0.6875,-0.27741 1.8125,-0.27741 2.5,0 0.6875,0.27741 0.125,0.50439 -1.25,0.50439 -1.375,0 -1.9375,-0.22698 -1.25,-0.50439 z m 352.0625,-0.0208 c 0.72187,-0.28887 1.58438,-0.25335 1.91667,0.0789 0.33229,0.33229 -0.25834,0.56864 -1.3125,0.52522 -1.16495,-0.048 -1.4019,-0.28494 -0.60417,-0.60416 z m 30,0 c 0.72187,-0.28887 1.58438,-0.25335 1.91667,0.0789 0.33229,0.33229 -0.25834,0.56864 -1.3125,0.52522 -1.16495,-0.048 -1.4019,-0.28494 -0.60417,-0.60416 z M 657.43709,913.75 654.5,910.5 l 3.25,2.93709 c 3.02946,2.73778 3.70965,3.56291 2.93709,3.56291 -0.1721,0 -1.6346,-1.4625 -3.25,-3.25 z M 457.5,868 c 0.99549,-1.1 2.03498,-2 2.30998,-2 0.275,0 -0.31449,0.9 -1.30998,2 -0.99549,1.1 -2.03498,2 -2.30998,2 -0.275,0 0.31449,-0.9 1.30998,-2 z m 510.82814,-37.5 c 0.004,-3.85 0.18518,-5.30246 0.40166,-3.2277 0.21647,2.07477 0.21284,5.22477 -0.008,7 -0.22091,1.77524 -0.39803,0.0777 -0.39359,-3.7723 z m -397.13319,-1 c 0.0204,-1.65 0.2445,-2.20394 0.49804,-1.23097 0.25354,0.97297 0.23687,2.32297 -0.0371,3 -0.27393,0.67703 -0.48137,-0.11903 -0.46099,-1.76903 z m -98.70643,-178 c 2e-5,-92.95 0.11766,-130.82694 0.26142,-84.17098 0.14376,46.65596 0.14375,122.70596 -3e-5,169 -0.14378,46.29404 -0.26141,8.12098 -0.26139,-84.82902 z m 181.59043,-35.08333 c 0.048,-1.16495 0.28494,-1.4019 0.60416,-0.60417 0.28887,0.72187 0.25335,1.58438 -0.0789,1.91667 -0.33229,0.33229 -0.56864,-0.25834 -0.52522,-1.3125 z m 0,-16 c 0.048,-1.16495 0.28494,-1.4019 0.60416,-0.60417 0.28887,0.72187 0.25335,1.58438 -0.0789,1.91667 -0.33229,0.33229 -0.56864,-0.25834 -0.52522,-1.3125 z M 846.87244,584.25 c -1.24387,-1.58606 -1.2085,-1.62143 0.37756,-0.37756 0.9625,0.75485 1.75,1.54235 1.75,1.75 0,0.82304 -0.82119,0.29331 -2.12756,-1.37244 z m -4.46745,-4.5 -1.90499,-2.25 2.25,1.90499 c 2.11444,1.79022 2.70524,2.59501 1.90499,2.59501 -0.18976,0 -1.20226,-1.0125 -2.25,-2.25 z m 68.05742,-62 -4.96241,-5.25 5.25,4.96241 c 4.87839,4.61116 5.7086,5.53759 4.96241,5.53759 -0.15818,0 -2.52068,-2.3625 -5.25,-5.25 z M 688,519.62244 c 0,-0.20765 0.7875,-0.99515 1.75,-1.75 1.58606,-1.24387 1.62143,-1.2085 0.37756,0.37756 C 688.82119,519.91575 688,520.44548 688,519.62244 Z m 97.8125,-42.30555 c 0.72187,-0.28887 1.58438,-0.25335 1.91667,0.0789 0.33229,0.33229 -0.25834,0.56864 -1.3125,0.52522 -1.16495,-0.048 -1.4019,-0.28494 -0.60417,-0.60416 z m 27,0 c 0.72187,-0.28887 1.58438,-0.25335 1.91667,0.0789 0.33229,0.33229 -0.25834,0.56864 -1.3125,0.52522 -1.16495,-0.048 -1.4019,-0.28494 -0.60417,-0.60416 z"
         id="path6" />
      <path
         style="fill:#ad9f42"
         d="m 412.75,968.33772 c 0.6875,-0.27741 1.8125,-0.27741 2.5,0 0.6875,0.27741 0.125,0.50439 -1.25,0.50439 -1.375,0 -1.9375,-0.22698 -1.25,-0.50439 z m 21.0625,-0.0208 c 0.72187,-0.28887 1.58438,-0.25335 1.91667,0.0789 0.33229,0.33229 -0.25834,0.56864 -1.3125,0.52522 -1.16495,-0.048 -1.4019,-0.28494 -0.60417,-0.60416 z m 357.9375,0.0208 c 0.6875,-0.27741 1.8125,-0.27741 2.5,0 0.6875,0.27741 0.125,0.50439 -1.25,0.50439 -1.375,0 -1.9375,-0.22698 -1.25,-0.50439 z m 23,0 c 0.6875,-0.27741 1.8125,-0.27741 2.5,0 0.6875,0.27741 0.125,0.50439 -1.25,0.50439 -1.375,0 -1.9375,-0.22698 -1.25,-0.50439 z M 931.95821,923.75 C 936.10217,919.33481 937,918.54091 937,919.29179 c 0,0.16049 -2.1375,2.29799 -4.75,4.75 L 927.5,928.5 Z m -552.55322,-60 -1.90499,-2.25 2.25,1.90499 c 2.11444,1.79022 2.70524,2.59501 1.90499,2.59501 -0.18976,0 -1.20226,-1.0125 -2.25,-2.25 z M 571.48875,655 c 0,-94.875 0.11753,-133.6875 0.26118,-86.25 0.14365,47.4375 0.14365,125.0625 0,172.5 -0.14365,47.4375 -0.26118,8.625 -0.26118,-86.25 z M 472.232,823 c 0,-1.925 0.2058,-2.7125 0.45733,-1.75 0.25152,0.9625 0.25152,2.5375 0,3.5 -0.25153,0.9625 -0.45733,0.175 -0.45733,-1.75 z m 461.64044,-86.75 c -1.24387,-1.58606 -1.2085,-1.62143 0.37756,-0.37756 0.9625,0.75485 1.75,1.54235 1.75,1.75 0,0.82304 -0.82119,0.29331 -2.12756,-1.37244 z m -8,-8 c -1.24387,-1.58606 -1.2085,-1.62143 0.37756,-0.37756 0.9625,0.75485 1.75,1.54235 1.75,1.75 0,0.82304 -0.82119,0.29331 -2.12756,-1.37244 z M 654.32814,608.5 c 0.004,-3.85 0.18518,-5.30246 0.40166,-3.2277 0.21647,2.07477 0.21284,5.22477 -0.008,7 -0.22091,1.77524 -0.39803,0.0777 -0.39359,-3.7723 z m 143.43352,-45.20726 c 1.24391,-0.23919 3.04391,-0.23011 4,0.0202 0.95609,0.25029 -0.0617,0.446 -2.26166,0.4349 -2.2,-0.0111 -2.98225,-0.21589 -1.73834,-0.45508 z m -8.94916,-85.97585 c 0.72187,-0.28887 1.58438,-0.25335 1.91667,0.0789 0.33229,0.33229 -0.25834,0.56864 -1.3125,0.52522 -1.16495,-0.048 -1.4019,-0.28494 -0.60417,-0.60416 z m 19.9375,0.0208 c 0.6875,-0.27741 1.8125,-0.27741 2.5,0 0.6875,0.27741 0.125,0.50439 -1.25,0.50439 -1.375,0 -1.9375,-0.22698 -1.25,-0.50439 z"
         id="path5" />
      <path
         style="fill:#847b3c"
         d="m 420.28017,968.26373 c 2.6291,-0.20668 6.6791,-0.20418 9,0.006 2.32091,0.20972 0.16983,0.37882 -4.78017,0.37577 -4.95,-0.003 -6.84892,-0.17464 -4.21983,-0.38131 z m 379.50335,-0.002 c 2.90594,-0.20265 7.40594,-0.20052 10,0.005 2.59406,0.20525 0.21648,0.37104 -5.28352,0.36844 -5.5,-0.003 -7.62242,-0.17053 -4.71648,-0.37317 z m -19.97102,-0.94471 c 0.72187,-0.28887 1.58438,-0.25335 1.91667,0.0789 0.33229,0.33229 -0.25834,0.56864 -1.3125,0.52522 -1.16495,-0.048 -1.4019,-0.28494 -0.60417,-0.60416 z M 532.5,930 c 2.14824,-2.2 4.1309,-4 4.4059,-4 0.275,0 -1.25766,1.8 -3.4059,4 -2.14824,2.2 -4.1309,4 -4.4059,4 -0.275,0 1.25766,-1.8 3.4059,-4 z M 417.76791,880.27527 c 1.79735,-0.22256 4.49735,-0.21797 6,0.0102 1.50265,0.22818 0.0321,0.41027 -3.26791,0.40466 -3.3,-0.006 -4.52944,-0.1923 -2.73209,-0.41486 z M 728.45295,851.75 724.5,847.5 l 4.25,3.95295 c 2.3375,2.17412 4.25,4.08662 4.25,4.25 0,0.75658 -0.87085,-4.9e-4 -4.54705,-3.95295 z M 869.15789,835 c 0,-1.375 0.22698,-1.9375 0.50439,-1.25 0.27741,0.6875 0.27741,1.8125 0,2.5 -0.27741,0.6875 -0.50439,0.125 -0.50439,-1.25 z m 0,-5 c 0,-1.375 0.22698,-1.9375 0.50439,-1.25 0.27741,0.6875 0.27741,1.8125 0,2.5 -0.27741,0.6875 -0.50439,0.125 -0.50439,-1.25 z m -397,-2 c 0,-1.375 0.22698,-1.9375 0.50439,-1.25 0.27741,0.6875 0.27741,1.8125 0,2.5 -0.27741,0.6875 -0.50439,0.125 -0.50439,-1.25 z M 929.92431,732.25 927.5,729.5 l 2.75,2.42431 c 1.5125,1.33338 2.75,2.57088 2.75,2.75 0,0.78428 -0.8098,0.14598 -3.07569,-2.42431 z M 692.45295,706.75 688.5,702.5 l 4.25,3.95295 c 3.95246,3.6762 4.70953,4.54705 3.95295,4.54705 -0.16338,0 -2.07588,-1.9125 -4.25,-4.25 z m -37.374,-81.33333 c 0.048,-1.16495 0.28494,-1.4019 0.60416,-0.60417 0.28887,0.72187 0.25335,1.58438 -0.0789,1.91667 -0.33229,0.33229 -0.56864,-0.25834 -0.52522,-1.3125 z M 793.8125,563.31689 c 0.72187,-0.28887 1.58438,-0.25335 1.91667,0.0789 0.33229,0.33229 -0.25834,0.56864 -1.3125,0.52522 -1.16495,-0.048 -1.4019,-0.28494 -0.60417,-0.60416 z m 10,0 c 0.72187,-0.28887 1.58438,-0.25335 1.91667,0.0789 0.33229,0.33229 -0.25834,0.56864 -1.3125,0.52522 -1.16495,-0.048 -1.4019,-0.28494 -0.60417,-0.60416 z m -8.53233,-86.05316 c 2.6291,-0.20668 6.6791,-0.20418 9,0.006 2.32091,0.20972 0.16983,0.37882 -4.78017,0.37577 -4.95,-0.003 -6.84892,-0.17464 -4.21983,-0.38131 z"
         id="path4" />
      <path
         style="fill:#5e5a35"
         d="m 442.8125,967.31689 c 0.72187,-0.28887 1.58438,-0.25335 1.91667,0.0789 0.33229,0.33229 -0.25834,0.56864 -1.3125,0.52522 -1.16495,-0.048 -1.4019,-0.28494 -0.60417,-0.60416 z m 340,0 c 0.72187,-0.28887 1.58438,-0.25335 1.91667,0.0789 0.33229,0.33229 -0.25834,0.56864 -1.3125,0.52522 -1.16495,-0.048 -1.4019,-0.28494 -0.60417,-0.60416 z m 42,0 c 0.72187,-0.28887 1.58438,-0.25335 1.91667,0.0789 0.33229,0.33229 -0.25834,0.56864 -1.3125,0.52522 -1.16495,-0.048 -1.4019,-0.28494 -0.60417,-0.60416 z M 307.96584,924.25 302.5,918.5 l 5.75,5.46584 c 3.1625,3.00621 5.75,5.59371 5.75,5.75 0,0.74225 -0.95622,-0.12391 -6.03416,-5.46584 z m 353.95847,-7 -2.42431,-2.75 2.75,2.42431 c 1.5125,1.33338 2.75,2.57088 2.75,2.75 0,0.78428 -0.8098,0.14598 -3.07569,-2.42431 z m -8.51932,-8.5 -1.90499,-2.25 2.25,1.90499 c 1.2375,1.04774 2.25,2.06024 2.25,2.25 0,0.80025 -0.80479,0.20945 -2.59501,-1.90499 z M 799.25,881.28375 c 1.5125,-0.22913 3.9875,-0.22913 5.5,0 1.5125,0.22912 0.275,0.41659 -2.75,0.41659 -3.025,0 -4.2625,-0.18747 -2.75,-0.41659 z m -372.4375,-0.96686 c 0.72187,-0.28887 1.58438,-0.25335 1.91667,0.0789 0.33229,0.33229 -0.25834,0.56864 -1.3125,0.52522 -1.16495,-0.048 -1.4019,-0.28494 -0.60417,-0.60416 z M 857,862.5 c 1.29175,-1.375 2.57363,-2.5 2.84863,-2.5 0.275,0 -0.55688,1.125 -1.84863,2.5 -1.29175,1.375 -2.57363,2.5 -2.84863,2.5 -0.275,0 0.55688,-1.125 1.84863,-2.5 z M 722.87244,846.25 c -1.24387,-1.58606 -1.2085,-1.62143 0.37756,-0.37756 0.9625,0.75485 1.75,1.54235 1.75,1.75 0,0.82304 -0.82119,0.29331 -2.12756,-1.37244 z m 244.20651,-2.83333 c 0.048,-1.16495 0.28494,-1.4019 0.60416,-0.60417 0.28887,0.72187 0.25335,1.58438 -0.0789,1.91667 -0.33229,0.33229 -0.56864,-0.25834 -0.52522,-1.3125 z m -397,-6 c 0.048,-1.16495 0.28494,-1.4019 0.60416,-0.60417 0.28887,0.72187 0.25335,1.58438 -0.0789,1.91667 -0.33229,0.33229 -0.56864,-0.25834 -0.52522,-1.3125 z M 967.15789,818 c 0,-1.375 0.22698,-1.9375 0.50439,-1.25 0.27741,0.6875 0.27741,1.8125 0,2.5 -0.27741,0.6875 -0.50439,0.125 -0.50439,-1.25 z M 855.92431,799.25 853.5,796.5 l 2.75,2.42431 c 1.5125,1.33338 2.75,2.57088 2.75,2.75 0,0.78428 -0.8098,0.14598 -3.07569,-2.42431 z m 64.94813,-75 c -1.24387,-1.58606 -1.2085,-1.62143 0.37756,-0.37756 0.9625,0.75485 1.75,1.54235 1.75,1.75 0,0.82304 -0.82119,0.29331 -2.12756,-1.37244 z M 763.40499,637.75 761.5,635.5 l 2.25,1.90499 c 2.11444,1.79022 2.70524,2.59501 1.90499,2.59501 -0.18976,0 -1.20226,-1.0125 -2.25,-2.25 z M 655.07895,594.41667 c 0.048,-1.16495 0.28494,-1.4019 0.60416,-0.60417 0.28887,0.72187 0.25335,1.58438 -0.0789,1.91667 -0.33229,0.33229 -0.56864,-0.25834 -0.52522,-1.3125 z M 844.40499,580.75 842.5,578.5 l 2.25,1.90499 c 2.11444,1.79022 2.70524,2.59501 1.90499,2.59501 -0.18976,0 -1.20226,-1.0125 -2.25,-2.25 z M 760,579.62244 c 0,-0.20765 0.7875,-0.99515 1.75,-1.75 1.58606,-1.24387 1.62143,-1.2085 0.37756,0.37756 C 760.82119,579.91575 760,580.44548 760,579.62244 Z m 46.8125,-16.30555 c 0.72187,-0.28887 1.58438,-0.25335 1.91667,0.0789 0.33229,0.33229 -0.25834,0.56864 -1.3125,0.52522 -1.16495,-0.048 -1.4019,-0.28494 -0.60417,-0.60416 z M 915.87244,524.25 c -1.24387,-1.58606 -1.2085,-1.62143 0.37756,-0.37756 0.9625,0.75485 1.75,1.54235 1.75,1.75 0,0.82304 -0.82119,0.29331 -2.12756,-1.37244 z M 690.5,518 c 2.70865,-2.75 5.14982,-5 5.42482,-5 0.275,0 -1.71617,2.25 -4.42482,5 -2.70865,2.75 -5.14982,5 -5.42482,5 -0.275,0 1.71617,-2.25 4.42482,-5 z m 214.37244,-4.75 c -1.24387,-1.58606 -1.2085,-1.62143 0.37756,-0.37756 1.66575,1.30637 2.19548,2.12756 1.37244,2.12756 -0.20765,0 -0.99515,-0.7875 -1.75,-1.75 z M 818.8125,478.31689 c 0.72187,-0.28887 1.58438,-0.25335 1.91667,0.0789 0.33229,0.33229 -0.25834,0.56864 -1.3125,0.52522 -1.16495,-0.048 -1.4019,-0.28494 -0.60417,-0.60416 z"
         id="path3" />
      <path
         style="fill:#31322f"
         d="m 396.5,966.43048 c -27.11371,-3.69781 -50.48112,-12.8836 -71.83075,-28.23686 -10.8046,-7.76997 -27.00972,-24.84922 -34.89237,-36.77452 -8.12697,-12.29492 -13.33553,-22.29088 -12.16199,-23.3406 C 279.35522,876.52178 355.09225,831 355.94191,831 c 0.47694,0 2.32037,2.5875 4.0965,5.75 9.61217,17.11501 21.28689,30.86726 31.0415,36.56536 14.63636,8.54974 36.67756,9.97223 54.2954,3.5041 8.02011,-2.94447 16.67118,-11.03561 20.59913,-19.26591 6.93974,-14.54091 6.43193,0.22884 6.76646,-196.80355 L 473.04269,483 H 522.02134 571 v 174.39405 c 0,114.28826 -0.36106,177.96327 -1.0476,184.75 -7.45343,73.68035 -49.6921,116.82702 -122.16299,124.78909 -13.02657,1.43117 -38.97442,1.17687 -51.28941,-0.50266 z m 386,0.92788 c -24.50963,-2.79387 -38.42205,-5.68407 -55.18551,-11.46435 -38.11273,-13.14183 -70.66522,-38.25257 -91.92284,-70.90856 -5.77561,-8.8725 -10.02093,-16.71318 -9.36164,-17.29001 1.34744,-1.17893 79.17294,-45.81332 79.38667,-45.52975 0.13858,0.18387 3.00385,4.38431 6.36727,9.33431 13.73019,20.20696 29.98088,34.32492 48.46561,42.10504 26.05665,10.96709 61.7277,10.39824 84.06679,-1.34062 23.16143,-12.17099 31.9489,-38.03301 20.69226,-60.8985 -8.04087,-16.33331 -22.86607,-25.61358 -80.50861,-50.39669 -14.3,-6.14821 -31.2249,-13.83527 -37.61088,-17.08236 -50.0053,-25.42622 -77.6305,-56.1306 -87.346,-97.08183 -9.61765,-40.5388 -3.91359,-79.18935 16.27611,-110.28651 5.90443,-9.09428 23.6131,-26.8253 33.18871,-33.2306 C 734.59184,486.1744 763.92874,478 799.76318,478 c 60.87378,0 102.38382,21.1504 132.41966,67.47112 3.19944,4.93412 5.81716,9.48609 5.81716,10.11549 0,0.99847 -75.02636,49.96877 -75.38691,49.20564 -2.04507,-4.32848 -13.5947,-19.63383 -18.42616,-24.41798 -22.22584,-22.00819 -63.89009,-23.27315 -82.28601,-2.49826 -10.98445,12.40498 -13.49769,33.34432 -5.86342,48.85173 7.63264,15.50409 20.13082,23.53238 70.4625,45.26206 56.88849,24.56045 81.23015,38.85742 103.02316,60.5102 13.99936,13.90928 22.06619,25.79329 28.45252,41.91612 11.80642,29.80627 12.99132,71.9427 2.86988,102.056 -16.82548,50.05915 -62.74864,82.45231 -127.65477,90.04479 -11.23961,1.31477 -42.05162,1.82624 -50.69079,0.84145 z"
         id="path2" />
    </g>
  </g>
</svg>
