<?xml version="1.0" encoding="UTF-8" standalone="no"?>
<!-- Created with Inkscape (http://www.inkscape.org/) -->

<svg
   version="1.1"
   id="svg1"
   width="682.66669"
   height="682.66669"
   viewBox="0 0 682.66669 682.66669"
   sodipodi:docname="4844510.png"
   xmlns:inkscape="http://www.inkscape.org/namespaces/inkscape"
   xmlns:sodipodi="http://sodipodi.sourceforge.net/DTD/sodipodi-0.dtd"
   xmlns="http://www.w3.org/2000/svg"
   xmlns:svg="http://www.w3.org/2000/svg">
  <defs
     id="defs1" />
  <sodipodi:namedview
     id="namedview1"
     pagecolor="#ffffff"
     bordercolor="#000000"
     borderopacity="0.25"
     inkscape:showpageshadow="2"
     inkscape:pageopacity="0.0"
     inkscape:pagecheckerboard="0"
     inkscape:deskcolor="#d1d1d1" />
  <g
     inkscape:groupmode="layer"
     inkscape:label="Image"
     id="g1">
    <g
       id="g2"
       transform="matrix(1.116072,0,0,1.1076051,-38.075745,-36.83783)">
      <path
         style="fill:#fbd29f"
         d="m 364.63822,389.36479 c 2.06436,-2.28109 4.69512,-2.58407 4.69512,-0.54073 0,0.36666 -0.60423,0.29322 -1.34275,-0.1632 -0.73851,-0.45643 -1.7027,0.10816 -2.14265,1.25464 -0.43994,1.14648 -1.4287,2.08451 -2.19723,2.08451 -0.76853,0 -0.32415,-1.18585 0.98751,-2.63522 z m 23.36179,-15.11532 c 0,-0.22947 1.95,-2.17947 4.33334,-4.33334 l 4.33333,-3.91612 -3.91612,4.33333 c -3.65038,4.03928 -4.75055,4.94621 -4.75055,3.91613 z m -50.12668,-6.55981 c -1.55629,-1.82408 -1.71791,-2.34493 -0.41731,-1.34491 1.16748,0.89767 2.41748,1.33733 2.77778,0.97703 0.3603,-0.36031 0.6551,0.2449 0.6551,1.3449 0,2.55538 -0.002,2.5546 -3.01557,-0.97702 z m 42.23194,-8.46743 c 0.064,-1.55325 0.37992,-1.8692 0.80556,-0.80555 0.38516,0.9625 0.33779,2.1125 -0.10526,2.55555 -0.44306,0.44306 -0.75819,-0.34444 -0.7003,-1.75 z m -68.79694,-16.88889 -13.30832,-13.66666 13.66667,13.30831 c 12.69366,12.36083 14.27281,14.02502 13.30831,14.02502 -0.19709,0 -6.34709,-6.15 -13.66666,-13.66667 z m 68.79694,8.88889 c 0.064,-1.55325 0.37992,-1.8692 0.80556,-0.80555 0.38516,0.9625 0.33779,2.1125 -0.10526,2.55555 -0.44306,0.44306 -0.75819,-0.34444 -0.7003,-1.75 z m 30.66667,-14.66666 c 0.064,-1.55326 0.37992,-1.8692 0.80556,-0.80556 0.38516,0.9625 0.33779,2.1125 -0.10527,2.55556 -0.44305,0.44305 -0.75818,-0.34445 -0.70029,-1.75 z m 0,-10.66667 c 0.064,-1.55326 0.37992,-1.8692 0.80556,-0.80556 0.38516,0.9625 0.33779,2.1125 -0.10527,2.55556 -0.44305,0.44305 -0.75818,-0.34445 -0.70029,-1.75 z m -68,-48 c 0.064,-1.55326 0.37992,-1.8692 0.80556,-0.80556 0.38516,0.9625 0.33779,2.1125 -0.10527,2.55556 -0.44305,0.44305 -0.75818,-0.34445 -0.70029,-1.75 z m -50.37238,-5.88889 c 0,-4.03334 0.24996,-5.68334 0.55545,-3.66667 0.3055,2.01667 0.3055,5.31667 0,7.33333 -0.30549,2.01667 -0.55545,0.36667 -0.55545,-3.66666 z m -32.06331,-14 c 0.0148,-2.93334 0.28785,-3.97634 0.60677,-2.31779 0.31893,1.65855 0.30682,4.05855 -0.0269,5.33333 -0.33372,1.27479 -0.59466,-0.0822 -0.57986,-3.01554 z m 105.66376,-40.66667 c 3.61153,-3.66667 6.86642,-6.66667 7.23309,-6.66667 0.36667,0 -2.28822,3 -5.89976,6.66667 -3.61153,3.66667 -6.86642,6.66667 -7.23308,6.66667 -0.36667,0 2.28822,-3 5.89975,-6.66667 z m 28.66667,2.16326 c 0,-0.27687 1.05,-1.32687 2.33333,-2.33333 2.11474,-1.6585 2.1619,-1.61134 0.50341,0.5034 -1.74183,2.221 -2.83674,2.92731 -2.83674,1.82993 z M 287.33334,208.00001 c 4.35409,-4.4 8.21653,-8 8.58319,-8 0.36667,0 -2.89577,3.6 -7.24985,8 -4.35409,4.4 -8.21653,8 -8.5832,8 -0.36666,0 2.89577,-3.6 7.24986,-8 z m 119.33334,0.82992 c 0,-0.27687 1.05,-1.32687 2.33333,-2.33333 2.11474,-1.6585 2.1619,-1.61133 0.50341,0.50341 -1.74183,2.22099 -2.83674,2.9273 -2.83674,1.82992 z M 357.33334,183.4966 c 0,-0.27688 1.05,-1.32688 2.33334,-2.33333 2.11474,-1.6585 2.1619,-1.61134 0.5034,0.5034 -1.74182,2.221 -2.83674,2.92731 -2.83674,1.82993 z m 24,-24 c 0,-0.27688 1.05,-1.32688 2.33334,-2.33334 2.11474,-1.65849 2.1619,-1.61133 0.50341,0.50341 -1.74183,2.221 -2.83675,2.92731 -2.83675,1.82993 z m -30.66666,-4 c 0,-0.27688 1.05,-1.32688 2.33333,-2.33334 2.11474,-1.65849 2.1619,-1.61133 0.50341,0.50341 -1.74183,2.221 -2.83674,2.92731 -2.83674,1.82993 z m 12,-10.82993 c 1.72232,-1.83333 3.4315,-3.33333 3.79817,-3.33333 0.36667,0 -0.74251,1.5 -2.46484,3.33333 C 362.27768,146.5 360.56851,148 360.20184,148 c -0.36667,0 0.74251,-1.5 2.46484,-3.33333 z M 375.33334,132 c 1.32732,-1.46666 2.7133,-2.66666 3.07997,-2.66666 0.36667,0 -0.41932,1.2 -1.74663,2.66666 -1.32732,1.46667 -2.7133,2.66667 -3.07997,2.66667 -0.36667,0 0.41932,-1.2 1.74663,-2.66667 z m 30.42677,-69.333331 c 0,-4.766667 0.24199,-6.716667 0.53776,-4.333334 0.29577,2.383333 0.29577,6.283334 0,8.666667 -0.29577,2.383333 -0.53776,0.433333 -0.53776,-4.333333 z M 404.10528,45.88889 c 0.064,-1.553257 0.37992,-1.869199 0.80555,-0.805555 0.38516,0.9625 0.33779,2.1125 -0.10526,2.555555 -0.44306,0.443056 -0.75819,-0.344444 -0.70029,-1.75 z m -1.07896,-8.463185 c 0.10666,-1.415863 0.64316,-2.296648 1.19224,-1.9573 0.54908,0.339348 0.66033,1.497781 0.24724,2.574296 -1.04165,2.714478 -1.67014,2.445091 -1.43948,-0.616996 z"
         id="path8" />
      <path
         style="fill:#b3c7d5"
         d="m 302.33334,647.05904 c 1.65,-0.3178 4.35,-0.3178 6,0 1.65,0.31781 0.3,0.57783 -3,0.57783 -3.3,0 -4.65,-0.26002 -3,-0.57783 z m 81.34888,-0.002 c 1.65855,-0.31892 4.05855,-0.30681 5.33334,0.0269 1.27478,0.33373 -0.0822,0.59466 -3.01555,0.57986 -2.93333,-0.0148 -3.97634,-0.28784 -2.31779,-0.60677 z m -105.34888,-1.27336 c 0.91667,-0.36988 2.41667,-0.36988 3.33334,0 0.91666,0.36989 0.16666,0.67252 -1.66667,0.67252 -1.83334,0 -2.58334,-0.30263 -1.66667,-0.67252 z m 130.66667,0 c 0.91667,-0.36988 2.41667,-0.36988 3.33334,0 0.91666,0.36989 0.16666,0.67252 -1.66667,0.67252 -1.83333,0 -2.58333,-0.30263 -1.66667,-0.67252 z m -146.58334,-1.36111 c 0.9625,-0.38516 2.1125,-0.33779 2.55556,0.10527 0.44306,0.44305 -0.34444,0.75818 -1.75,0.70029 -1.55326,-0.064 -1.8692,-0.37992 -0.80556,-0.80556 z m 163.91668,0.0278 c 0.91666,-0.36988 2.41666,-0.36988 3.33333,0 0.91667,0.36988 0.16667,0.67252 -1.66667,0.67252 -1.83333,0 -2.58333,-0.30264 -1.66666,-0.67252 z M 250.41667,643.0892 c 0.9625,-0.38516 2.1125,-0.33779 2.55556,0.10526 0.44306,0.44306 -0.34444,0.75819 -1.75,0.7003 -1.55326,-0.064 -1.8692,-0.37992 -0.80556,-0.80556 z m 190.66668,0 c 0.9625,-0.38516 2.1125,-0.33779 2.55555,0.10526 0.44306,0.44306 -0.34444,0.75819 -1.75,0.7003 -1.55326,-0.064 -1.8692,-0.37992 -0.80555,-0.80556 z m 21.33333,-2.66667 c 0.9625,-0.38516 2.1125,-0.33779 2.55556,0.10527 0.44305,0.44305 -0.34445,0.75818 -1.75,0.70029 -1.55326,-0.064 -1.8692,-0.37992 -0.80556,-0.80556 z m -170.72613,-2.72215 c 2.39647,-0.29675 5.99647,-0.29063 8,0.0136 2.00354,0.30424 0.0428,0.54703 -4.35721,0.53955 -4.4,-0.007 -6.03925,-0.2564 -3.64279,-0.55315 z m 50.66667,0 c 2.39647,-0.29675 5.99647,-0.29063 8,0.0136 2.00354,0.30424 0.0428,0.54703 -4.35721,0.53955 -4.4,-0.007 -6.03925,-0.2564 -3.64279,-0.55315 z m -80.66517,-1.29102 c 1.29729,-0.33805 3.09729,-0.31582 4,0.0494 0.90271,0.36523 -0.15871,0.64182 -2.35871,0.61465 -2.2,-0.0272 -2.93858,-0.326 -1.64129,-0.66406 z m 114.64129,0.005 c 1.28334,-0.33537 3.38334,-0.33537 4.66667,0 1.28333,0.33537 0.23333,0.60977 -2.33333,0.60977 -2.56667,0 -3.61667,-0.2744 -2.33334,-0.60977 z m -132.66667,-1.29727 c 0.91667,-0.36989 2.41667,-0.36989 3.33334,0 0.91666,0.36988 0.16666,0.67251 -1.66667,0.67251 -1.83333,0 -2.58333,-0.30263 -1.66667,-0.67251 z m 153.33334,0 c 0.91667,-0.36989 2.41667,-0.36989 3.33334,0 0.91666,0.36988 0.16666,0.67251 -1.66667,0.67251 -1.83333,0 -2.58333,-0.30263 -1.66667,-0.67251 z m -167.91667,-1.36111 c 0.9625,-0.38516 2.1125,-0.3378 2.55556,0.10526 0.44305,0.44306 -0.34445,0.75819 -1.75,0.70029 -1.55326,-0.064 -1.8692,-0.37992 -0.80556,-0.80555 z m 182.66667,0 c 0.9625,-0.38516 2.1125,-0.3378 2.55556,0.10526 0.44305,0.44306 -0.34445,0.75819 -1.75,0.70029 -1.55326,-0.064 -1.8692,-0.37992 -0.80556,-0.80555 z m 13.33334,-1.33334 c 0.9625,-0.38516 2.1125,-0.33779 2.55555,0.10527 0.44306,0.44305 -0.34444,0.75818 -1.75,0.70029 -1.55326,-0.064 -1.8692,-0.37992 -0.80555,-0.80556 z M 198.00001,630.6668 c -0.45323,-0.73334 -0.18864,-1.33334 0.58797,-1.33334 0.77662,0 1.41203,0.6 1.41203,1.33334 0,0.73333 -0.26459,1.33333 -0.58798,1.33333 -0.32339,0 -0.9588,-0.6 -1.41202,-1.33333 z m 73,-12.91911 c 1.28333,-0.33537 3.38333,-0.33537 4.66666,0 1.28334,0.33537 0.23334,0.60977 -2.33333,0.60977 -2.56667,0 -3.61667,-0.2744 -2.33333,-0.60977 z m 78,-0.0219 c 1.65,-0.31781 4.35,-0.31781 6,0 1.65,0.3178 0.3,0.57782 -3,0.57782 -3.3,0 -4.65,-0.26002 -3,-0.57782 z m -103.30796,-1.31635 c 1.29729,-0.33805 3.09729,-0.31582 4,0.0494 0.90271,0.36523 -0.15871,0.64182 -2.35871,0.61465 -2.2,-0.0272 -2.93858,-0.326 -1.64129,-0.66406 z m 129.97463,0.0409 c 0.91666,-0.36988 2.41666,-0.36988 3.33333,0 0.91667,0.36988 0.16667,0.67252 -1.66667,0.67252 -1.83333,0 -2.58333,-0.30264 -1.66666,-0.67252 z M 227.75001,615.0892 c 0.9625,-0.38516 2.1125,-0.33779 2.55555,0.10526 0.44306,0.44306 -0.34444,0.75819 -1.75,0.7003 -1.55325,-0.064 -1.8692,-0.37993 -0.80555,-0.80556 z m 165.33334,0 c 0.9625,-0.38516 2.1125,-0.33779 2.55555,0.10526 0.44306,0.44306 -0.34444,0.75819 -1.75,0.7003 -1.55326,-0.064 -1.8692,-0.37993 -0.80555,-0.80556 z m -180.00001,-1.33333 c 0.9625,-0.38516 2.1125,-0.3378 2.55556,0.10526 0.44305,0.44305 -0.34445,0.75819 -1.75,0.70029 -1.55326,-0.064 -1.8692,-0.37992 -0.80556,-0.80555 z m 193.33334,0 c 0.9625,-0.38516 2.1125,-0.3378 2.55555,0.10526 0.44306,0.44305 -0.34444,0.75819 -1.75,0.70029 -1.55325,-0.064 -1.86919,-0.37992 -0.80555,-0.80555 z m 12,-1.33334 c 0.9625,-0.38516 2.1125,-0.33779 2.55555,0.10527 0.44306,0.44305 -0.34444,0.75818 -1.75,0.70029 -1.55325,-0.064 -1.86919,-0.37992 -0.80555,-0.80556 z M 304.4026,601.67185 c 7.18809,-0.24021 18.58809,-0.23916 25.33333,0.002 6.74524,0.24148 0.86408,0.43801 -13.06925,0.43673 -13.93334,-10e-4 -19.45217,-0.19886 -12.26408,-0.43906 z m -47.38705,-1.28151 c 1.65855,-0.31893 4.05855,-0.30682 5.33334,0.0269 1.27478,0.33373 -0.0822,0.59467 -3.01555,0.57987 -2.93333,-0.0148 -3.97634,-0.28785 -2.31779,-0.60677 z m 116.65113,0.0239 c 1.28333,-0.33537 3.38333,-0.33537 4.66666,0 1.28334,0.33537 0.23334,0.60976 -2.33333,0.60976 -2.56667,0 -3.61667,-0.27439 -2.33333,-0.60976 z m -135.33334,-1.29727 c 0.91667,-0.36989 2.41667,-0.36989 3.33333,0 0.91667,0.36988 0.16667,0.67251 -1.66666,0.67251 -1.83334,0 -2.58334,-0.30263 -1.66667,-0.67251 z m 159.35871,-0.041 c 1.29729,-0.33806 3.09729,-0.31583 4,0.0494 0.90271,0.36523 -0.1587,0.64182 -2.3587,0.61465 -2.2,-0.0272 -2.93859,-0.326 -1.6413,-0.66406 z m -173.94204,-1.32016 c 0.9625,-0.38517 2.1125,-0.3378 2.55555,0.10526 0.44306,0.44305 -0.34444,0.75819 -1.75,0.70029 -1.55326,-0.064 -1.8692,-0.37992 -0.80555,-0.80555 z m 191.91667,0.0278 c 0.91667,-0.36988 2.41667,-0.36988 3.33333,0 0.91667,0.36989 0.16667,0.67252 -1.66666,0.67252 -1.83334,0 -2.58334,-0.30263 -1.66667,-0.67252 z m -298.50342,-2.78362 c -1.65849,-2.11474 -1.61133,-2.1619 0.50341,-0.50341 1.28333,1.00646 2.33333,2.05646 2.33333,2.33333 0,1.09738 -1.09491,0.39108 -2.83674,-1.82992 z m 94.58675,1.42251 c 0.9625,-0.38516 2.1125,-0.33779 2.55555,0.10527 0.44306,0.44305 -0.34444,0.75818 -1.75,0.70029 -1.55326,-0.064 -1.8692,-0.37992 -0.80555,-0.80556 z m 220,0 c 0.9625,-0.38516 2.1125,-0.33779 2.55556,0.10527 0.44305,0.44305 -0.34445,0.75818 -1.75,0.70029 -1.55326,-0.064 -1.8692,-0.37992 -0.80556,-0.80556 z m 12,-1.33333 c 0.9625,-0.38516 2.1125,-0.33779 2.55556,0.10526 0.44305,0.44306 -0.34445,0.75819 -1.75,0.70029 -1.55326,-0.064 -1.8692,-0.37992 -0.80556,-0.80555 z M 311.02539,559.07603 c 1.29729,-0.33806 3.09729,-0.31583 4,0.0494 0.90271,0.36524 -0.15871,0.64183 -2.35871,0.61466 -2.2,-0.0272 -2.93858,-0.326 -1.64129,-0.66406 z m 33.33333,0 c 1.29729,-0.33806 3.09729,-0.31583 4,0.0494 0.90271,0.36524 -0.15871,0.64183 -2.35871,0.61466 -2.2,-0.0272 -2.93858,-0.326 -1.64129,-0.66406 z m -48.60871,-1.32017 c 0.9625,-0.38516 2.1125,-0.33779 2.55555,0.10527 0.44306,0.44305 -0.34444,0.75818 -1.75,0.70029 -1.55325,-0.064 -1.86919,-0.37992 -0.80555,-0.80556 z m 65.33333,0 c 0.9625,-0.38516 2.1125,-0.33779 2.55556,0.10527 0.44306,0.44305 -0.34444,0.75818 -1.75,0.70029 -1.55326,-0.064 -1.8692,-0.37992 -0.80556,-0.80556 z m -174.66667,-4 c 0.9625,-0.38516 2.1125,-0.33779 2.55556,0.10527 0.44305,0.44305 -0.34445,0.75818 -1.75,0.70029 -1.55326,-0.064 -1.8692,-0.37992 -0.80556,-0.80556 z m 123.25001,-24.00828 c 1.28333,-0.33537 3.38333,-0.33537 4.66666,0 1.28334,0.33537 0.23334,0.60977 -2.33333,0.60977 -2.56667,0 -3.61667,-0.2744 -2.33333,-0.60977 z m 31.33333,0.0361 c 0.91667,-0.36988 2.41667,-0.36988 3.33333,0 0.91667,0.36988 0.16667,0.67252 -1.66666,0.67252 -1.83334,0 -2.58334,-0.30264 -1.66667,-0.67252 z m -49.25,-1.36111 c 0.9625,-0.38516 2.1125,-0.33779 2.55555,0.10526 0.44306,0.44306 -0.34444,0.75819 -1.75,0.7003 -1.55325,-0.064 -1.86919,-0.37992 -0.80555,-0.80556 z m 66.66667,0 c 0.9625,-0.38516 2.1125,-0.33779 2.55555,0.10526 0.44306,0.44306 -0.34444,0.75819 -1.75,0.7003 -1.55325,-0.064 -1.8692,-0.37992 -0.80555,-0.80556 z m 44,-6.66667 c 0.9625,-0.38516 2.1125,-0.33779 2.55555,0.10527 0.44306,0.44305 -0.34444,0.75818 -1.75,0.70029 -1.55325,-0.064 -1.86919,-0.37992 -0.80555,-0.80556 z m -146.5915,-8.87852 c 0.81676,-0.98414 1.19023,-2.08414 0.82993,-2.44445 -0.36031,-0.3603 0.24739,-0.6551 1.35044,-0.6551 1.71002,0 1.67957,0.3602 -0.20665,2.44445 -2.534,2.80004 -4.21764,3.35885 -1.97372,0.6551 z m 44.5265,-21.8341 c 2.02675,-0.30647 5.02675,-0.29828 6.66666,0.0182 1.63992,0.31648 -0.0183,0.56723 -3.685,0.55722 -3.66666,-0.01 -5.00841,-0.26895 -2.98166,-0.57542 z m 28,0 c 2.02675,-0.30647 5.02675,-0.29828 6.66666,0.0182 1.63992,0.31648 -0.0183,0.56723 -3.685,0.55722 -3.66666,-0.01 -5.00841,-0.26895 -2.98166,-0.57542 z m -48.60167,-1.28738 c 0.9625,-0.38516 2.1125,-0.33779 2.55555,0.10527 0.44306,0.44305 -0.34444,0.75818 -1.75,0.70029 -1.55325,-0.064 -1.8692,-0.37992 -0.80555,-0.80556 z m 74.66667,0 c 0.9625,-0.38516 2.1125,-0.33779 2.55555,0.10527 0.44306,0.44305 -0.34444,0.75818 -1.75,0.70029 -1.55325,-0.064 -1.8692,-0.37992 -0.80555,-0.80556 z m 25.33333,-2.66666 c 0.9625,-0.38517 2.1125,-0.3378 2.55556,0.10526 0.44305,0.44305 -0.34445,0.75819 -1.75,0.70029 -1.55326,-0.064 -1.8692,-0.37992 -0.80556,-0.80555 z m -65.37197,-18.74039 c 3.87458,-0.27019 9.87458,-0.26735 13.33333,0.006 3.45875,0.27366 0.28864,0.49472 -7.04469,0.49125 -7.33334,-0.003 -10.16322,-0.22737 -6.28864,-0.49756 z m -32.0447,-1.23184 c 0.91667,-0.36988 2.41667,-0.36988 3.33334,0 0.91666,0.36989 0.16666,0.67252 -1.66667,0.67252 -1.83333,0 -2.58333,-0.30263 -1.66667,-0.67252 z m 69.33334,0 c 0.91666,-0.36988 2.41666,-0.36988 3.33333,0 0.91667,0.36989 0.16667,0.67252 -1.66667,0.67252 -1.83333,0 -2.58333,-0.30263 -1.66666,-0.67252 z m -85.33334,-1.33333 c 0.91667,-0.36988 2.41667,-0.36988 3.33333,0 0.91667,0.36988 0.16667,0.67251 -1.66666,0.67251 -1.83334,0 -2.58334,-0.30263 -1.66667,-0.67251 z m 100.08334,-0.0278 c 0.9625,-0.38516 2.1125,-0.33779 2.55555,0.10526 0.44306,0.44306 -0.34444,0.75819 -1.75,0.7003 -1.55325,-0.064 -1.8692,-0.37992 -0.80555,-0.80556 z m 146.91667,-8.92592 c 0,-0.27687 1.05,-1.32687 2.33333,-2.33333 2.11474,-1.6585 2.1619,-1.61134 0.50341,0.5034 -1.74183,2.221 -2.83674,2.92731 -2.83674,1.82993 z M 237.4386,453.8889 c 0.064,-1.55325 0.37992,-1.8692 0.80556,-0.80555 0.38516,0.9625 0.33779,2.1125 -0.10526,2.55555 -0.44306,0.44306 -0.75819,-0.34444 -0.7003,-1.75 z m 3.71991,-7.67823 c 0.81677,-0.98414 1.19023,-2.08414 0.82993,-2.44445 -0.36031,-0.3603 0.24739,-0.6551 1.35044,-0.6551 1.71002,0 1.67957,0.3602 -0.20665,2.44445 -2.534,2.80004 -4.21764,3.35885 -1.97372,0.6551 z m 282.84151,-0.0474 c 0,-0.27687 1.05,-1.32687 2.33333,-2.33333 2.11474,-1.65849 2.1619,-1.61133 0.50341,0.50341 -1.74183,2.22099 -2.83674,2.9273 -2.83674,1.82992 z M 269.71536,425.67991 c 4.24344,-0.2654 10.84344,-0.26294 14.66667,0.005 3.82322,0.26841 0.35131,0.48555 -7.71536,0.48254 -8.06666,-0.003 -11.19475,-0.22261 -6.95131,-0.48801 z m 29.28465,0.0155 c 2.75,-0.28766 7.25,-0.28766 10,0 2.75,0.28766 0.5,0.52301 -5,0.52301 -5.5,0 -7.75,-0.23535 -5,-0.52301 z m -62,-1.24508 c 0.91666,-0.36989 2.41666,-0.36989 3.33333,0 0.91667,0.36988 0.16667,0.67251 -1.66667,0.67251 -1.83333,0 -2.58333,-0.30263 -1.66666,-0.67251 z m 100.69204,-0.041 c 1.29729,-0.33806 3.09729,-0.31583 4,0.0494 0.90271,0.36523 -0.15871,0.64183 -2.35871,0.61465 -2.2,-0.0272 -2.93858,-0.32599 -1.64129,-0.66405 z m -116.60871,-1.32017 c 0.9625,-0.38516 2.1125,-0.33779 2.55556,0.10527 0.44305,0.44305 -0.34445,0.75818 -1.75,0.70029 -1.55326,-0.064 -1.8692,-0.37992 -0.80556,-0.80556 z m 134.58334,0.0278 c 0.91666,-0.36988 2.41666,-0.36988 3.33333,0 0.91667,0.36988 0.16667,0.67252 -1.66667,0.67252 -1.83333,0 -2.58333,-0.30264 -1.66666,-0.67252 z M 566.77195,409.8889 c 0.064,-1.55326 0.37992,-1.8692 0.80555,-0.80555 0.38516,0.9625 0.33779,2.1125 -0.10526,2.55555 -0.44306,0.44306 -0.75819,-0.34444 -0.70029,-1.75 z m -311.74657,-0.14621 c 1.29729,-0.33806 3.09729,-0.31582 4,0.0494 0.90271,0.36523 -0.15871,0.64182 -2.35871,0.61465 -2.2,-0.0272 -2.93858,-0.326 -1.64129,-0.66406 z m 63.32351,-0.019 c 1.65855,-0.31892 4.05855,-0.30681 5.33333,0.0269 1.27479,0.33373 -0.0822,0.59466 -3.01554,0.57986 -2.93334,-0.0148 -3.97634,-0.28784 -2.31779,-0.60677 z m -81.26555,-1.30113 c 0.9625,-0.38516 2.1125,-0.3378 2.55556,0.10526 0.44305,0.44306 -0.34445,0.75819 -1.75,0.70029 -1.55326,-0.064 -1.8692,-0.37992 -0.80556,-0.80555 z m 109.94205,-0.0132 c 1.29729,-0.33806 3.09729,-0.31583 4,0.0494 0.90271,0.36523 -0.15871,0.64183 -2.35871,0.61465 -2.2,-0.0272 -2.93858,-0.32599 -1.64129,-0.66405 z m 20.64129,-1.29239 c 0.91666,-0.36988 2.41666,-0.36988 3.33333,0 0.91667,0.36988 0.16667,0.67252 -1.66667,0.67252 -1.83333,0 -2.58333,-0.30264 -1.66666,-0.67252 z m 17.41666,-1.36111 c 0.9625,-0.38516 2.1125,-0.33779 2.55556,0.10526 0.44306,0.44306 -0.34444,0.75819 -1.75,0.7003 -1.55326,-0.064 -1.8692,-0.37992 -0.80556,-0.80556 z m 13.33334,-1.33333 c 0.9625,-0.38516 2.1125,-0.3378 2.55555,0.10526 0.44306,0.44306 -0.34444,0.75819 -1.75,0.70029 -1.55325,-0.064 -1.8692,-0.37992 -0.80555,-0.80555 z m 12,-1.33334 c 0.9625,-0.38516 2.1125,-0.33779 2.55555,0.10527 0.44306,0.44305 -0.34444,0.75818 -1.75,0.70029 -1.55325,-0.064 -1.86919,-0.37992 -0.80555,-0.80556 z m 91.25,-29.34161 c 1.28333,-0.33537 3.38334,-0.33537 4.66667,0 1.28333,0.33537 0.23333,0.60976 -2.33333,0.60976 -2.56667,0 -3.61667,-0.27439 -2.33334,-0.60976 z m -248.58334,-1.32505 c 0.9625,-0.38517 2.1125,-0.3378 2.55556,0.10526 0.44305,0.44305 -0.34445,0.75819 -1.75,0.70029 -1.55326,-0.064 -1.8692,-0.37992 -0.80556,-0.80555 z"
         id="path7" />
      <path
         style="fill:#9ab5c7"
         d="m 311.66668,647.11698 c 0.91666,-0.36988 2.41666,-0.36988 3.33333,0 0.91667,0.36988 0.16667,0.67251 -1.66667,0.67251 -1.83333,0 -2.58333,-0.30263 -1.66666,-0.67251 z m 65.33333,0 c 0.91667,-0.36988 2.41667,-0.36988 3.33333,0 0.91667,0.36988 0.16667,0.67251 -1.66666,0.67251 -1.83334,0 -2.58334,-0.30263 -1.66667,-0.67251 z m -91.91667,-9.36111 c 0.9625,-0.38516 2.1125,-0.3378 2.55556,0.10526 0.44305,0.44306 -0.34445,0.75819 -1.75,0.70029 -1.55326,-0.064 -1.8692,-0.37992 -0.80556,-0.80555 z m 69.25,0.0278 c 0.91667,-0.36988 2.41667,-0.36988 3.33334,0 0.91666,0.36989 0.16666,0.67252 -1.66667,0.67252 -1.83333,0 -2.58333,-0.30263 -1.66667,-0.67252 z M 279.02538,617.7427 c 1.29729,-0.33806 3.09729,-0.31583 4,0.0494 0.90271,0.36523 -0.1587,0.64183 -2.3587,0.61465 -2.20001,-0.0272 -2.93859,-0.32599 -1.6413,-0.66405 z m 64.72463,0.0132 c 0.9625,-0.38516 2.1125,-0.3378 2.55556,0.10526 0.44305,0.44306 -0.34445,0.75819 -1.75,0.70029 -1.55326,-0.064 -1.8692,-0.37992 -0.80556,-0.80555 z m -58.73446,-16.0322 c 1.65855,-0.31892 4.05855,-0.30682 5.33334,0.0269 1.27478,0.33372 -0.0822,0.59466 -3.01555,0.57986 -2.93333,-0.0148 -3.97634,-0.28785 -2.31779,-0.60677 z m 57.98446,0.0239 c 1.28333,-0.33537 3.38333,-0.33537 4.66667,0 1.28333,0.33537 0.23333,0.60977 -2.33334,0.60977 -2.56666,0 -3.61666,-0.2744 -2.33333,-0.60977 z m 38.08333,-1.32505 c 0.9625,-0.38516 2.1125,-0.33779 2.55556,0.10527 0.44306,0.44305 -0.34444,0.75818 -1.75,0.70029 -1.55326,-0.064 -1.8692,-0.37992 -0.80556,-0.80556 z M 317.00001,559.117 c 0.91667,-0.36989 2.41667,-0.36989 3.33333,0 0.91667,0.36988 0.16667,0.67251 -1.66666,0.67251 -1.83334,0 -2.58334,-0.30263 -1.66667,-0.67251 z m 21.33333,0 c 0.91667,-0.36989 2.41667,-0.36989 3.33334,0 0.91666,0.36988 0.16666,0.67251 -1.66667,0.67251 -1.83333,0 -2.58333,-0.30263 -1.66667,-0.67251 z m -25.33333,-68.08149 c 2.38333,-0.29577 6.28333,-0.29577 8.66667,0 2.38333,0.29577 0.43333,0.53776 -4.33334,0.53776 -4.76666,0 -6.71666,-0.24199 -4.33333,-0.53776 z m -9.97463,-22.62613 c 1.29729,-0.33806 3.0973,-0.31583 4.00001,0.0494 0.9027,0.36524 -0.15871,0.64183 -2.35871,0.61466 -2.2,-0.0272 -2.93859,-0.326 -1.6413,-0.66406 z m 31.3913,0.0132 c 0.9625,-0.38516 2.1125,-0.33779 2.55555,0.10526 0.44306,0.44306 -0.34444,0.75819 -1.75,0.70029 -1.55326,-0.064 -1.8692,-0.37992 -0.80555,-0.80555 z m -42.66667,-42.66667 c 0.9625,-0.38516 2.1125,-0.33779 2.55555,0.10526 0.44306,0.44306 -0.34444,0.75819 -1.75,0.7003 -1.55325,-0.064 -1.86919,-0.37992 -0.80555,-0.80556 z M 541.54388,409.3334 c 0,-1.83334 0.30263,-2.58334 0.67251,-1.66667 0.36988,0.91667 0.36988,2.41667 0,3.33333 -0.36988,0.91667 -0.67251,0.16667 -0.67251,-1.66666 z m -291.12721,0.42251 c 0.9625,-0.38516 2.1125,-0.33779 2.55556,0.10526 0.44306,0.44306 -0.34444,0.75819 -1.75,0.7003 -1.55326,-0.064 -1.8692,-0.37992 -0.80556,-0.80556 z m 76.00001,0 c 0.9625,-0.38516 2.1125,-0.33779 2.55555,0.10526 0.44306,0.44306 -0.34444,0.75819 -1.75,0.7003 -1.55326,-0.064 -1.8692,-0.37992 -0.80555,-0.80556 z m 26.66666,-1.33333 c 0.9625,-0.38516 2.1125,-0.3378 2.55556,0.10526 0.44306,0.44306 -0.34444,0.75819 -1.75,0.70029 -1.55326,-0.064 -1.8692,-0.37992 -0.80556,-0.80555 z"
         id="path6" />
      <path
         style="fill:#f8b259"
         d="m 368.72362,386.75881 c -0.42191,-0.68266 -0.25732,-1.55627 0.36575,-1.94135 0.62308,-0.38508 1.13286,0.17346 1.13286,1.2412 0,2.24823 -0.42045,2.44466 -1.49861,0.70015 z m -36.82452,-25.09213 -3.23242,-3.66667 3.66666,3.23242 c 3.42706,3.02118 4.27812,4.10091 3.23242,4.10091 -0.23883,0 -1.88883,-1.65 -3.66666,-3.66666 z m 79.02751,-30.33334 c 0.0272,-2.2 0.326,-2.93858 0.66406,-1.64129 0.33805,1.29729 0.31582,3.09729 -0.0494,4 -0.36523,0.90271 -0.64182,-0.15871 -0.61465,-2.35871 z m -117.76334,-8.33333 c -1.6585,-2.11474 -1.61134,-2.1619 0.50341,-0.50341 1.28333,1.00646 2.33333,2.05646 2.33333,2.33334 0,1.09737 -1.09492,0.39107 -2.83674,-1.82993 z m 97.50341,-99.50341 c 0,-0.27687 1.05,-1.32687 2.33333,-2.33333 2.11474,-1.6585 2.1619,-1.61134 0.50341,0.5034 -1.74183,2.221 -2.83674,2.92731 -2.83674,1.82993 z m -69.33334,-9.49659 c 3.98323,-4.03334 7.54224,-7.33334 7.90891,-7.33334 0.36667,0 -2.59234,3.3 -6.57557,7.33334 -3.98324,4.03333 -7.54224,7.33333 -7.90891,7.33333 -0.36667,0 2.59234,-3.3 6.57557,-7.33333 z m 80.00001,-1.33334 c 1.72232,-1.83333 3.4315,-3.33333 3.79817,-3.33333 0.36666,0 -0.74251,1.5 -2.46484,3.33333 -1.72233,1.83334 -3.43151,3.33334 -3.79817,3.33334 -0.36667,0 0.74251,-1.5 2.46484,-3.33334 z m -102.66667,-14.5034 c 0,-0.27688 1.05,-1.32688 2.33333,-2.33334 2.11474,-1.65849 2.1619,-1.61133 0.50341,0.50341 -1.74183,2.221 -2.83674,2.9273 -2.83674,1.82993 z m 52,-9.33334 c 0,-0.27687 1.05,-1.32687 2.33333,-2.33333 2.11474,-1.6585 2.1619,-1.61134 0.50341,0.50341 -1.74183,2.22099 -2.83674,2.9273 -2.83674,1.82992 z m 10.66666,-9.19663 c 0,-0.20168 4.65,-4.85169 10.33334,-10.33333 l 10.33333,-9.96663 -9.96663,10.33333 c -9.25678,9.59737 -10.70004,10.9417 -10.70004,9.96663 z m -5.33333,-28.1367 c 0,-0.27688 1.05,-1.32688 2.33333,-2.33334 2.11474,-1.65849 2.16191,-1.61133 0.50341,0.50341 -1.74183,2.221 -2.83674,2.92731 -2.83674,1.82993 z m 22.66667,-22.66667 c 0,-0.27687 1.05,-1.32687 2.33333,-2.33333 2.11474,-1.6585 2.1619,-1.61134 0.50341,0.5034 -1.74183,2.221 -2.83674,2.92731 -2.83674,1.82993 z m 26.77193,-76.274373 c 0.064,-1.553257 0.37992,-1.869199 0.80555,-0.805555 0.38516,0.9625 0.3378,2.1125 -0.10526,2.555555 -0.44305,0.443056 -0.75819,-0.344444 -0.70029,-1.75 z"
         id="path5" />
      <path
         style="fill:#86a6bb"
         d="m 318.34889,647.057 c 1.65855,-0.31892 4.05855,-0.30681 5.33333,0.0269 1.27479,0.33373 -0.0822,0.59466 -3.01554,0.57986 -2.93334,-0.0148 -3.97634,-0.28784 -2.31779,-0.60677 z m 48.66945,-0.0138 c 2.02675,-0.30647 5.02675,-0.29828 6.66667,0.0182 1.63992,0.31649 -0.0183,0.56724 -3.685,0.55723 -3.66667,-0.01 -5.00842,-0.26895 -2.98167,-0.57543 z m -80.685,-1.2596 c 0.91667,-0.36988 2.41667,-0.36988 3.33334,0 0.91666,0.36989 0.16666,0.67252 -1.66667,0.67252 -1.83333,0 -2.58333,-0.30263 -1.66667,-0.67252 z m 116.08334,-0.0278 c 0.9625,-0.38516 2.1125,-0.3378 2.55555,0.10526 0.44306,0.44306 -0.34444,0.75819 -1.75,0.70029 -1.55325,-0.064 -1.86919,-0.37992 -0.80555,-0.80555 z m 33.33333,-2.66667 c 0.9625,-0.38516 2.1125,-0.33779 2.55556,0.10526 0.44305,0.44306 -0.34445,0.75819 -1.75,0.7003 -1.55326,-0.064 -1.8692,-0.37992 -0.80556,-0.80556 z m -156.72463,-5.3465 c 1.29729,-0.33806 3.09729,-0.31583 4,0.0494 0.90271,0.36523 -0.1587,0.64183 -2.3587,0.61465 -2.20001,-0.0272 -2.93859,-0.32599 -1.6413,-0.66405 z m 81.33334,0 c 1.29729,-0.33806 3.09729,-0.31583 4,0.0494 0.90271,0.36523 -0.15871,0.64183 -2.35871,0.61465 -2.2,-0.0272 -2.93858,-0.32599 -1.64129,-0.66405 z m -105.94205,-1.32017 c 0.9625,-0.38516 2.1125,-0.33779 2.55556,0.10527 0.44306,0.44305 -0.34444,0.75818 -1.75,0.70029 -1.55326,-0.064 -1.8692,-0.37992 -0.80556,-0.80556 z m 132.00001,0 c 0.9625,-0.38516 2.1125,-0.33779 2.55555,0.10527 0.44306,0.44305 -0.34444,0.75818 -1.75,0.70029 -1.55325,-0.064 -1.8692,-0.37992 -0.80555,-0.80556 z m 17.33333,-1.33333 c 0.9625,-0.38516 2.1125,-0.33779 2.55556,0.10526 0.44305,0.44306 -0.34445,0.75819 -1.75,0.7003 -1.55326,-0.064 -1.8692,-0.37992 -0.80556,-0.80556 z M 286.33334,617.72571 c 1.65,-0.31781 4.35,-0.31781 6,0 1.65,0.3178 0.3,0.57782 -3,0.57782 -3.3,0 -4.65,-0.26002 -3,-0.57782 z m 47.35167,-0.0158 c 2.02675,-0.30647 5.02675,-0.29828 6.66667,0.0182 1.63991,0.31648 -0.0183,0.56723 -3.685,0.55722 -3.66667,-0.01 -5.00842,-0.26895 -2.98167,-0.57542 z m -79.26834,-1.28738 c 0.9625,-0.38516 2.1125,-0.33779 2.55556,0.10527 0.44306,0.44305 -0.34444,0.75818 -1.75,0.70029 -1.55326,-0.064 -1.8692,-0.37992 -0.80556,-0.80556 z m 113.25001,0.0278 c 0.91666,-0.36988 2.41666,-0.36988 3.33333,0 0.91667,0.36988 0.16667,0.67252 -1.66667,0.67252 -1.83333,0 -2.58333,-0.30264 -1.66666,-0.67252 z M 234.41667,615.0892 c 0.9625,-0.38516 2.1125,-0.33779 2.55556,0.10526 0.44305,0.44306 -0.34445,0.75819 -1.75,0.7003 -1.55326,-0.064 -1.8692,-0.37993 -0.80556,-0.80556 z m -16,-1.33333 c 0.9625,-0.38516 2.1125,-0.3378 2.55556,0.10526 0.44305,0.44305 -0.34445,0.75819 -1.75,0.70029 -1.55326,-0.064 -1.8692,-0.37992 -0.80556,-0.80555 z m 57.91667,-12.00829 c 1.28333,-0.33537 3.38334,-0.33537 4.66667,0 1.28333,0.33537 0.23333,0.60977 -2.33334,0.60977 -2.56666,0 -3.61666,-0.2744 -2.33333,-0.60977 z m 75.33334,-0.0219 c 1.65,-0.31781 4.35,-0.31781 6,0 1.65,0.3178 0.3,0.57782 -3,0.57782 -3.3,0 -4.65,-0.26002 -3,-0.57782 z m 33.41666,-1.30318 c 0.9625,-0.38516 2.1125,-0.33779 2.55556,0.10527 0.44306,0.44305 -0.34444,0.75818 -1.75,0.70029 -1.55326,-0.064 -1.8692,-0.37992 -0.80556,-0.80556 z m -153.33333,-1.3333 c 0.9625,-0.38516 2.1125,-0.33779 2.55555,0.10526 0.44306,0.44306 -0.34444,0.75819 -1.75,0.70029 -1.55325,-0.064 -1.8692,-0.37992 -0.80555,-0.80555 z m 174.66667,0 c 0.9625,-0.38516 2.1125,-0.33779 2.55555,0.10526 0.44306,0.44306 -0.34444,0.75819 -1.75,0.70029 -1.55325,-0.064 -1.86919,-0.37992 -0.80555,-0.80555 z m 16,-1.33333 c 0.9625,-0.38517 2.1125,-0.3378 2.55555,0.10526 0.44306,0.44305 -0.34444,0.75819 -1.75,0.70029 -1.55325,-0.064 -1.86919,-0.37992 -0.80555,-0.80555 z m -97.41667,-38.72038 c 2.38333,-0.29577 6.28333,-0.29577 8.66667,0 2.38333,0.29577 0.43333,0.53776 -4.33334,0.53776 -4.76666,0 -6.71666,-0.24199 -4.33333,-0.53776 z m -117.33334,-2.58518 c 0.91667,-0.36988 2.41667,-0.36988 3.33334,0 0.91666,0.36988 0.16666,0.67251 -1.66667,0.67251 -1.83333,0 -2.58333,-0.30263 -1.66667,-0.67251 z m -15.91666,-2.69445 c 0.9625,-0.38516 2.1125,-0.33779 2.55555,0.10527 0.44306,0.44305 -0.34444,0.75818 -1.75,0.70029 -1.55326,-0.064 -1.8692,-0.37992 -0.80555,-0.80556 z m 9.33333,0 c 0.9625,-0.38516 2.1125,-0.33779 2.55555,0.10527 0.44306,0.44305 -0.34444,0.75818 -1.75,0.70029 -1.55325,-0.064 -1.86919,-0.37992 -0.80555,-0.80556 z m 33.41326,-17.42251 c -1.65849,-2.11474 -1.61133,-2.1619 0.50341,-0.50341 1.28333,1.00646 2.33333,2.05646 2.33333,2.33334 0,1.09737 -1.09491,0.39107 -2.83674,-1.82993 z m 67.92008,-6.57749 c 0.9625,-0.38516 2.1125,-0.33779 2.55555,0.10527 0.44306,0.44305 -0.34444,0.75818 -1.75,0.70029 -1.55326,-0.064 -1.8692,-0.37992 -0.80555,-0.80556 z m 46.66666,0 c 0.9625,-0.38516 2.1125,-0.33779 2.55556,0.10527 0.44305,0.44305 -0.34445,0.75818 -1.75,0.70029 -1.55326,-0.064 -1.8692,-0.37992 -0.80556,-0.80556 z m -64,-40 c 0.9625,-0.38516 2.1125,-0.33779 2.55556,0.10527 0.44305,0.44305 -0.34445,0.75818 -1.75,0.70029 -1.55326,-0.064 -1.8692,-0.37992 -0.80556,-0.80556 z m 62.66667,0 c 0.9625,-0.38516 2.1125,-0.33779 2.55556,0.10527 0.44305,0.44305 -0.34445,0.75818 -1.75,0.70029 -1.55326,-0.064 -1.8692,-0.37992 -0.80556,-0.80556 z m 16,-1.33333 c 0.9625,-0.38516 2.1125,-0.33779 2.55556,0.10526 0.44305,0.44306 -0.34445,0.75819 -1.75,0.70029 -1.55326,-0.064 -1.8692,-0.37992 -0.80556,-0.80555 z M 215.82993,471.00001 c -1.65849,-2.11474 -1.61133,-2.1619 0.50341,-0.5034 1.28333,1.00646 2.33333,2.05646 2.33333,2.33333 0,1.09738 -1.09491,0.39107 -2.83674,-1.82993 z m 80.52879,-2.59065 c 1.29729,-0.33806 3.09729,-0.31583 4,0.0494 0.90271,0.36524 -0.15871,0.64183 -2.35871,0.61466 -2.2,-0.0272 -2.93858,-0.326 -1.64129,-0.66406 z m 41.97462,0.041 c 0.91667,-0.36989 2.41667,-0.36989 3.33334,0 0.91666,0.36988 0.16666,0.67251 -1.66667,0.67251 -1.83333,0 -2.58333,-0.30263 -1.66667,-0.67251 z m 20.08334,-1.36111 c 0.9625,-0.38517 2.1125,-0.3378 2.55555,0.10526 0.44306,0.44305 -0.34444,0.75819 -1.75,0.70029 -1.55325,-0.064 -1.8692,-0.37992 -0.80555,-0.80555 z m 184.25,-14.25926 c 0,-0.27687 1.05,-1.32687 2.33334,-2.33333 2.11474,-1.6585 2.1619,-1.61134 0.5034,0.5034 -1.74182,2.221 -2.83674,2.92731 -2.83674,1.82993 z m 8,-8 c 0,-0.27687 1.05,-1.32687 2.33334,-2.33333 2.11474,-1.6585 2.1619,-1.61134 0.5034,0.5034 -1.74182,2.221 -2.83674,2.92731 -2.83674,1.82993 z M 245.00001,424.45031 c 0.91666,-0.36989 2.41666,-0.36989 3.33333,0 0.91667,0.36988 0.16667,0.67251 -1.66667,0.67251 -1.83333,0 -2.58333,-0.30263 -1.66666,-0.67251 z m 83.35871,-0.041 c 1.29729,-0.33806 3.09729,-0.31583 4,0.0494 0.90271,0.36523 -0.15871,0.64183 -2.35871,0.61465 -2.2,-0.0272 -2.93858,-0.32599 -1.64129,-0.66405 z m 22.05796,-1.32017 c 0.9625,-0.38516 2.1125,-0.33779 2.55555,0.10527 0.44306,0.44305 -0.34444,0.75818 -1.75,0.70029 -1.55325,-0.064 -1.8692,-0.37992 -0.80555,-0.80556 z M 246.41667,409.75586 c 0.9625,-0.38516 2.1125,-0.33779 2.55556,0.10526 0.44306,0.44306 -0.34444,0.75819 -1.75,0.7003 -1.55326,-0.064 -1.8692,-0.37992 -0.80556,-0.80556 z m 84.60872,-0.0132 c 1.29729,-0.33806 3.09729,-0.31582 4,0.0494 0.90271,0.36523 -0.15871,0.64182 -2.35871,0.61465 -2.2,-0.0272 -2.93858,-0.326 -1.64129,-0.66406 z m 26.05795,-1.32016 c 0.9625,-0.38516 2.1125,-0.3378 2.55556,0.10526 0.44306,0.44306 -0.34444,0.75819 -1.75,0.70029 -1.55326,-0.064 -1.8692,-0.37992 -0.80556,-0.80555 z m 18.66667,-1.33334 c 0.9625,-0.38516 2.1125,-0.33779 2.55556,0.10527 0.44305,0.44305 -0.34445,0.75818 -1.75,0.70029 -1.55326,-0.064 -1.8692,-0.37992 -0.80556,-0.80556 z m 155.45666,-22.08918 -2.53999,-3 3,2.53998 c 1.65,1.397 3,2.747 3,3 0,1.06701 -1.07306,0.27928 -3.46001,-2.53998 z m 23.28994,-3.33333 c -1.65849,-2.11474 -1.61133,-2.1619 0.50341,-0.50341 2.22099,1.74183 2.9273,2.83674 1.82992,2.83674 -0.27687,0 -1.32687,-1.05 -2.33333,-2.33333 z M 259.66667,372.4503 c 0.91667,-0.36988 2.41667,-0.36988 3.33334,0 0.91666,0.36989 0.16666,0.67252 -1.66667,0.67252 -1.83333,0 -2.58333,-0.30263 -1.66667,-0.67252 z"
         id="path4" />
      <path
         style="fill:#f6971c"
         d="m 371.39947,382.75181 c 10.29325,-14.32744 12.69886,-29.4243 6.73095,-42.24126 -1.74727,-3.75254 -7.17253,-11.85254 -12.05612,-18 -17.36584,-21.86011 -25.25794,-44.28987 -22.17901,-63.03394 4.9882,-30.36735 31.71468,-56.32752 82.10472,-79.7506 11.76262,-5.46767 50.30222,-19.58377 48.47283,-17.75439 -0.38421,0.38421 -8.91111,5.75489 -18.94867,11.93484 -39.62001,24.39334 -65.60632,46.66899 -73.97125,63.40868 -3.54706,7.09831 -4.21941,9.95085 -4.21852,17.89783 10e-4,11.72354 3.8375,20.49416 17.34566,39.65696 14.49694,20.5655 15.29925,22.47629 15.31039,36.46341 0.009,11.18495 -0.3074,12.58815 -4.6571,20.65929 -5.4882,10.18368 -18.58884,23.91962 -30.3987,31.87284 l -8.3987,5.65602 z M 320.15944,349.8264 c -55.02555,-52.80426 -69.52966,-86.2582 -51.1107,-117.88755 7.40447,-12.7151 28.0067,-32.63041 61.61794,-59.5635 30.99519,-24.83683 50.30268,-43.37301 59.1295,-56.76738 14.19397,-21.538829 19.71682,-46.387727 15.44546,-69.493608 -0.78377,-4.239803 -1.13633,-7.997432 -0.78348,-8.350287 0.35286,-0.352855 3.10521,4.355879 6.11634,10.463853 7.52605,15.266327 9.4278,28.299354 6.52173,44.694637 -5.87503,33.145375 -27.38786,62.658535 -75.09622,103.023475 -20.95666,17.73095 -30.58604,27.82289 -38.21811,40.05397 -14.45899,23.17182 -15.55371,42.24324 -3.86503,67.33333 2.73309,5.86667 11.88376,20.86667 20.33481,33.33334 14.04735,20.72212 20.59402,31.33333 19.33134,31.33333 -0.26701,0 -9.00762,-8.17813 -19.42358,-18.17361 z"
         id="path3" />
      <path
         style="fill:#5381a0"
         d="m 301.52363,646.52211 c -42.13714,-1.84729 -77.61973,-6.77277 -94.85696,-13.16747 -4.03333,-1.4963 -5.83333,-2.4476 -4,-2.114 35.05742,6.37908 121.6732,9.34493 176.38487,6.03968 87.24509,-5.27068 163.06342,-22.62258 184.10661,-42.13492 l 3.81171,-3.53442 -0.95164,3.19452 c -1.89333,6.35562 -7.84164,13.24478 -16.50927,19.12058 -26.73716,18.12517 -83.287,29.30396 -165.50894,32.71786 -34.96517,1.45177 -46.9871,1.43401 -82.47638,-0.12183 z m -18.85695,-28.7629 c -48.78996,-1.36366 -129.94089,-10.1998 -150.78657,-16.41843 -16.5155,-4.92687 -20.18291,-11.61574 -11.26065,-20.53799 14.83384,-14.83385 62.0149,-29.67175 83.38055,-26.22223 6.72702,1.08609 6.13322,1.35558 -8.91398,4.04548 -10.76674,1.92471 -25.9875,7.14347 -33.2537,11.40175 -15.68803,9.1938 -8.75088,15.70269 24.16768,22.67571 61.64322,13.05766 190.96989,13.29243 280,0.50827 36.1504,-5.19096 56.84215,-11.61495 63.7129,-19.78038 3.94323,-4.68625 4.37768,-6.85842 2.18953,-10.94704 -1.39404,-2.60478 -1.34111,-2.61484 2.05414,-0.39018 3.78229,2.47825 6.04344,5.88492 6.04344,9.10513 0,3.94801 -8.06417,11.15923 -17.64803,15.78139 -33.77128,16.28739 -94.67873,27.00516 -172.35198,30.32844 -29.02201,1.24172 -37.08201,1.29559 -67.33333,0.45008 z m 8.17646,-61.19795 c -24.43226,-3.55797 -43.76018,-10.178 -52.70593,-18.05236 -6.70744,-5.90413 -7.81764,-10.18304 -4.04104,-15.57489 2.0319,-2.90094 13.78978,-9.53365 20.5705,-11.60398 3.23109,-0.98653 3.26177,-0.93752 1,1.59777 -7.23857,8.11399 1.77617,12.57761 31.76127,15.72649 34.42569,3.61521 64.51138,2.58221 100.09896,-3.43693 l 16.19355,-2.73892 16.26968,8.02196 16.26967,8.02195 -5.06929,2.11809 c -15.79798,6.60081 -41.16718,12.92363 -64.52383,16.08141 -17.57594,2.37623 -59.00595,2.28849 -75.82354,-0.16059 z m -6.17646,-66.75009 c -30.03894,-3.42417 -47.90126,-7.35141 -58.98708,-12.96903 -7.38665,-3.74309 -12.34626,-9.04479 -12.34626,-13.19783 0,-5.06741 14.13455,-15.16794 26.5565,-18.97724 l 3.22316,-0.98842 -2.88983,3.67383 c -1.58941,2.0206 -2.88983,5.04936 -2.88983,6.73057 0,3.71744 5.28052,8.11353 11.84073,9.85755 10.89573,2.89661 37.46455,4.65215 70.15927,4.63579 35.77898,-0.0179 44.56247,-0.74022 82.06937,-6.74896 l 22.06937,-3.53559 6.70943,4.82024 c 3.69018,2.65113 9.26935,5.96635 12.39816,7.36716 l 5.68873,2.54692 -17.13419,4.13143 c -38.60233,9.30785 -76.26286,13.61591 -116.34835,13.30932 -14.36555,-0.10988 -27.91918,-0.40496 -30.11918,-0.65574 z m 186.77102,-4.39476 c 0.67594,-0.6462 6.52269,-4.20485 12.99278,-7.90812 25.32231,-14.49365 45.04056,-32.66891 53.01428,-48.86583 3.74939,-7.6161 4.45811,-10.53016 4.50115,-18.50758 0.0436,-8.07417 -0.53763,-10.536 -3.94741,-16.72061 -4.4309,-8.03671 -11.9075,-14.12454 -21.72811,-17.69214 -7.6772,-2.78895 -14.82172,-2.95968 -24.01887,-0.57397 -6.74592,1.74987 -6.91745,1.72769 -4.793,-0.6198 2.66398,-2.94366 13.55375,-6.26159 24.11791,-7.34832 20.97081,-2.15726 41.7089,8.23583 50.85534,25.48664 4.99409,9.41921 5.0196,24.6833 0.059,35.33333 -10.65007,22.86508 -39.46243,42.47489 -81.05311,55.1651 -6.17594,1.88441 -10.67594,2.8975 -10,2.2513 z M 244.00001,424.53442 c -36.47068,-3.10323 -52.44946,-5.51417 -66.17841,-9.98526 -15.27097,-4.97327 -16.45811,-11.35105 -3.40761,-18.30689 22.8535,-12.18079 55.18802,-20.87191 86.91935,-23.36286 l 7.33333,-0.57567 -6.66666,1.92744 c -30.67309,8.86811 -50.04655,16.91324 -53.22414,22.10217 -3.57803,5.84282 6.73617,10.42507 29.07185,12.91565 16.23027,1.80978 82.00746,1.83296 111.87049,0.0394 35.13105,-2.10993 86.27586,-7.82702 113.61514,-12.70017 2.75312,-0.49074 0.99034,0.91505 -5.65502,4.50979 -5.31027,2.87254 -10.41027,5.84174 -11.33334,6.59823 -4.25274,3.48529 -44.71405,10.62749 -81.72818,14.42661 -18.76779,1.92632 -105.85602,3.66751 -120.6168,2.41154 z"
         id="path2" />
    </g>
  </g>
</svg>
