<?xml version="1.0" encoding="UTF-8" standalone="no"?>
<!-- Created with Inkscape (http://www.inkscape.org/) -->

<svg
   version="1.1"
   id="svg1"
   width="1280"
   height="1278"
   viewBox="0 0 1280 1278"
   sodipodi:docname="language-2024210_1280.png"
   xmlns:inkscape="http://www.inkscape.org/namespaces/inkscape"
   xmlns:sodipodi="http://sodipodi.sourceforge.net/DTD/sodipodi-0.dtd"
   xmlns="http://www.w3.org/2000/svg"
   xmlns:svg="http://www.w3.org/2000/svg">
  <defs
     id="defs1" />
  <sodipodi:namedview
     id="namedview1"
     pagecolor="#ffffff"
     bordercolor="#000000"
     borderopacity="0.25"
     inkscape:showpageshadow="2"
     inkscape:pageopacity="0.0"
     inkscape:pagecheckerboard="0"
     inkscape:deskcolor="#d1d1d1" />
  <g
     inkscape:groupmode="layer"
     inkscape:label="Image"
     id="g1">
    <g
       id="g2">
      <path
         style="fill:#fdef9f"
         d="m 611.28017,1277.2637 c 2.6291,-0.2066 6.6791,-0.2042 9,0.01 2.32091,0.2097 0.16983,0.3788 -4.78017,0.3757 -4.95,0 -6.84892,-0.1746 -4.21983,-0.3813 z m 62.46983,-9e-4 c 2.8875,-0.202 7.6125,-0.202 10.5,0 2.8875,0.202 0.525,0.3672 -5.25,0.3672 -5.775,0 -8.1375,-0.1652 -5.25,-0.3672 z m -82.5,-0.9791 c 1.5125,-0.2291 3.9875,-0.2291 5.5,0 1.5125,0.2292 0.275,0.4166 -2.75,0.4166 -3.025,0 -4.2625,-0.1874 -2.75,-0.4166 z m 109,0 c 1.5125,-0.2291 3.9875,-0.2291 5.5,0 1.5125,0.2292 0.275,0.4166 -2.75,0.4166 -3.025,0 -4.2625,-0.1874 -2.75,-0.4166 z m -122.48834,-0.991 c 1.24391,-0.2392 3.04391,-0.2301 4,0.02 0.95609,0.2503 -0.0617,0.446 -2.26166,0.4349 -2.2,-0.011 -2.98225,-0.2159 -1.73834,-0.4551 z m 139,0 c 1.24391,-0.2392 3.04391,-0.2301 4,0.02 0.95609,0.2503 -0.0617,0.446 -2.26166,0.4349 -2.2,-0.011 -2.98225,-0.2159 -1.73834,-0.4551 z M 566.25,1274.3107 c 0.9625,-0.2516 2.5375,-0.2516 3.5,0 0.9625,0.2515 0.175,0.4573 -1.75,0.4573 -1.925,0 -2.7125,-0.2058 -1.75,-0.4573 z m 162.01903,0 c 0.97297,-0.2535 2.32297,-0.2369 3,0.037 0.67703,0.2739 -0.11903,0.4813 -1.76903,0.461 -1.65,-0.02 -2.20394,-0.2445 -1.23097,-0.4981 z m -171,-1 c 0.97297,-0.2535 2.32297,-0.2369 3,0.037 0.67703,0.2739 -0.11903,0.4813 -1.76903,0.461 -1.65,-0.02 -2.20394,-0.2445 -1.23097,-0.4981 z m 180.98097,0 c 0.9625,-0.2516 2.5375,-0.2516 3.5,0 0.9625,0.2515 0.175,0.4573 -1.75,0.4573 -1.925,0 -2.7125,-0.2058 -1.75,-0.4573 z m -189.5,-0.973 c 0.6875,-0.2774 1.8125,-0.2774 2.5,0 0.6875,0.2774 0.125,0.5044 -1.25,0.5044 -1.375,0 -1.9375,-0.227 -1.25,-0.5044 z m 198.51903,-0.031 c 0.97297,-0.2535 2.32297,-0.2369 3,0.037 0.67703,0.2739 -0.11903,0.4813 -1.76903,0.461 -1.65,-0.02 -2.20394,-0.2445 -1.23097,-0.4981 z m -206.45653,-0.9901 c 0.72187,-0.2889 1.58438,-0.2534 1.91667,0.079 0.33229,0.3323 -0.25834,0.5687 -1.3125,0.5253 -1.16495,-0.048 -1.4019,-0.285 -0.60417,-0.6042 z m 214.9375,0.021 c 0.6875,-0.2774 1.8125,-0.2774 2.5,0 0.6875,0.2774 0.125,0.5044 -1.25,0.5044 -1.375,0 -1.9375,-0.227 -1.25,-0.5044 z m -222,-1 c 0.6875,-0.2774 1.8125,-0.2774 2.5,0 0.6875,0.2774 0.125,0.5044 -1.25,0.5044 -1.375,0 -1.9375,-0.227 -1.25,-0.5044 z m 229,0 c 0.6875,-0.2774 1.8125,-0.2774 2.5,0 0.6875,0.2774 0.125,0.5044 -1.25,0.5044 -1.375,0 -1.9375,-0.227 -1.25,-0.5044 z m -234.9375,-1.0208 c 0.72187,-0.2889 1.58438,-0.2534 1.91667,0.079 0.33229,0.3323 -0.25834,0.5687 -1.3125,0.5253 -1.16495,-0.048 -1.4019,-0.285 -0.60417,-0.6042 z m 243,0 c 0.72187,-0.2889 1.58438,-0.2534 1.91667,0.079 0.33229,0.3323 -0.25834,0.5687 -1.3125,0.5253 -1.16495,-0.048 -1.4019,-0.285 -0.60417,-0.6042 z m -249,-1 c 0.72187,-0.2889 1.58438,-0.2534 1.91667,0.079 0.33229,0.3323 -0.25834,0.5687 -1.3125,0.5253 -1.16495,-0.048 -1.4019,-0.285 -0.60417,-0.6042 z m 253.9375,0.021 c 0.6875,-0.2774 1.8125,-0.2774 2.5,0 0.6875,0.2774 0.125,0.5044 -1.25,0.5044 -1.375,0 -1.9375,-0.227 -1.25,-0.5044 z m -259.9375,-1.0208 c 0.72187,-0.2889 1.58438,-0.2534 1.91667,0.079 0.33229,0.3323 -0.25834,0.5687 -1.3125,0.5253 -1.16495,-0.048 -1.4019,-0.285 -0.60417,-0.6042 z m 267,0 c 0.72187,-0.2889 1.58438,-0.2534 1.91667,0.079 0.33229,0.3323 -0.25834,0.5687 -1.3125,0.5253 -1.16495,-0.048 -1.4019,-0.285 -0.60417,-0.6042 z m -272,-1 c 0.72187,-0.2889 1.58438,-0.2534 1.91667,0.079 0.33229,0.3323 -0.25834,0.5687 -1.3125,0.5253 -1.16495,-0.048 -1.4019,-0.285 -0.60417,-0.6042 z m 277,0 c 0.72187,-0.2889 1.58438,-0.2534 1.91667,0.079 0.33229,0.3323 -0.25834,0.5687 -1.3125,0.5253 -1.16495,-0.048 -1.4019,-0.285 -0.60417,-0.6042 z m 5,-1 c 0.72187,-0.2889 1.58438,-0.2534 1.91667,0.079 0.33229,0.3323 -0.25834,0.5687 -1.3125,0.5253 -1.16495,-0.048 -1.4019,-0.285 -0.60417,-0.6042 z m -292,-1 c 0.72187,-0.2889 1.58438,-0.2534 1.91667,0.079 0.33229,0.3323 -0.25834,0.5687 -1.3125,0.5253 -1.16495,-0.048 -1.4019,-0.285 -0.60417,-0.6042 z m 297,0 c 0.72187,-0.2889 1.58438,-0.2534 1.91667,0.079 0.33229,0.3323 -0.25834,0.5687 -1.3125,0.5253 -1.16495,-0.048 -1.4019,-0.285 -0.60417,-0.6042 z m 5,-1 c 0.72187,-0.2889 1.58438,-0.2534 1.91667,0.079 0.33229,0.3323 -0.25834,0.5687 -1.3125,0.5253 -1.16495,-0.048 -1.4019,-0.285 -0.60417,-0.6042 z m 4,-1 c 0.72187,-0.2889 1.58438,-0.2534 1.91667,0.079 0.33229,0.3323 -0.25834,0.5687 -1.3125,0.5253 -1.16495,-0.048 -1.4019,-0.285 -0.60417,-0.6042 z m 8,-2 c 0.72187,-0.2889 1.58438,-0.2534 1.91667,0.079 0.33229,0.3323 -0.25834,0.5687 -1.3125,0.5253 -1.16495,-0.048 -1.4019,-0.285 -0.60417,-0.6042 z m 15,-4 c 0.72187,-0.2889 1.58438,-0.2534 1.91667,0.079 0.33229,0.3323 -0.25834,0.5687 -1.3125,0.5253 -1.16495,-0.048 -1.4019,-0.285 -0.60417,-0.6042 z M 869,1242 c 0.825,-0.5332 1.95,-0.9694 2.5,-0.9694 0.55,0 0.325,0.4362 -0.5,0.9694 -0.825,0.5332 -1.95,0.9694 -2.5,0.9694 -0.55,0 -0.325,-0.4362 0.5,-0.9694 z m 36.5,-21 c 0.99549,-1.1 2.03498,-2 2.30998,-2 0.275,0 -0.31449,0.9 -1.30998,2 -0.99549,1.1 -2.03498,2 -2.30998,2 -0.275,0 0.31449,-0.9 1.30998,-2 z m 3.5,-2.3129 c 0,-0.1721 1.4625,-1.6346 3.25,-3.25 l 3.25,-2.9371 -2.93709,3.25 C 909.82513,1218.7795 909,1219.4597 909,1218.6871 Z M 382.87244,1213.25 c -1.24387,-1.5861 -1.2085,-1.6214 0.37756,-0.3776 0.9625,0.7549 1.75,1.5424 1.75,1.75 0,0.8231 -0.82119,0.2933 -2.12756,-1.3724 z M 375,1206.5 c -2.42903,-2.475 -4.19142,-4.5 -3.91642,-4.5 0.275,0 2.48739,2.025 4.91642,4.5 2.42903,2.475 4.19142,4.5 3.91642,4.5 -0.275,0 -2.48739,-2.025 -4.91642,-4.5 z m -10.56291,-10.75 -2.93709,-3.25 3.25,2.9371 c 3.02946,2.7378 3.70965,3.5629 2.93709,3.5629 -0.1721,0 -1.6346,-1.4625 -3.25,-3.25 z M 930.5,1197 c 0.99549,-1.1 2.03498,-2 2.30998,-2 0.275,0 -0.31449,0.9 -1.30998,2 -0.99549,1.1 -2.03498,2 -2.30998,2 -0.275,0 0.31449,-0.9 1.30998,-2 z m -571.62756,-7.75 c -1.24387,-1.5861 -1.2085,-1.6214 0.37756,-0.3776 0.9625,0.7549 1.75,1.5424 1.75,1.75 0,0.8231 -0.82119,0.2933 -2.12756,-1.3724 z m 454.39659,-9.943 c 0.97297,-0.2535 2.32297,-0.2369 3,0.037 0.67703,0.2739 -0.11903,0.4813 -1.76903,0.461 -1.65,-0.02 -2.20394,-0.2445 -1.23097,-0.4981 z m 6,0 c 0.97297,-0.2535 2.32297,-0.2369 3,0.037 0.67703,0.2739 -0.11903,0.4813 -1.76903,0.461 -1.65,-0.02 -2.20394,-0.2445 -1.23097,-0.4981 z m -11.45653,-0.9901 c 0.72187,-0.2889 1.58438,-0.2534 1.91667,0.079 0.33229,0.3323 -0.25834,0.5687 -1.3125,0.5253 -1.16495,-0.048 -1.4019,-0.285 -0.60417,-0.6042 z m 20,0 c 0.72187,-0.2889 1.58438,-0.2534 1.91667,0.079 0.33229,0.3323 -0.25834,0.5687 -1.3125,0.5253 -1.16495,-0.048 -1.4019,-0.285 -0.60417,-0.6042 z m -24,-1 c 0.72187,-0.2889 1.58438,-0.2534 1.91667,0.079 0.33229,0.3323 -0.25834,0.5687 -1.3125,0.5253 -1.16495,-0.048 -1.4019,-0.285 -0.60417,-0.6042 z m 28,0 c 0.72187,-0.2889 1.58438,-0.2534 1.91667,0.079 0.33229,0.3323 -0.25834,0.5687 -1.3125,0.5253 -1.16495,-0.048 -1.4019,-0.285 -0.60417,-0.6042 z m -39.30542,-4.3054 c -0.35034,-0.5669 0.0511,-0.7346 0.94098,-0.3931 1.73242,0.6648 2.04939,1.3816 0.61096,1.3816 -0.51754,0 -1.21592,-0.4448 -1.55194,-0.9885 z m -8.63464,-5.7615 c -1.24387,-1.5861 -1.2085,-1.6214 0.37756,-0.3776 0.9625,0.7549 1.75,1.5424 1.75,1.75 0,0.8231 -0.82119,0.2933 -2.12756,-1.3724 z M 851,1168.6224 c 0,-0.2076 0.7875,-0.9951 1.75,-1.75 1.58606,-1.2438 1.62143,-1.2085 0.37756,0.3776 -1.30637,1.6657 -2.12756,2.1955 -2.12756,1.3724 z m 5,-4 c 0,-0.2076 0.7875,-0.9951 1.75,-1.75 1.58606,-1.2438 1.62143,-1.2085 0.37756,0.3776 -1.30637,1.6657 -2.12756,2.1955 -2.12756,1.3724 z m 94.07895,-5.2057 c 0.048,-1.165 0.28494,-1.4019 0.60416,-0.6042 0.28887,0.7219 0.25335,1.5844 -0.0789,1.9167 -0.33229,0.3323 -0.56864,-0.2584 -0.52522,-1.3125 z M 773.87244,1157.25 c -1.24387,-1.5861 -1.2085,-1.6214 0.37756,-0.3776 1.66575,1.3064 2.19548,2.1276 1.37244,2.1276 -0.20765,0 -0.99515,-0.7875 -1.75,-1.75 z m 177.20651,-2.8333 c 0.048,-1.165 0.28494,-1.4019 0.60416,-0.6042 0.28887,0.7219 0.25335,1.5844 -0.0789,1.9167 -0.33229,0.3323 -0.56864,-0.2584 -0.52522,-1.3125 z M 952.4681,1093 c 0,-31.625 0.12658,-44.5625 0.28128,-28.75 0.15471,15.8125 0.15471,41.6875 0,57.5 -0.1547,15.8125 -0.28128,2.875 -0.28128,-28.75 z m -79.38915,40.4167 c 0.048,-1.165 0.28494,-1.4019 0.60416,-0.6042 0.28887,0.7219 0.25335,1.5844 -0.0789,1.9167 -0.33229,0.3323 -0.56864,-0.2584 -0.52522,-1.3125 z m -110,-2 c 0.048,-1.165 0.28494,-1.4019 0.60416,-0.6042 0.28887,0.7219 0.25335,1.5844 -0.0789,1.9167 -0.33229,0.3323 -0.56864,-0.2584 -0.52522,-1.3125 z M 874.30987,1123.5 c 0.006,-3.3 0.1923,-4.5294 0.41486,-2.7321 0.22256,1.7974 0.21797,4.4974 -0.0102,6 -0.22818,1.5027 -0.41027,0.032 -0.40466,-3.2679 z M 763.15789,1115 c 0,-1.375 0.22698,-1.9375 0.50439,-1.25 0.27741,0.6875 0.27741,1.8125 0,2.5 -0.27741,0.6875 -0.50439,0.125 -0.50439,-1.25 z m 104.4064,-16.7069 c -0.54268,-1.4252 -0.42782,-1.54 0.5598,-0.5598 0.68342,0.6784 0.99067,1.4853 0.68278,1.7932 -0.30789,0.3078 -0.86705,-0.2472 -1.24258,-1.2334 z m -5.69185,-9.0431 c -1.24387,-1.5861 -1.2085,-1.6214 0.37756,-0.3776 1.66575,1.3064 2.19548,2.1276 1.37244,2.1276 -0.20765,0 -0.99515,-0.7875 -1.75,-1.75 z M 779,1084.5 c 2.98742,-3.025 5.65668,-5.5 5.93168,-5.5 0.275,0 -1.94426,2.475 -4.93168,5.5 -2.98742,3.025 -5.65668,5.5 -5.93168,5.5 -0.275,0 1.94426,-2.475 4.93168,-5.5 z m 72.87244,-5.25 c -1.24387,-1.5861 -1.2085,-1.6214 0.37756,-0.3776 0.9625,0.7549 1.75,1.5424 1.75,1.75 0,0.8231 -0.82119,0.2933 -2.12756,-1.3724 z M 808.75,1068.3377 c 0.6875,-0.2774 1.8125,-0.2774 2.5,0 0.6875,0.2774 0.125,0.5044 -1.25,0.5044 -1.375,0 -1.9375,-0.227 -1.25,-0.5044 z m 17,0 c 0.6875,-0.2774 1.8125,-0.2774 2.5,0 0.6875,0.2774 0.125,0.5044 -1.25,0.5044 -1.375,0 -1.9375,-0.227 -1.25,-0.5044 z m -8.48097,-1.0307 c 0.97297,-0.2535 2.32297,-0.2369 3,0.037 0.67703,0.2739 -0.11903,0.4813 -1.76903,0.461 -1.65,-0.02 -2.20394,-0.2445 -1.23097,-0.4981 z M 332.47795,932 c 0,-47.025 0.12229,-66.2625 0.27176,-42.75 0.14947,23.5125 0.14947,61.9875 0,85.5 -0.14947,23.5125 -0.27176,4.275 -0.27176,-42.75 z m 552.84033,58.25078 c 12.55005,-0.15877 32.80005,-0.15859 45,4e-4 12.19995,0.159 1.93172,0.2889 -22.81828,0.28869 -24.75,-2.2e-4 -34.73177,-0.13031 -22.18172,-0.28909 z m -243.87154,-1.52899 c -0.26978,-0.70302 -0.35808,-10.26552 -0.19623,-21.25 L 641.54478,947.5 641.77239,968.24075 642,988.9815 l 50.25,0.26871 50.25,0.26871 -50.28138,0.24054 c -40.06945,0.19169 -50.38101,-0.0191 -50.77188,-1.03767 z m 51.37957,-42.47163 c 28.22947,-0.14762 74.12947,-0.14758 102,9e-5 27.87053,0.14767 4.77369,0.26845 -51.32631,0.2684 -56.1,-4e-5 -78.90316,-0.12087 -50.67369,-0.26849 z m 155.90139,0.0281 c 1.77523,-0.22091 4.92523,-0.22454 7,-0.008 2.07476,0.21648 0.6223,0.39722 -3.2277,0.40166 -3.85,0.004 -5.54754,-0.17268 -3.7723,-0.39359 z m 155.5906,-1.02749 c 12.55,-0.15877 32.8,-0.15859 45,4e-4 12.1999,0.159 1.9317,0.2889 -22.8183,0.28869 -24.75,-2.2e-4 -34.73177,-0.13031 -22.1817,-0.28909 z m 90.9317,-0.97925 c 2.0625,-0.21574 5.4375,-0.21574 7.5,0 2.0625,0.21575 0.375,0.39226 -3.75,0.39226 -4.125,0 -5.8125,-0.17651 -3.75,-0.39226 z m 18.019,-0.96452 c 0.973,-0.25354 2.323,-0.23687 3,0.0371 0.6771,0.27393 -0.119,0.48137 -1.769,0.46099 -1.65,-0.0204 -2.2039,-0.2445 -1.231,-0.49804 z m 7.481,-0.96929 c 0.6875,-0.27741 1.8125,-0.27741 2.5,0 0.6875,0.27741 0.125,0.50439 -1.25,0.50439 -1.375,0 -1.9375,-0.22698 -1.25,-0.50439 z M 1162,927.55136 c 0,-0.275 1.35,-1.19811 3,-2.05136 1.65,-0.85325 3,-1.32636 3,-1.05136 0,0.275 -1.35,1.19811 -3,2.05136 -1.65,0.85325 -3,1.32636 -3,1.05136 z m 28,-17.92892 c 0,-0.20765 0.7875,-0.99515 1.75,-1.75 1.5861,-1.24387 1.6214,-1.2085 0.3776,0.37756 -1.3064,1.66575 -2.1276,2.19548 -2.1276,1.37244 z m 7,-6.12244 c 1.2917,-1.375 2.5736,-2.5 2.8486,-2.5 0.275,0 -0.5569,1.125 -1.8486,2.5 -1.2917,1.375 -2.5736,2.5 -2.8486,2.5 -0.275,0 0.5569,-1.125 1.8486,-2.5 z m 15,-14.81291 c 0,-0.1721 1.4625,-1.6346 3.25,-3.25 l 3.25,-2.93709 -2.9371,3.25 c -2.7378,3.02946 -3.5629,3.70965 -3.5629,2.93709 z m 7,-8.06465 c 0,-0.20765 0.7875,-0.99515 1.75,-1.75 1.5861,-1.24387 1.6214,-1.2085 0.3776,0.37756 -1.3064,1.66575 -2.1276,2.19548 -2.1276,1.37244 z M 333.32814,815.5 c 0.004,-3.85 0.18518,-5.30246 0.40166,-3.2277 0.21647,2.07477 0.21284,5.22477 -0.008,7 -0.22091,1.77524 -0.39803,0.0777 -0.39359,-3.7723 z M 334.232,799 c 0,-1.925 0.2058,-2.7125 0.45733,-1.75 0.25152,0.9625 0.25152,2.5375 0,3.5 -0.25153,0.9625 -0.45733,0.175 -0.45733,-1.75 z m 0.92589,-9 c 0,-1.375 0.22698,-1.9375 0.50439,-1.25 0.27741,0.6875 0.27741,1.8125 0,2.5 -0.27741,0.6875 -0.50439,0.125 -0.50439,-1.25 z m 0.92106,-6.58333 c 0.048,-1.16495 0.28494,-1.4019 0.60416,-0.60417 0.28887,0.72187 0.25335,1.58438 -0.0789,1.91667 -0.33229,0.33229 -0.56864,-0.25834 -0.52522,-1.3125 z m 935.99995,-19 c 0.048,-1.16495 0.285,-1.4019 0.6042,-0.60417 0.2889,0.72187 0.2534,1.58438 -0.079,1.91667 -0.3323,0.33229 -0.5687,-0.25834 -0.5253,-1.3125 z m 2,-9 c 0.048,-1.16495 0.285,-1.4019 0.6042,-0.60417 0.2889,0.72187 0.2534,1.58438 -0.079,1.91667 -0.3323,0.33229 -0.5687,-0.25834 -0.5253,-1.3125 z m 1,-5 c 0.048,-1.16495 0.285,-1.4019 0.6042,-0.60417 0.2889,0.72187 0.2534,1.58438 -0.079,1.91667 -0.3323,0.33229 -0.5687,-0.25834 -0.5253,-1.3125 z m 1,-5 c 0.048,-1.16495 0.285,-1.4019 0.6042,-0.60417 0.2889,0.72187 0.2534,1.58438 -0.079,1.91667 -0.3323,0.33229 -0.5687,-0.25834 -0.5253,-1.3125 z m 1,-6 c 0.048,-1.16495 0.285,-1.4019 0.6042,-0.60417 0.2889,0.72187 0.2534,1.58438 -0.079,1.91667 -0.3323,0.33229 -0.5687,-0.25834 -0.5253,-1.3125 z M 1278.232,731 c 0,-1.925 0.2058,-2.7125 0.4573,-1.75 0.2516,0.9625 0.2516,2.5375 0,3.5 -0.2515,0.9625 -0.4573,0.175 -0.4573,-1.75 z m 1.138,-19 c 0,-5.775 0.1652,-8.1375 0.3672,-5.25 0.202,2.8875 0.202,7.6125 0,10.5 -0.202,2.8875 -0.3672,0.525 -0.3672,-5.25 z M 368,716.5 c 1.29175,-1.375 2.57363,-2.5 2.84863,-2.5 0.275,0 -0.55688,1.125 -1.84863,2.5 -1.29175,1.375 -2.57363,2.5 -2.84863,2.5 -0.275,0 0.55688,-1.125 1.84863,-2.5 z m 15,-15 c 1.29175,-1.375 2.57363,-2.5 2.84863,-2.5 0.275,0 -0.55688,1.125 -1.84863,2.5 -1.29175,1.375 -2.57363,2.5 -2.84863,2.5 -0.275,0 0.55688,-1.125 1.84863,-2.5 z m 5,-3.87756 c 0,-0.20765 0.7875,-0.99515 1.75,-1.75 1.58606,-1.24387 1.62143,-1.2085 0.37756,0.37756 C 388.82119,697.91575 388,698.44548 388,697.62244 Z m 16,-11.05207 c 0,-0.275 0.9,-0.98167 2,-1.57037 1.1,-0.5887 2,-0.84537 2,-0.57037 0,0.275 -0.9,0.98167 -2,1.57037 -1.1,0.5887 -2,0.84537 -2,0.57037 z m 53.8125,-22.25348 c 0.72187,-0.28887 1.58438,-0.25335 1.91667,0.0789 0.33229,0.33229 -0.25834,0.56864 -1.3125,0.52522 -1.16495,-0.048 -1.4019,-0.28494 -0.60417,-0.60416 z m 4,-1 c 0.72187,-0.28887 1.58438,-0.25335 1.91667,0.0789 0.33229,0.33229 -0.25834,0.56864 -1.3125,0.52522 -1.16495,-0.048 -1.4019,-0.28494 -0.60417,-0.60416 z m 13,-3 c 0.72187,-0.28887 1.58438,-0.25335 1.91667,0.0789 0.33229,0.33229 -0.25834,0.56864 -1.3125,0.52522 -1.16495,-0.048 -1.4019,-0.28494 -0.60417,-0.60416 z m 14.49185,-1.06365 c 5.94239,-0.17711 15.39239,-0.17644 21,10e-4 5.60761,0.17792 0.74565,0.32282 -10.80435,0.322 -11.55,-8.2e-4 -16.13804,-0.14638 -10.19565,-0.32348 z M 648.25,658.25062 c 15.8125,-0.15471 41.6875,-0.15471 57.5,0 15.8125,0.1547 2.875,0.28128 -28.75,0.28128 -31.625,0 -44.5625,-0.12658 -28.75,-0.28128 z m 145.05435,-0.99738 c 5.94239,-0.17711 15.39239,-0.17644 21,10e-4 5.60761,0.17792 0.74565,0.32282 -10.80435,0.322 -11.55,-8.2e-4 -16.13804,-0.14638 -10.19565,-0.32348 z m 48.45731,-0.9605 c 1.24391,-0.23919 3.04391,-0.23011 4,0.0202 0.95609,0.25029 -0.0617,0.446 -2.26166,0.4349 -2.2,-0.0111 -2.98225,-0.21589 -1.73834,-0.45508 z m 9.05084,-0.97585 c 0.72187,-0.28887 1.58438,-0.25335 1.91667,0.0789 0.33229,0.33229 -0.25834,0.56864 -1.3125,0.52522 -1.16495,-0.048 -1.4019,-0.28494 -0.60417,-0.60416 z m 5,-1 c 0.72187,-0.28887 1.58438,-0.25335 1.91667,0.0789 0.33229,0.33229 -0.25834,0.56864 -1.3125,0.52522 -1.16495,-0.048 -1.4019,-0.28494 -0.60417,-0.60416 z m 9,-2 c 0.72187,-0.28887 1.58438,-0.25335 1.91667,0.0789 0.33229,0.33229 -0.25834,0.56864 -1.3125,0.52522 -1.16495,-0.048 -1.4019,-0.28494 -0.60417,-0.60416 z m 4,-1 c 0.72187,-0.28887 1.58438,-0.25335 1.91667,0.0789 0.33229,0.33229 -0.25834,0.56864 -1.3125,0.52522 -1.16495,-0.048 -1.4019,-0.28494 -0.60417,-0.60416 z M 892,644 c 0.825,-0.53316 1.95,-0.96937 2.5,-0.96937 0.55,0 0.325,0.43621 -0.5,0.96937 -0.825,0.53316 -1.95,0.96937 -2.5,0.96937 -0.55,0 -0.325,-0.43621 0.5,-0.96937 z m 30,-15.37756 c 0,-0.20765 0.7875,-0.99515 1.75,-1.75 1.58606,-1.24387 1.62143,-1.2085 0.37756,0.37756 C 922.82119,628.91575 922,629.44548 922,628.62244 Z m 8,-6 c 0,-0.20765 0.7875,-0.99515 1.75,-1.75 1.58606,-1.24387 1.62143,-1.2085 0.37756,0.37756 C 930.82119,622.91575 930,623.44548 930,622.62244 Z M 941,612.5 c 2.98742,-3.025 5.65668,-5.5 5.93168,-5.5 0.275,0 -1.94426,2.475 -4.93168,5.5 -2.98742,3.025 -5.65668,5.5 -5.93168,5.5 -0.275,0 1.94426,-2.475 4.93168,-5.5 z m 9.5,-10.5 c 0.99549,-1.1 2.03498,-2 2.30998,-2 0.275,0 -0.31449,0.9 -1.30998,2 -0.99549,1.1 -2.03498,2 -2.30998,2 -0.275,0 0.31449,-0.9 1.30998,-2 z m 328.8741,-36.5 c 0,-6.05 0.1669,-8.39607 0.366,-5.21349 0.199,3.18258 0.1972,8.13258 0,11 -0.2013,2.86742 -0.3642,0.26349 -0.3619,-5.78651 z m -1.1219,-21 c 0.011,-2.2 0.2159,-2.98225 0.4551,-1.73834 0.2392,1.24391 0.2301,3.04391 -0.02,4 -0.2503,0.95609 -0.446,-0.0617 -0.4349,-2.26166 z m -1.0943,-9.5 c 0,-1.375 0.227,-1.9375 0.5044,-1.25 0.2774,0.6875 0.2774,1.8125 0,2.5 -0.2774,0.6875 -0.5044,0.125 -0.5044,-1.25 z m -1.079,-6.58333 c 0.048,-1.16495 0.285,-1.4019 0.6042,-0.60417 0.2889,0.72187 0.2534,1.58438 -0.079,1.91667 -0.3323,0.33229 -0.5687,-0.25834 -0.5253,-1.3125 z m -287.99995,-5 c 0.048,-1.16495 0.28494,-1.4019 0.60416,-0.60417 0.28887,0.72187 0.25335,1.58438 -0.0789,1.91667 -0.33229,0.33229 -0.56864,-0.25834 -0.52522,-1.3125 z m 286.99995,-1 c 0.048,-1.16495 0.285,-1.4019 0.6042,-0.60417 0.2889,0.72187 0.2534,1.58438 -0.079,1.91667 -0.3323,0.33229 -0.5687,-0.25834 -0.5253,-1.3125 z m -285.99995,-3 c 0.048,-1.16495 0.28494,-1.4019 0.60416,-0.60417 0.28887,0.72187 0.25335,1.58438 -0.0789,1.91667 -0.33229,0.33229 -0.56864,-0.25834 -0.52522,-1.3125 z m 284.99995,-2 c 0.048,-1.16495 0.285,-1.4019 0.6042,-0.60417 0.2889,0.72187 0.2534,1.58438 -0.079,1.91667 -0.3323,0.33229 -0.5687,-0.25834 -0.5253,-1.3125 z M 990.15789,514 c 0,-1.375 0.22698,-1.9375 0.50439,-1.25 0.27741,0.6875 0.27741,1.8125 0,2.5 -0.27741,0.6875 -0.50439,0.125 -0.50439,-1.25 z m 281.92101,-5.58333 c 0.048,-1.16495 0.285,-1.4019 0.6042,-0.60417 0.2889,0.72187 0.2534,1.58438 -0.079,1.91667 -0.3323,0.33229 -0.5687,-0.25834 -0.5253,-1.3125 z M 991.19495,506.5 c 0.0204,-1.65 0.2445,-2.20394 0.49804,-1.23097 0.25354,0.97297 0.23687,2.32297 -0.0371,3 -0.27393,0.67703 -0.48137,-0.11903 -0.46099,-1.76903 z m 279.88395,-3.08333 c 0.048,-1.16495 0.285,-1.4019 0.6042,-0.60417 0.2889,0.72187 0.2534,1.58438 -0.079,1.91667 -0.3323,0.33229 -0.5687,-0.25834 -0.5253,-1.3125 z m -1,-4 c 0.048,-1.16495 0.285,-1.4019 0.6042,-0.60417 0.2889,0.72187 0.2534,1.58438 -0.079,1.91667 -0.3323,0.33229 -0.5687,-0.25834 -0.5253,-1.3125 z M 992.34941,490 c 0,-4.675 0.17226,-6.5875 0.3828,-4.25 0.21053,2.3375 0.21053,6.1625 0,8.5 -0.21054,2.3375 -0.3828,0.425 -0.3828,-4.25 z m 1.09365,-61.5 c -4.5e-4,-16.5 0.13655,-23.39031 0.30444,-15.31181 0.16789,8.07851 0.16826,21.57851 8.2e-4,30 -0.16745,8.4215 -0.30481,1.81181 -0.30526,-14.68819 z m 224.42934,-44.25 c -1.2438,-1.58606 -1.2085,-1.62143 0.3776,-0.37756 1.6657,1.30637 2.1955,2.12756 1.3724,2.12756 -0.2076,0 -0.9951,-0.7875 -1.75,-1.75 z m -4.4674,-5.5 -1.905,-2.25 2.25,1.90499 c 2.1144,1.79022 2.7052,2.59501 1.905,2.59501 -0.1898,0 -1.2023,-1.0125 -2.25,-2.25 z m -8.9521,-10 -3.9529,-4.25 4.25,3.95295 c 2.3375,2.17412 4.25,4.08662 4.25,4.25 0,0.75658 -0.8709,-4.9e-4 -4.5471,-3.95295 z m -10.5286,-9.5 -2.4243,-2.75 2.75,2.42431 c 1.5125,1.33338 2.75,2.57088 2.75,2.75 0,0.78428 -0.8098,0.14598 -3.0757,-2.42431 z m -5.5193,-4.5 -1.905,-2.25 2.25,1.90499 c 2.1144,1.79022 2.7052,2.59501 1.905,2.59501 -0.1898,0 -1.2023,-1.0125 -2.25,-2.25 z m -194.25517,-23 c -0.0824,-4.2625 0.18767,-7.75028 0.60017,-7.75062 0.4125,-3.4e-4 0.62143,2.36216 0.46428,5.25 -0.5145,9.4548 -0.91195,10.3885 -1.06445,2.50062 z"
         id="path8" />
      <path
         style="fill:#b2c7cc"
         d="m 203.82139,954.25048 c 16.12677,-0.1545 42.22677,-0.15439 58,2.5e-4 15.77324,0.15465 2.57861,0.28106 -29.32139,0.28092 -31.9,-1.4e-4 -44.80537,-0.12666 -28.67861,-0.28117 z M 85.872445,915.25 C 84.628574,913.66394 84.663944,913.62857 86.25,914.87244 87.915748,916.17881 88.445479,917 87.622445,917 c -0.207656,0 -0.995156,-0.7875 -1.75,-1.75 z M 71.404988,900.75 69.5,898.5 l 2.25,1.90499 C 73.864445,902.19521 74.455241,903 73.654988,903 c -0.189757,0 -1.202257,-1.0125 -2.25,-2.25 z M 291.43125,853.5 c 6.6e-4,-13.2 0.14295,-18.46169 0.31621,-11.69265 0.17326,6.76904 0.17273,17.56904 -10e-4,24 -0.1741,6.43096 -0.31586,0.89265 -0.31521,-12.30735 z M 292.232,785 c 0,-1.925 0.2058,-2.7125 0.45733,-1.75 0.25152,0.9625 0.25152,2.5375 0,3.5 -0.25153,0.9625 -0.45733,0.175 -0.45733,-1.75 z m 0.84695,-14.58333 c 0.048,-1.16495 0.28494,-1.4019 0.60416,-0.60417 0.28887,0.72187 0.25335,1.58438 -0.0789,1.91667 -0.33229,0.33229 -0.56864,-0.25834 -0.52522,-1.3125 z m -283.000003,-9 c 0.04798,-1.16495 0.284941,-1.4019 0.604167,-0.60417 0.288871,0.72187 0.253344,1.58438 -0.07895,1.91667 -0.332292,0.33229 -0.568641,-0.25834 -0.52522,-1.3125 z m -5.9999996,-38 c 0.047984,-1.16495 0.2849403,-1.4019 0.6041666,-0.60417 0.2888706,0.72187 0.2533443,1.58438 -0.078947,1.91667 -0.3322917,0.33229 -0.5686404,-0.25834 -0.5252196,-1.3125 z m -1,-9 c 0.047984,-1.16495 0.2849403,-1.4019 0.6041666,-0.60417 0.2888706,0.72187 0.2533443,1.58438 -0.078947,1.91667 -0.3322917,0.33229 -0.5686404,-0.25834 -0.5252196,-1.3125 z M 2.1949487,704.5 c 0.02038,-1.65 0.2444986,-2.20394 0.498042,-1.23097 0.2535434,0.97297 0.2368691,2.32297 -0.037054,3 C 2.3820136,706.94606 2.174569,706.15 2.1949487,704.5 Z m -1,-13 c 0.02038,-1.65 0.2444986,-2.20394 0.498042,-1.23097 0.2535434,0.97297 0.2368691,2.32297 -0.037054,3 C 1.3820136,693.94606 1.174569,693.15 1.1949487,691.5 Z m -0.90893455,-17 c 0.007508,-2.75 0.2017127,-3.75631 0.43156708,-2.23625 0.22985437,1.52006 0.22371186,3.77006 -0.01365,5 C 0.46656929,678.49369 0.27850662,677.25 0.28601415,674.5 Z M 342,666.5 c 1.86578,-1.925 3.61733,-3.5 3.89233,-3.5 0.275,0 -1.02655,1.575 -2.89233,3.5 -1.86578,1.925 -3.61733,3.5 -3.89233,3.5 -0.275,0 1.02655,-1.575 2.89233,-3.5 z m 92.75,-44.16228 c 0.6875,-0.27741 1.8125,-0.27741 2.5,0 0.6875,0.27741 0.125,0.50439 -1.25,0.50439 -1.375,0 -1.9375,-0.22698 -1.25,-0.50439 z m 16.51375,-1.0553 c 1.52006,-0.22986 3.77006,-0.22371 5,0.0136 1.22994,0.23736 -0.0138,0.42542 -2.76375,0.41792 -2.75,-0.008 -3.75631,-0.20172 -2.23625,-0.43157 z M 517.25,620.2517 c 9.2125,-0.16503 24.2875,-0.16503 33.5,0 9.2125,0.16503 1.675,0.30005 -16.75,0.30005 -18.425,0 -25.9625,-0.13502 -16.75,-0.30005 z m 207.5,-0.99569 c 4.5375,-0.18529 11.9625,-0.18529 16.5,0 4.5375,0.1853 0.825,0.3369 -8.25,0.3369 -9.075,0 -12.7875,-0.1516 -8.25,-0.3369 z m 64.51375,-0.97359 c 1.52006,-0.22986 3.77006,-0.22371 5,0.0136 1.22994,0.23736 -0.0137,0.42542 -2.76375,0.41792 -2.75,-0.008 -3.75631,-0.20172 -2.23625,-0.43157 z m 16.54875,-0.96553 c 0.72187,-0.28887 1.58438,-0.25335 1.91667,0.0789 0.33229,0.33229 -0.25834,0.56864 -1.3125,0.52522 -1.16495,-0.048 -1.4019,-0.28494 -0.60417,-0.60416 z M 0.29966418,608 c 0,-3.025 0.18746562,-4.2625 0.41659026,-2.75 0.22912464,1.5125 0.22912464,3.9875 0,5.5 C 0.4871298,612.2625 0.29966418,611.025 0.29966418,608 Z M 1.1949487,590.5 c 0.02038,-1.65 0.2444986,-2.20394 0.498042,-1.23097 0.2535434,0.97297 0.2368691,2.32297 -0.037054,3 C 1.3820136,592.94606 1.174569,592.15 1.1949487,590.5 Z M 2.1578947,577 c 0,-1.375 0.2269737,-1.9375 0.504386,-1.25 0.2774123,0.6875 0.2774123,1.8125 0,2.5 -0.2774123,0.6875 -0.504386,0.125 -0.504386,-1.25 z m 0.9210527,-10.58333 c 0.047984,-1.16495 0.2849403,-1.4019 0.6041666,-0.60417 0.2888706,0.72187 0.2533443,1.58438 -0.078947,1.91667 -0.3322917,0.33229 -0.5686404,-0.25834 -0.5252196,-1.3125 z m 1,-9 c 0.047984,-1.16495 0.2849403,-1.4019 0.6041666,-0.60417 0.2888706,0.72187 0.2533443,1.58438 -0.078947,1.91667 -0.3322917,0.33229 -0.5686404,-0.25834 -0.5252196,-1.3125 z M 950.15789,483 c 0,-1.375 0.22698,-1.9375 0.50439,-1.25 0.27741,0.6875 0.27741,1.8125 0,2.5 -0.27741,0.6875 -0.50439,0.125 -0.50439,-1.25 z m 1.18492,-22.5 c 0.004,-4.4 0.17944,-6.07561 0.39069,-3.72357 0.21124,2.35204 0.20827,5.95204 -0.007,8 -0.21487,2.04796 -0.38771,0.12357 -0.38408,-4.27643 z M 72.5,388 c 0.995486,-1.1 2.034975,-2 2.309975,-2 0.275,0 -0.314489,0.9 -1.309975,2 -0.995486,1.1 -2.034975,2 -2.309975,2 -0.275,0 0.314489,-0.9 1.309975,-2 z M 83,377.5 c 1.291745,-1.375 2.573628,-2.5 2.848628,-2.5 0.275,0 -0.556883,1.125 -1.848628,2.5 -1.291745,1.375 -2.573628,2.5 -2.848628,2.5 -0.275,0 0.556883,-1.125 1.848628,-2.5 z m 91.8125,-44.18311 c 0.72187,-0.28887 1.58437,-0.25335 1.91667,0.0789 0.33229,0.33229 -0.25834,0.56864 -1.3125,0.52522 -1.16495,-0.048 -1.4019,-0.28494 -0.60417,-0.60416 z m 21.9375,-1.0491 c 2.3375,-0.21053 6.1625,-0.21053 8.5,0 2.3375,0.21054 0.425,0.3828 -4.25,0.3828 -4.675,0 -6.5875,-0.17226 -4.25,-0.3828 z M 624,331.35312 c 8.28043,-0.73501 18.77897,-0.79401 18.34887,-0.10312 -0.2568,0.4125 -5.27785,0.67435 -11.15789,0.5819 C 625.31094,331.7394 622.075,331.52399 624,331.35312 Z M 643.40709,308 c 0,-9.075 0.1516,-12.7875 0.3369,-8.25 0.18529,4.5375 0.18529,11.9625 0,16.5 -0.1853,4.5375 -0.3369,0.825 -0.3369,-8.25 z M 466.31828,287.25078 c 12.55005,-0.15877 32.80005,-0.15859 45,4e-4 12.19995,0.159 1.93172,0.2889 -22.81828,0.28869 -24.75,-2.2e-4 -34.73177,-0.13031 -22.18172,-0.28909 z M 332.46274,186 c 0,-26.675 0.12889,-37.5875 0.28641,-24.25 0.15752,13.3375 0.15752,35.1625 0,48.5 -0.15752,13.3375 -0.28641,2.425 -0.28641,-24.25 z M 461.75,209.29427 c 1.2375,-0.23836 3.2625,-0.23836 4.5,0 1.2375,0.23835 0.225,0.43337 -2.25,0.43337 -2.475,0 -3.4875,-0.19502 -2.25,-0.43337 z M 410.30987,154.5 c 0.006,-3.3 0.1923,-4.52944 0.41486,-2.73209 0.22256,1.79735 0.21797,4.49735 -0.0102,6 -0.22818,1.50265 -0.41027,0.0321 -0.40466,-3.26791 z M 333.15789,123 c 0,-1.375 0.22698,-1.9375 0.50439,-1.25 0.27741,0.6875 0.27741,1.8125 0,2.5 -0.27741,0.6875 -0.50439,0.125 -0.50439,-1.25 z M 464.75,98.337719 c 0.6875,-0.277412 1.8125,-0.277412 2.5,0 0.6875,0.277413 0.125,0.504386 -1.25,0.504386 -1.375,0 -1.9375,-0.226973 -1.25,-0.504386 z M 920.87244,83.25 C 919.62857,81.663944 919.66394,81.628574 921.25,82.872445 922.91575,84.178814 923.44548,85 922.62244,85 c -0.20765,0 -0.99515,-0.7875 -1.75,-1.75 z M 361.95821,70.75 C 366.10217,66.33481 367,65.540906 367,66.291792 c 0,0.160486 -2.1375,2.297986 -4.75,4.75 L 357.5,75.5 Z m 544.44678,-2 -1.90499,-2.25 2.25,1.904988 c 1.2375,1.047743 2.25,2.060243 2.25,2.25 0,0.800253 -0.80479,0.209457 -2.59501,-1.904988 z M 744.8125,6.316886 c 0.72187,-0.2888706 1.58438,-0.2533443 1.91667,0.078947 0.33229,0.3322917 -0.25834,0.5686404 -1.3125,0.5252193 -1.16495,-0.047984 -1.4019,-0.2849403 -0.60417,-0.6041663 z m -8,-1 c 0.72187,-0.2888706 1.58438,-0.2533443 1.91667,0.078947 0.33229,0.3322917 -0.25834,0.5686404 -1.3125,0.5252193 -1.16495,-0.047984 -1.4019,-0.2849403 -0.60417,-0.6041663 z M 540.75,4.3377193 c 0.6875,-0.2774123 1.8125,-0.2774123 2.5,0 0.6875,0.2774123 0.125,0.504386 -1.25,0.504386 -1.375,0 -1.9375,-0.2269737 -1.25,-0.504386 z m 187,0 c 0.6875,-0.2774123 1.8125,-0.2774123 2.5,0 0.6875,0.2774123 0.125,0.504386 -1.25,0.504386 -1.375,0 -1.9375,-0.2269737 -1.25,-0.504386 z M 550.8125,3.316886 c 0.72187,-0.2888706 1.58438,-0.2533443 1.91667,0.078947 0.33229,0.3322917 -0.25834,0.5686404 -1.3125,0.5252193 -1.16495,-0.047984 -1.4019,-0.2849403 -0.60417,-0.6041663 z m 168,0 c 0.72187,-0.2888706 1.58438,-0.2533443 1.91667,0.078947 0.33229,0.3322917 -0.25834,0.5686404 -1.3125,0.5252193 -1.16495,-0.047984 -1.4019,-0.2849403 -0.60417,-0.6041663 z M 560.75,2.3377193 c 0.6875,-0.2774123 1.8125,-0.2774123 2.5,0 0.6875,0.2774123 0.125,0.504386 -1.25,0.504386 -1.375,0 -1.9375,-0.2269737 -1.25,-0.504386 z m 146.51903,-0.03071 c 0.97297,-0.2535434 2.32297,-0.2368691 3,0.037054 0.67703,0.2739231 -0.11903,0.4813677 -1.76903,0.460988 -1.65,-0.02038 -2.20394,-0.2444986 -1.23097,-0.498042 z M 574.25,1.3106745 c 0.9625,-0.2515276 2.5375,-0.2515276 3.5,0 0.9625,0.2515275 0.175,0.4573228 -1.75,0.4573228 -1.925,0 -2.7125,-0.2057953 -1.75,-0.4573228 z m 119.5,0.027045 c 0.6875,-0.2774123 1.8125,-0.2774123 2.5,0 0.6875,0.2774123 0.125,0.504386 -1.25,0.504386 -1.375,0 -1.9375,-0.2269737 -1.25,-0.504386 z m -97,-1.06111486 c 1.7875,-0.22182677 4.7125,-0.22182677 6.5,0 1.7875,0.22182678 0.325,0.40332141 -3.25,0.40332141 -3.575,0 -5.0375,-0.18149463 -3.25,-0.40332141 z m 77.5,0.007141 c 1.5125,-0.22912464 3.9875,-0.22912464 5.5,0 1.5125,0.22912464 0.275,0.41659026 -2.75,0.41659026 -3.025,0 -4.2625,-0.18746562 -2.75,-0.41659026 z"
         id="path7" />
      <path
         style="fill:#fcd041"
         d="m 617,1277.3291 c -133.00868,-4.8501 -220.77521,-36.6087 -262.67333,-95.049 -6.58209,-9.1809 -13.94463,-24.2977 -17.8671,-36.685 L 333,1134.6697 333.0145,981.58485 c 0.0144,-152.10347 0.48809,-178.7362 3.48442,-195.91842 1.85939,-10.66253 7.22597,-27.15076 12.50042,-38.40614 9.42334,-20.10889 26.55852,-40.59348 44.90775,-53.6859 C 411.62486,680.93254 437.16782,670.08496 466,662.95798 l 12.5,-3.08985 163,-0.86642 c 190.18066,-1.0109 199.26885,-1.20502 216.20504,-4.61816 47.3571,-9.54382 79.8205,-30.29578 103.84072,-66.37931 15.57527,-23.39741 27.64691,-56.58123 30.37726,-83.50424 0.61355,-6.05 1.3354,-37.325 1.60411,-69.5 0.6327,-75.75862 1.22816,-108.79504 1.98299,-110.01637 C 995.89818,324.35573 1018.7736,324 1058.7634,324 h 62.6455 l 10.9806,3.11034 c 23.0308,6.52358 40.6307,15.52481 58.5702,29.95478 42.5745,34.24566 72.7503,95.27759 85.5163,172.96074 2.3864,14.52155 3.4828,49.04447 3.4769,109.47414 -0.01,73.89172 -0.842,91.45825 -5.4107,113.86175 -17.2105,84.39533 -53.9751,142.23264 -109.5422,172.32969 -9.4732,5.13102 -29.0881,12.90034 -38.9453,15.42596 -4.3813,1.12257 -14.2757,2.35449 -23.5547,2.93271 -9.2471,0.57624 -109.69714,1.25752 -238,1.6142 -160.84069,0.44712 -222.20552,0.92274 -222.74602,1.72642 -0.41031,0.6101 -0.63531,10.33427 -0.5,21.60927 L 641.5,989.5 766,990.10341 c 68.475,0.33188 138.34998,0.66938 155.27774,0.75 L 952.05547,991 l -0.27773,82.75 -0.27774,82.75 -2.86749,8.5 c -6.73757,19.9719 -17.52474,34.5952 -38.33043,51.9613 -32.00064,26.7105 -86.20723,45.7252 -155.30208,54.4772 -40.41115,5.1187 -95.12246,7.4541 -138,5.8906 z m 219.27998,-100.7917 c 26.52896,-9.2259 42.99498,-37.1667 37.22799,-63.1713 -4.78142,-21.5605 -19.9524,-37.8125 -41.00797,-43.93 -17.82074,-5.1776 -39.57764,0.9178 -53.35905,14.9491 -21.26805,21.6536 -21.82734,55.2557 -1.28077,76.9488 8.31656,8.7807 18.55294,14.6668 30.63982,17.6183 6.24302,1.5246 19.85449,0.3413 27.77998,-2.4149 z"
         id="path6" />
      <path
         style="fill:#92afb7"
         d="m 290.39739,940 c 0,-7.975 0.1553,-11.2375 0.34512,-7.25 0.18981,3.9875 0.18981,10.5125 0,14.5 -0.18982,3.9875 -0.34512,0.725 -0.34512,-7.25 z M 82.872445,912.25 C 81.628574,910.66394 81.663944,910.62857 83.25,911.87244 84.915748,913.17881 85.445479,914 84.622445,914 c -0.207656,0 -0.995156,-0.7875 -1.75,-1.75 z M 291.32814,823.5 c 0.004,-3.85 0.18518,-5.30246 0.40166,-3.2277 0.21647,2.07477 0.21284,5.22477 -0.008,7 -0.22091,1.77524 -0.39803,0.0777 -0.39359,-3.7723 z m 0.82975,-43.5 c 0,-1.375 0.22698,-1.9375 0.50439,-1.25 0.27741,0.6875 0.27741,1.8125 0,2.5 -0.27741,0.6875 -0.50439,0.125 -0.50439,-1.25 z M 1.0789474,687.41667 c 0.047984,-1.16495 0.2849403,-1.4019 0.6041666,-0.60417 0.2888706,0.72187 0.2533443,1.58438 -0.078947,1.91667 -0.3322917,0.33229 -0.5686404,-0.25834 -0.5252196,-1.3125 z M 336,672.62244 c 0,-0.20765 0.7875,-0.99515 1.75,-1.75 1.58606,-1.24387 1.62143,-1.2085 0.37756,0.37756 C 336.82119,672.91575 336,673.44548 336,672.62244 Z M 0.19494872,667.5 c 0.0203797,-1.65 0.24449859,-2.20394 0.498042,-1.23097 0.25354341,0.97297 0.23686912,2.32297 -0.037054,3 C 0.38201364,669.94606 0.17456903,669.15 0.19494872,667.5 Z M 346,662.62244 c 0,-0.20765 0.7875,-0.99515 1.75,-1.75 1.58606,-1.24387 1.62143,-1.2085 0.37756,0.37756 C 346.82119,662.91575 346,663.44548 346,662.62244 Z m 99.75,-41.28472 c 0.6875,-0.27741 1.8125,-0.27741 2.5,0 0.6875,0.27741 0.125,0.50439 -1.25,0.50439 -1.375,0 -1.9375,-0.22698 -1.25,-0.50439 z m 49,-1.04345 c 1.2375,-0.23836 3.2625,-0.23836 4.5,0 1.2375,0.23835 0.225,0.43337 -2.25,0.43337 -2.475,0 -3.4875,-0.19502 -2.25,-0.43337 z m 188,-1.03934 c 5.0875,-0.18149 13.4125,-0.18149 18.5,0 5.0875,0.18149 0.925,0.32999 -9.25,0.32999 -10.175,0 -14.3375,-0.1485 -9.25,-0.32999 z m 29.5,0.0557 c 0.9625,-0.25152 2.5375,-0.25152 3.5,0 0.9625,0.25153 0.175,0.45733 -1.75,0.45733 -1.925,0 -2.7125,-0.2058 -1.75,-0.45733 z m 71.5,-0.97295 c 0.6875,-0.27741 1.8125,-0.27741 2.5,0 0.6875,0.27741 0.125,0.50439 -1.25,0.50439 -1.375,0 -1.9375,-0.22698 -1.25,-0.50439 z M 0.19494872,615.5 c 0.0203797,-1.65 0.24449859,-2.20394 0.498042,-1.23097 0.25354341,0.97297 0.23686912,2.32297 -0.037054,3 C 0.38201364,617.94606 0.17456903,617.15 0.19494872,615.5 Z M 1.0789474,594.41667 c 0.047984,-1.16495 0.2849403,-1.4019 0.6041666,-0.60417 0.2888706,0.72187 0.2533443,1.58438 -0.078947,1.91667 -0.3322917,0.33229 -0.5686404,-0.25834 -0.5252196,-1.3125 z M 901,576.62244 c 0,-0.20765 0.7875,-0.99515 1.75,-1.75 1.58606,-1.24387 1.62143,-1.2085 0.37756,0.37756 C 901.82119,576.91575 901,577.44548 901,576.62244 Z M 951.40709,437 c 0,-9.075 0.1516,-12.7875 0.3369,-8.25 0.18529,4.5375 0.18529,11.9625 0,16.5 -0.1853,4.5375 -0.3369,0.825 -0.3369,-8.25 z M 75,385.68709 c 0,-0.1721 1.4625,-1.6346 3.25,-3.25 L 81.5,379.5 78.562909,382.75 C 75.825128,385.77946 75,386.45965 75,385.68709 Z m 146.30822,-53.43473 c 7.04451,-0.17214 18.29451,-0.17164 25,10e-4 6.70548,0.17275 0.94178,0.31359 -12.80822,0.31298 -13.75,-6.1e-4 -19.2363,-0.14195 -12.19178,-0.31409 z m 421.77073,-6.83569 c 0.048,-1.16495 0.28494,-1.4019 0.60416,-0.60417 0.28887,0.72187 0.25335,1.58438 -0.0789,1.91667 -0.33229,0.33229 -0.56864,-0.25834 -0.52522,-1.3125 z m 0,-35 c 0.048,-1.16495 0.28494,-1.4019 0.60416,-0.60417 0.28887,0.72187 0.25335,1.58438 -0.0789,1.91667 -0.33229,0.33229 -0.56864,-0.25834 -0.52522,-1.3125 z m -103.8727,-3.15722 c 3.68844,-0.19186 9.98844,-0.19314 14,-0.003 4.01156,0.1903 0.99375,0.34727 -6.70625,0.34883 -7.7,0.002 -10.98219,-0.15414 -7.29375,-0.34599 z m -201.9425,-0.97703 c 1.52006,-0.22986 3.77006,-0.22371 5,0.0136 1.22994,0.23736 -0.0138,0.42542 -2.76375,0.41792 -2.75,-0.008 -3.75631,-0.20172 -2.23625,-0.43157 z M 423.87244,191.25 c -1.24387,-1.58606 -1.2085,-1.62143 0.37756,-0.37756 1.66575,1.30637 2.19548,2.12756 1.37244,2.12756 -0.20765,0 -0.99515,-0.7875 -1.75,-1.75 z m 490.0934,-115 -5.46584,-5.75 5.75,5.46584 c 3.1625,3.006212 5.75,5.593712 5.75,5.75 0,0.742253 -0.95622,-0.123908 -6.03416,-5.46584 z M 580.25,1.3106745 c 0.9625,-0.2515276 2.5375,-0.2515276 3.5,0 0.9625,0.2515275 0.175,0.4573228 -1.75,0.4573228 -1.925,0 -2.7125,-0.2057953 -1.75,-0.4573228 z m 109.01903,-0.00367 c 0.97297,-0.2535434 2.32297,-0.2368691 3,0.037054 0.67703,0.2739231 -0.11903,0.4813677 -1.76903,0.460988 -1.65,-0.02038 -2.20394,-0.2444986 -1.23097,-0.498042 z M 607.75,0.29426699 c 1.2375,-0.23835289 3.2625,-0.23835289 4.5,0 1.2375,0.2383529 0.225,0.4333689 -2.25,0.4333689 -2.475,0 -3.4875,-0.195016 -2.25,-0.4333689 z m 59.5,0.0164075 c 0.9625,-0.25152755 2.5375,-0.25152755 3.5,0 0.9625,0.25152754 0.175,0.45732281 -1.75,0.45732281 -1.925,0 -2.7125,-0.20579527 -1.75,-0.45732281 z"
         id="path5" />
      <path
         style="fill:#6291b1"
         d="m 167.8125,953.31689 c 0.72187,-0.28887 1.58437,-0.25335 1.91667,0.0789 0.33229,0.33229 -0.25834,0.56864 -1.3125,0.52522 -1.16495,-0.048 -1.4019,-0.28494 -0.60417,-0.60416 z M 290.37407,915.5 c 0.002,-6.05 0.16696,-8.39607 0.36601,-5.21349 0.19905,3.18258 0.1972,8.13258 -0.004,11 -0.20131,2.86742 -0.36417,0.26349 -0.36191,-5.78651 z M 78.437091,907.75 75.5,904.5 l 3.25,2.93709 c 1.7875,1.6154 3.25,3.0779 3.25,3.25 0,0.77256 -0.825128,0.0924 -3.562909,-2.93709 z m -9.564646,-10.5 C 67.628574,895.66394 67.663944,895.62857 69.25,896.87244 70.915748,898.17881 71.445479,899 70.622445,899 c -0.207656,0 -0.995156,-0.7875 -1.75,-1.75 z M 291.32814,810.5 c 0.004,-3.85 0.18518,-5.30246 0.40166,-3.2277 0.21647,2.07477 0.21284,5.22477 -0.008,7 -0.22091,1.77524 -0.39803,0.0777 -0.39359,-3.7723 z M 1.0789474,684.41667 c 0.047984,-1.16495 0.2849403,-1.4019 0.6041666,-0.60417 0.2888706,0.72187 0.2533443,1.58438 -0.078947,1.91667 -0.3322917,0.33229 -0.5686404,-0.25834 -0.5252196,-1.3125 z M 0.2320027,662 c 0,-1.925 0.20579527,-2.7125 0.45732281,-1.75 0.25152755,0.9625 0.25152755,2.5375 0,3.5 C 0.43779797,664.7125 0.2320027,663.925 0.2320027,662 Z m 0.0201807,-40.5 c 0.0110994,-2.2 0.21588425,-2.98225 0.45507747,-1.73834 0.23919321,1.24391 0.2301119,3.04391 -0.0201807,4 C 0.43678756,624.71775 0.24108402,623.7 0.2521834,621.5 Z M 442.8125,621.31689 c 0.72187,-0.28887 1.58438,-0.25335 1.91667,0.0789 0.33229,0.33229 -0.25834,0.56864 -1.3125,0.52522 -1.16495,-0.048 -1.4019,-0.28494 -0.60417,-0.60416 z m 37.9375,-1.0491 c 2.3375,-0.21053 6.1625,-0.21053 8.5,0 2.3375,0.21054 0.425,0.3828 -4.25,0.3828 -4.675,0 -6.5875,-0.17226 -4.25,-0.3828 z m 169,-1.01178 c 4.5375,-0.18529 11.9625,-0.18529 16.5,0 4.5375,0.1853 0.825,0.3369 -8.25,0.3369 -9.075,0 -12.7875,-0.1516 -8.25,-0.3369 z m 128.01166,-0.96327 c 1.24391,-0.23919 3.04391,-0.23011 4,0.0202 0.95609,0.25029 -0.0617,0.446 -2.26166,0.4349 -2.2,-0.0111 -2.98225,-0.21589 -1.73834,-0.45508 z M 1.1578947,598 c 0,-1.375 0.2269737,-1.9375 0.504386,-1.25 0.2774123,0.6875 0.2774123,1.8125 0,2.5 -0.2774123,0.6875 -0.504386,0.125 -0.504386,-1.25 z M 908.5,569 c 2.70865,-2.75 5.14982,-5 5.42482,-5 0.275,0 -1.71617,2.25 -4.42482,5 -2.70865,2.75 -5.14982,5 -5.42482,5 -0.275,0 1.71617,-2.25 4.42482,-5 z m 41.57895,-90.58333 c 0.048,-1.16495 0.28494,-1.4019 0.60416,-0.60417 0.28887,0.72187 0.25335,1.58438 -0.0789,1.91667 -0.33229,0.33229 -0.56864,-0.25834 -0.52522,-1.3125 z M 951.48613,282.5 c 3e-5,-76.45 0.11873,-107.57735 0.26378,-69.17188 0.14505,38.40546 0.14503,100.95546 -5e-5,139 -0.14507,38.04453 -0.26375,6.62188 -0.26373,-69.82812 z M 68,393.62244 c 0,-0.20765 0.7875,-0.99515 1.75,-1.75 1.586056,-1.24387 1.621426,-1.2085 0.377555,0.37756 C 68.821186,393.91575 68,394.44548 68,393.62244 Z m 111.8125,-60.30555 c 0.72187,-0.28887 1.58437,-0.25335 1.91667,0.0789 0.33229,0.33229 -0.25834,0.56864 -1.3125,0.52522 -1.16495,-0.048 -1.4019,-0.28494 -0.60417,-0.60416 z m 157.01623,-1.06682 c 43.6308,-0.14418 114.7308,-0.14417 158,4e-5 43.2692,0.1442 7.57127,0.26216 -79.32873,0.26214 -86.9,-2e-5 -122.30207,-0.118 -78.67127,-0.26218 z M 569.25,287.2545 c 5.3625,-0.17981 14.1375,-0.17981 19.5,0 5.3625,0.17981 0.975,0.32692 -9.75,0.32692 -10.725,0 -15.1125,-0.14711 -9.75,-0.32692 z m -215.5,-1.00038 c 5.6375,-0.17825 14.8625,-0.17825 20.5,0 5.6375,0.17825 1.025,0.32409 -10.25,0.32409 -11.275,0 -15.8875,-0.14584 -10.25,-0.32409 z m 117,-76.9164 c 0.6875,-0.27741 1.8125,-0.27741 2.5,0 0.6875,0.27741 0.125,0.50439 -1.25,0.50439 -1.375,0 -1.9375,-0.22698 -1.25,-0.50439 z M 501,197.62244 c 0,-0.20765 0.7875,-0.99515 1.75,-1.75 1.58606,-1.24387 1.62143,-1.2085 0.37756,0.37756 C 501.82119,197.91575 501,198.44548 501,197.62244 Z m 5,-5 c 0,-0.20765 0.7875,-0.99515 1.75,-1.75 1.58606,-1.24387 1.62143,-1.2085 0.37756,0.37756 C 506.82119,192.91575 506,193.44548 506,192.62244 Z M 333.07895,127.41667 c 0.048,-1.16495 0.28494,-1.4019 0.60416,-0.60417 0.28887,0.72187 0.25335,1.58437 -0.0789,1.91667 -0.33229,0.33229 -0.56864,-0.25834 -0.52522,-1.3125 z M 503.87244,113.25 c -1.24387,-1.58606 -1.2085,-1.62143 0.37756,-0.37756 1.66575,1.30637 2.19548,2.12756 1.37244,2.12756 -0.20765,0 -0.99515,-0.7875 -1.75,-1.75 z M 355,78.622445 c 0,-0.207656 0.7875,-0.995156 1.75,-1.75 1.58606,-1.243871 1.62143,-1.208501 0.37756,0.377555 C 355.82119,78.915748 355,79.445479 355,78.622445 Z m 12,-12 c 0,-0.207656 0.7875,-0.995156 1.75,-1.75 1.58606,-1.243871 1.62143,-1.208501 0.37756,0.377555 C 367.82119,66.915748 367,67.445479 367,66.622445 Z M 702.8125,2.316886 c 0.72187,-0.2888706 1.58438,-0.2533443 1.91667,0.078947 0.33229,0.3322917 -0.25834,0.5686404 -1.3125,0.5252193 -1.16495,-0.047984 -1.4019,-0.2849403 -0.60417,-0.6041663 z m -117,-1 c 0.72187,-0.2888706 1.58438,-0.2533443 1.91667,0.078947 0.33229,0.3322917 -0.25834,0.5686404 -1.3125,0.5252193 -1.16495,-0.047984 -1.4019,-0.2849403 -0.60417,-0.6041663 z m 100,0 c 0.72187,-0.2888706 1.58438,-0.2533443 1.91667,0.078947 0.33229,0.3322917 -0.25834,0.5686404 -1.3125,0.5252193 -1.16495,-0.047984 -1.4019,-0.2849403 -0.60417,-0.6041663 z M 615.25,0.31067449 c 0.9625,-0.25152755 2.5375,-0.25152755 3.5,0 0.9625,0.25152754 0.175,0.45732281 -1.75,0.45732281 -1.925,0 -2.7125,-0.20579527 -1.75,-0.45732281 z m 45.51166,-0.0179354 c 1.24391,-0.23919321 3.04391,-0.2301119 4,0.0201807 0.95609,0.2502926 -0.0617,0.44599614 -2.26166,0.43489676 -2.2,-0.0110994 -2.98225,-0.21588425 -1.73834,-0.45507746 z"
         id="path4" />
      <path
         style="fill:#457ba3"
         d="m 170.8125,953.31689 c 0.72187,-0.28887 1.58437,-0.25335 1.91667,0.0789 0.33229,0.33229 -0.25834,0.56864 -1.3125,0.52522 -1.16495,-0.048 -1.4019,-0.28494 -0.60417,-0.60416 z m 33.8663,-0.0661 c 15.49834,-0.15492 41.14834,-0.15503 57,-2.6e-4 15.85166,0.15477 3.1712,0.28152 -28.1788,0.28166 -31.35,1.4e-4 -44.31954,-0.12649 -28.8212,-0.2814 z m -47.8663,-1.93387 c 0.72187,-0.28887 1.58437,-0.25335 1.91667,0.0789 0.33229,0.33229 -0.25834,0.56864 -1.3125,0.52522 -1.16495,-0.048 -1.4019,-0.28494 -0.60417,-0.60416 z M 86.404988,914.75 84.5,912.5 l 2.25,1.90499 C 88.864445,916.19521 89.455241,917 88.654988,917 c -0.189757,0 -1.202257,-1.0125 -2.25,-2.25 z m -14,-14 L 70.5,898.5 l 2.25,1.90499 C 74.864445,902.19521 75.455241,903 74.654988,903 c -0.189757,0 -1.202257,-1.0125 -2.25,-2.25 z M 290.232,897 c 0,-1.925 0.2058,-2.7125 0.45733,-1.75 0.25152,0.9625 0.25152,2.5375 0,3.5 -0.25153,0.9625 -0.45733,0.175 -0.45733,-1.75 z m 0.19276,-51 c 0,-11.825 0.14466,-16.6625 0.32145,-10.75 0.1768,5.9125 0.1768,15.5875 0,21.5 -0.17679,5.9125 -0.32145,1.075 -0.32145,-10.75 z m 0.91805,-49.5 c 0.004,-4.4 0.17944,-6.07561 0.39069,-3.72357 0.21124,2.35204 0.20827,5.95204 -0.007,8 -0.21487,2.04796 -0.38771,0.12357 -0.38408,-4.27643 z m 0.81508,-26.5 c 0,-1.375 0.22698,-1.9375 0.50439,-1.25 0.27741,0.6875 0.27741,1.8125 0,2.5 -0.27741,0.6875 -0.50439,0.125 -0.50439,-1.25 z M 11.078947,762.41667 c 0.04798,-1.16495 0.284941,-1.4019 0.604167,-0.60417 0.288871,0.72187 0.253344,1.58438 -0.07895,1.91667 -0.332292,0.33229 -0.568641,-0.25834 -0.52522,-1.3125 z m 283.000003,-4 c 0.048,-1.16495 0.28494,-1.4019 0.60416,-0.60417 0.28887,0.72187 0.25335,1.58438 -0.0789,1.91667 -0.33229,0.33229 -0.56864,-0.25834 -0.52522,-1.3125 z m -285.0000026,-7 c 0.047984,-1.16495 0.2849403,-1.4019 0.6041666,-0.60417 0.2888706,0.72187 0.2533443,1.58438 -0.078947,1.91667 -0.3322917,0.33229 -0.5686404,-0.25834 -0.5252196,-1.3125 z m -2,-12 c 0.047984,-1.16495 0.2849403,-1.4019 0.6041666,-0.60417 0.2888706,0.72187 0.2533443,1.58438 -0.078947,1.91667 -0.3322917,0.33229 -0.5686404,-0.25834 -0.5252196,-1.3125 z M 5.1578947,725 c 0,-1.375 0.2269737,-1.9375 0.504386,-1.25 0.2774123,0.6875 0.2774123,1.8125 0,2.5 -0.2774123,0.6875 -0.504386,0.125 -0.504386,-1.25 z m -1.962946,-18.5 c 0.02038,-1.65 0.2444986,-2.20394 0.498042,-1.23097 0.2535434,0.97297 0.2368691,2.32297 -0.037054,3 C 3.3820136,708.94606 3.174569,708.15 3.1949487,706.5 Z m -1.9089346,-28 c 0.00751,-2.75 0.2017128,-3.75631 0.4315671,-2.23625 0.2298544,1.52006 0.2237119,3.77006 -0.01365,5 C 1.4665693,682.49369 1.2785066,681.25 1.2860141,678.5 Z M 331,677.62244 c 0,-0.20765 0.7875,-0.99515 1.75,-1.75 1.58606,-1.24387 1.62143,-1.2085 0.37756,0.37756 C 331.82119,677.91575 331,678.44548 331,677.62244 Z m 10,-11 c 0,-0.20765 0.7875,-0.99515 1.75,-1.75 1.58606,-1.24387 1.62143,-1.2085 0.37756,0.37756 C 341.82119,666.91575 341,667.44548 341,666.62244 Z M 0.29966418,654 c 0,-3.025 0.18746562,-4.2625 0.41659026,-2.75 0.22912464,1.5125 0.22912464,3.9875 0,5.5 C 0.4871298,658.2625 0.29966418,657.025 0.29966418,654 Z M 0.2521834,628.5 c 0.0110994,-2.2 0.21588425,-2.98225 0.45507747,-1.73834 0.23919321,1.24391 0.2301119,3.04391 -0.0201807,4 C 0.43678756,631.71775 0.24108402,630.7 0.2521834,628.5 Z M 436.76166,621.29274 c 1.24391,-0.23919 3.04391,-0.23011 4,0.0202 0.95609,0.25029 -0.0617,0.446 -2.26166,0.4349 -2.2,-0.0111 -2.98225,-0.21589 -1.73834,-0.45508 z M 466.25,620.28375 c 1.5125,-0.22913 3.9875,-0.22913 5.5,0 1.5125,0.22912 0.275,0.41659 -2.75,0.41659 -3.025,0 -4.2625,-0.18747 -2.75,-0.41659 z m 87,-1.03317 c 16.3625,-0.15419 43.1375,-0.15419 59.5,0 16.3625,0.15418 2.975,0.28033 -29.75,0.28033 -32.725,0 -46.1125,-0.12615 -29.75,-0.28033 z m 115,-0.93991 c 0.9625,-0.25152 2.5375,-0.25152 3.5,0 0.9625,0.25153 0.175,0.45733 -1.75,0.45733 -1.925,0 -2.7125,-0.2058 -1.75,-0.45733 z m 98.5,-0.0341 c 1.7875,-0.22182 4.7125,-0.22182 6.5,0 1.7875,0.22183 0.325,0.40333 -3.25,0.40333 -3.575,0 -5.0375,-0.1815 -3.25,-0.40333 z m 26.5,-0.99285 c 1.5125,-0.22913 3.9875,-0.22913 5.5,0 1.5125,0.22912 0.275,0.41659 -2.75,0.41659 -3.025,0 -4.2625,-0.18747 -2.75,-0.41659 z m 21.5625,-1.96686 c 0.72187,-0.28887 1.58438,-0.25335 1.91667,0.0789 0.33229,0.33229 -0.25834,0.56864 -1.3125,0.52522 -1.16495,-0.048 -1.4019,-0.28494 -0.60417,-0.60416 z M 1.2723641,604 c 0,-2.475 0.195016,-3.4875 0.4333689,-2.25 0.2383529,1.2375 0.2383529,3.2625 0,4.5 -0.2383529,1.2375 -0.4333689,0.225 -0.4333689,-2.25 z m 0.8065833,-10.58333 c 0.047984,-1.16495 0.2849403,-1.4019 0.6041666,-0.60417 0.2888706,0.72187 0.2533443,1.58438 -0.078947,1.91667 -0.3322917,0.33229 -0.5686404,-0.25834 -0.5252196,-1.3125 z M 3.1949487,574.5 c 0.02038,-1.65 0.2444986,-2.20394 0.498042,-1.23097 0.2535434,0.97297 0.2368691,2.32297 -0.037054,3 C 3.3820136,576.94606 3.174569,576.15 3.1949487,574.5 Z M 915,561.62244 c 0,-0.20765 0.7875,-0.99515 1.75,-1.75 1.58606,-1.24387 1.62143,-1.2085 0.37756,0.37756 C 915.82119,561.91575 915,562.44548 915,561.62244 Z M 5.1578947,556 c 0,-1.375 0.2269737,-1.9375 0.504386,-1.25 0.2774123,0.6875 0.2774123,1.8125 0,2.5 -0.2774123,0.6875 -0.504386,0.125 -0.504386,-1.25 z m 1.9210527,-14.58333 c 0.047984,-1.16495 0.2849403,-1.4019 0.6041666,-0.60417 0.2888706,0.72187 0.2533443,1.58438 -0.078947,1.91667 -0.3322917,0.33229 -0.5686404,-0.25834 -0.5252196,-1.3125 z M 949.15789,483 c 0,-1.375 0.22698,-1.9375 0.50439,-1.25 0.27741,0.6875 0.27741,1.8125 0,2.5 -0.27741,0.6875 -0.50439,0.125 -0.50439,-1.25 z m 1.11447,-10 c 0,-2.475 0.19502,-3.4875 0.43337,-2.25 0.23836,1.2375 0.23836,3.2625 0,4.5 -0.23835,1.2375 -0.43337,0.225 -0.43337,-2.25 z M 73,388.5 c 1.291745,-1.375 2.573628,-2.5 2.848628,-2.5 0.275,0 -0.556883,1.125 -1.848628,2.5 -1.291745,1.375 -2.573628,2.5 -2.848628,2.5 -0.275,0 0.556883,-1.125 1.848628,-2.5 z m 8,-7.81291 c 0,-0.1721 1.4625,-1.6346 3.25,-3.25 L 87.5,374.5 84.562909,377.75 C 81.825128,380.77946 81,381.45965 81,380.68709 Z m 93.75,-46.34937 c 0.6875,-0.27741 1.8125,-0.27741 2.5,0 0.6875,0.27741 0.125,0.50439 -1.25,0.50439 -1.375,0 -1.9375,-0.22698 -1.25,-0.50439 z m 9,-1.04345 c 1.2375,-0.23836 3.2625,-0.23836 4.5,0 1.2375,0.23835 0.225,0.43337 -2.25,0.43337 -2.475,0 -3.4875,-0.19502 -2.25,-0.43337 z m 396.5,-1.03758 c 4.2625,-0.18745 11.2375,-0.18745 15.5,0 4.2625,0.18745 0.775,0.34082 -7.75,0.34082 -8.525,0 -12.0125,-0.15337 -7.75,-0.34082 z m 49.75,0.1292 c 5.96927,-0.75081 12.77461,-0.8257 12.34694,-0.13589 -0.25573,0.4125 -3.70092,0.68258 -7.65596,0.60017 -3.95504,-0.0824 -6.06598,-0.29133 -4.69098,-0.46428 z M 644.232,310 c 0,-1.925 0.2058,-2.7125 0.45733,-1.75 0.25152,0.9625 0.25152,2.5375 0,3.5 -0.25153,0.9625 -0.45733,0.175 -0.45733,-1.75 z M 608.25,287.25379 c 5.9125,-0.1768 15.5875,-0.1768 21.5,0 5.9125,0.17679 1.075,0.32145 -10.75,0.32145 -11.825,0 -16.6625,-0.14466 -10.75,-0.32145 z m -217,-0.94312 c 0.9625,-0.25152 2.5375,-0.25152 3.5,0 0.9625,0.25153 0.175,0.45733 -1.75,0.45733 -1.925,0 -2.7125,-0.2058 -1.75,-0.45733 z m 10.01903,-0.004 c 0.97297,-0.25354 2.32297,-0.23687 3,0.0371 0.67703,0.27393 -0.11903,0.48137 -1.76903,0.46099 -1.65,-0.0204 -2.20394,-0.2445 -1.23097,-0.49804 z m 57.99472,-0.0246 c 1.52006,-0.22986 3.77006,-0.22371 5,0.0136 1.22994,0.23736 -0.0138,0.42542 -2.76375,0.41792 -2.75,-0.008 -3.75631,-0.20172 -2.23625,-0.43157 z m 23.92223,-0.0304 c 9.17729,-0.16487 24.47729,-0.16517 34,-6.6e-4 9.52271,0.16451 2.01402,0.29941 -16.68598,0.29977 -18.7,3.6e-4 -26.49131,-0.13424 -17.31402,-0.29911 z M 333.41508,268 c 0,-10.175 0.1485,-14.3375 0.32999,-9.25 0.18149,5.0875 0.18149,13.4125 0,18.5 -0.18149,5.0875 -0.32999,0.925 -0.32999,-9.25 z m -0.33613,-20.58333 c 0.048,-1.16495 0.28494,-1.4019 0.60416,-0.60417 0.28887,0.72187 0.25335,1.58437 -0.0789,1.91667 -0.33229,0.33229 -0.56864,-0.25834 -0.52522,-1.3125 z M 425.87244,194.25 c -1.24387,-1.58606 -1.2085,-1.62143 0.37756,-0.37756 0.9625,0.75485 1.75,1.54235 1.75,1.75 0,0.82304 -0.82119,0.29331 -2.12756,-1.37244 z m 95.20651,-28.83333 c 0.048,-1.16495 0.28494,-1.4019 0.60416,-0.60417 0.28887,0.72187 0.25335,1.58437 -0.0789,1.91667 -0.33229,0.33229 -0.56864,-0.25834 -0.52522,-1.3125 z m -111,-1 c 0.048,-1.16495 0.28494,-1.4019 0.60416,-0.60417 0.28887,0.72187 0.25335,1.58437 -0.0789,1.91667 -0.33229,0.33229 -0.56864,-0.25834 -0.52522,-1.3125 z M 522.25218,154.5 c 0.0111,-2.2 0.21589,-2.98225 0.45508,-1.73834 0.23919,1.24391 0.23011,3.04391 -0.0202,4 -0.25029,0.95609 -0.446,-0.0617 -0.4349,-2.26166 z M 410.07895,144.41667 c 0.048,-1.16495 0.28494,-1.4019 0.60416,-0.60417 0.28887,0.72187 0.25335,1.58437 -0.0789,1.91667 -0.33229,0.33229 -0.56864,-0.25834 -0.52522,-1.3125 z m 111,-1 c 0.048,-1.16495 0.28494,-1.4019 0.60416,-0.60417 0.28887,0.72187 0.25335,1.58437 -0.0789,1.91667 -0.33229,0.33229 -0.56864,-0.25834 -0.52522,-1.3125 z m 428,-5 c 0.048,-1.16495 0.28494,-1.4019 0.60416,-0.60417 0.28887,0.72187 0.25335,1.58437 -0.0789,1.91667 -0.33229,0.33229 -0.56864,-0.25834 -0.52522,-1.3125 z M 333.27236,133 c 0,-2.475 0.19502,-3.4875 0.43337,-2.25 0.23836,1.2375 0.23836,3.2625 0,4.5 -0.23835,1.2375 -0.43337,0.225 -0.43337,-2.25 z m 0.80659,-9.58333 c 0.048,-1.16495 0.28494,-1.4019 0.60416,-0.60417 0.28887,0.72187 0.25335,1.58437 -0.0789,1.91667 -0.33229,0.33229 -0.56864,-0.25834 -0.52522,-1.3125 z M 423.5,117 c 0.99549,-1.1 2.03498,-2 2.30998,-2 0.275,0 -0.31449,0.9 -1.30998,2 -0.99549,1.1 -2.03498,2 -2.30998,2 -0.275,0 0.31449,-0.9 1.30998,-2 z m 5,-5 c 0.99549,-1.1 2.03498,-2 2.30998,-2 0.275,0 -0.31449,0.9 -1.30998,2 -0.99549,1.1 -2.03498,2 -2.30998,2 -0.275,0 0.31449,-0.9 1.30998,-2 z m 23.3125,-12.683114 c 0.72187,-0.288871 1.58438,-0.253344 1.91667,0.07895 0.33229,0.332292 -0.25834,0.568641 -1.3125,0.52522 -1.16495,-0.04798 -1.4019,-0.284941 -0.60417,-0.604167 z M 464.75,97.337719 c 0.6875,-0.277412 1.8125,-0.277412 2.5,0 0.6875,0.277413 0.125,0.504386 -1.25,0.504386 -1.375,0 -1.9375,-0.226973 -1.25,-0.504386 z M 920.40499,83.75 918.5,81.5 l 2.25,1.904988 c 1.2375,1.047743 2.25,2.060243 2.25,2.25 0,0.800253 -0.80479,0.209457 -2.59501,-1.904988 z m -558.44678,-12 C 366.10217,67.33481 367,66.540906 367,67.291792 c 0,0.160486 -2.1375,2.297986 -4.75,4.75 L 357.5,76.5 Z m 543.91423,-2.5 C 904.62857,67.663944 904.66394,67.628574 906.25,68.872445 907.91575,70.178814 908.44548,71 907.62244,71 c -0.20765,0 -0.99515,-0.7875 -1.75,-1.75 z M 488.8125,13.316886 c 0.72187,-0.288871 1.58438,-0.253344 1.91667,0.07895 0.33229,0.332292 -0.25834,0.568641 -1.3125,0.52522 -1.16495,-0.04798 -1.4019,-0.284941 -0.60417,-0.604167 z m 22,-4 c 0.72187,-0.2888706 1.58438,-0.2533443 1.91667,0.078947 0.33229,0.3322917 -0.25834,0.5686404 -1.3125,0.5252193 -1.16495,-0.047984 -1.4019,-0.2849403 -0.60417,-0.6041663 z m 248,0 c 0.72187,-0.2888706 1.58438,-0.2533443 1.91667,0.078947 0.33229,0.3322917 -0.25834,0.5686404 -1.3125,0.5252193 -1.16495,-0.047984 -1.4019,-0.2849403 -0.60417,-0.6041663 z m -235,-2 c 0.72187,-0.2888706 1.58438,-0.2533443 1.91667,0.078947 0.33229,0.3322917 -0.25834,0.5686404 -1.3125,0.5252193 -1.16495,-0.047984 -1.4019,-0.2849403 -0.60417,-0.6041663 z m 222,0 c 0.72187,-0.2888706 1.58438,-0.2533443 1.91667,0.078947 0.33229,0.3322917 -0.25834,0.5686404 -1.3125,0.5252193 -1.16495,-0.047984 -1.4019,-0.2849403 -0.60417,-0.6041663 z M 538.75,5.3377193 c 0.6875,-0.2774123 1.8125,-0.2774123 2.5,0 0.6875,0.2774123 0.125,0.504386 -1.25,0.504386 -1.375,0 -1.9375,-0.2269737 -1.25,-0.504386 z m 191,0 c 0.6875,-0.2774123 1.8125,-0.2774123 2.5,0 0.6875,0.2774123 0.125,0.504386 -1.25,0.504386 -1.375,0 -1.9375,-0.2269737 -1.25,-0.504386 z m -171.48097,-2.03071 c 0.97297,-0.2535434 2.32297,-0.2368691 3,0.037054 0.67703,0.2739231 -0.11903,0.4813677 -1.76903,0.460988 -1.65,-0.02038 -2.20394,-0.2444986 -1.23097,-0.498042 z M 709.25,3.3106745 c 0.9625,-0.2515276 2.5375,-0.2515276 3.5,0 0.9625,0.2515275 0.175,0.4573228 -1.75,0.4573228 -1.925,0 -2.7125,-0.2057953 -1.75,-0.4573228 z M 580.8125,2.316886 c 0.72187,-0.2888706 1.58438,-0.2533443 1.91667,0.078947 0.33229,0.3322917 -0.25834,0.5686404 -1.3125,0.5252193 -1.16495,-0.047984 -1.4019,-0.2849403 -0.60417,-0.6041663 z m 109,0 c 0.72187,-0.2888706 1.58438,-0.2533443 1.91667,0.078947 0.33229,0.3322917 -0.25834,0.5686404 -1.3125,0.5252193 -1.16495,-0.047984 -1.4019,-0.2849403 -0.60417,-0.6041663 z M 591.25,1.2715316 c 2.0625,-0.2157442 5.4375,-0.2157442 7.5,0 2.0625,0.2157442 0.375,0.3922622 -3.75,0.3922622 -4.125,0 -5.8125,-0.176518 -3.75,-0.3922622 z m 86,0.012214 c 1.5125,-0.2291247 3.9875,-0.2291247 5.5,0 1.5125,0.2291246 0.275,0.4165902 -2.75,0.4165902 -3.025,0 -4.2625,-0.1874656 -2.75,-0.4165902 z M 622.76791,0.27526873 c 1.79735,-0.22256142 4.49735,-0.21796917 6,0.010205 1.50265,0.22817416 0.0321,0.41026987 -3.26791,0.40465713 -3.3,-0.005613 -4.52944,-0.19230069 -2.73209,-0.41486213 z m 28.48209,0.008477 c 1.5125,-0.22912464 3.9875,-0.22912464 5.5,0 1.5125,0.22912464 0.275,0.41659026 -2.75,0.41659026 -3.025,0 -4.2625,-0.18746562 -2.75,-0.41659026 z"
         id="path3" />
      <path
         style="fill:#3470a2"
         d="m 169.5,953.25994 c -4.66806,-0.28015 -12.7244,-1.8837 -20.5,-4.08036 -3.025,-0.85459 -5.95,-1.65989 -6.5,-1.78956 -2.8766,-0.67819 -19.70135,-7.99716 -24.48446,-10.65103 C 81.592048,916.52971 55.493554,885.83054 34.498964,838.5 c -0.731897,-1.65 -2.534908,-6.15 -4.006691,-10 -1.471783,-3.85 -3.054892,-7.9 -3.518021,-9 -0.463128,-1.1 -1.38415,-3.8 -2.046717,-6 -0.662566,-2.2 -1.541019,-4.9 -1.952118,-6 -0.411098,-1.1 -1.300933,-4.025 -1.97741,-6.5 -0.676478,-2.475 -1.59206,-5.625 -2.034627,-7 -1.516881,-4.71276 -5.951103,-23.9806 -7.882154,-34.25 C 7.678865,741.65612 6.8722157,736.56419 6.3683101,730 c -0.1899955,-2.475 -0.7654202,-6.75 -1.2787218,-9.5 -0.5133015,-2.75 -0.95686,-6.8 -0.9856854,-9 -0.028825,-2.2 -0.5010916,-7.15 -1.0494804,-11 C 2.5060338,696.65 2.08521,691.475 2.1192587,689 2.1533073,686.525 1.698193,674.6 1.1078934,662.5 0.32339609,646.41932 0.34255059,634.44615 1.1790839,618 1.8085381,605.625 2.2891333,594.375 2.2470731,593 2.205013,591.625 2.6519568,586 3.2402816,580.5 3.8286064,575 4.2563761,569.825 4.1908808,569 4.0525618,567.25769 5.5600847,555.58232 7.2252,545.5 c 0.6358352,-3.85 1.0665887,-7.34857 0.9572299,-7.77461 -0.1093588,-0.42603 0.2178027,-2.67603 0.7270255,-5 C 9.4186782,530.40143 10.355936,525.8 10.99225,522.5 c 0.636314,-3.3 1.555296,-7.575 2.042182,-9.5 0.486886,-1.925 1.614135,-6.425 2.504997,-10 0.890861,-3.575 2.070973,-8.075 2.62247,-10 0.551497,-1.925 1.242565,-4.74301 1.535707,-6.26224 0.293142,-1.51923 0.931102,-3.00829 1.41769,-3.30902 C 21.601883,483.12802 22,481.87352 22,480.64098 c 0,-1.23254 0.358136,-2.66848 0.795859,-3.19098 0.437722,-0.5225 1.367467,-2.75 2.0661,-4.95 0.698633,-2.2 1.690497,-5.0125 2.204142,-6.25 C 27.579745,465.0125 28.45,462.875 29,461.5 c 17.505589,-43.76397 43.946025,-78.34507 76.50114,-100.05484 17.60051,-11.7371 40.58663,-21.43758 59.42879,-25.07982 1.33646,-0.25834 2.74493,-0.6644 3.12995,-0.90235 0.38501,-0.23795 5.14154,-0.69046 10.57007,-1.00559 5.42853,-0.31512 10.41565,-0.75134 11.08249,-0.96938 0.66684,-0.21803 102.73288,-0.46281 226.81342,-0.54394 l 225.60099,-0.14752 0.80985,-2.14828 c 0.91691,-2.43228 1.52438,-18.3982 1.24835,-32.81038 L 644,288.1758 l -3.75,-0.61707 c -2.0625,-0.33938 -71.6364,-0.80283 -154.60866,-1.02989 -82.97227,-0.22706 -151.08101,-0.63517 -151.35275,-0.90692 -0.78161,-0.7816 -0.86643,-147.99529 -0.0917,-159.20823 0.38327,-5.54747 1.234,-11.39747 1.89053,-13 3.27063,-7.98342 4.30334,-10.30068 6.64639,-14.91369 7.79182,-15.340544 24.88932,-33.519781 42.66636,-45.365807 8.9734,-5.979576 28.16678,-16.10097 38.34986,-20.223337 1.2375,-0.500971 3.2625,-1.331111 4.5,-1.844755 1.2375,-0.513645 4.05,-1.505509 6.25,-2.204142 2.2,-0.698633 4.4275,-1.628378 4.95,-2.0661 C 439.9725,26.358136 441.21611,26 442.21357,26 c 0.99746,0 2.59496,-0.39476 3.55,-0.877244 1.79027,-0.904443 7.78046,-2.898597 10.94318,-3.643016 0.98629,-0.232146 3.59325,-0.914977 5.79325,-1.517401 7.71858,-2.113573 18.45717,-4.662855 25.5,-6.05356 10.70043,-2.11295 15.54561,-2.98022 19.5,-3.490434 2.2,-0.283854 5.73292,-0.9736797 7.85094,-1.5329463 2.11802,-0.5592667 4.05305,-0.8147433 4.30007,-0.5677259 0.24701,0.2470175 2.11409,0.052163 4.14905,-0.433009 C 525.83503,7.3994914 530.2,6.7666126 533.5,6.4782665 c 3.3,-0.2883461 8.475,-0.9244532 11.5,-1.4135713 3.025,-0.4891182 7.26554,-0.917999 9.42342,-0.9530685 2.15788,-0.03507 7.33288,-0.4994418 11.5,-1.0319383 C 570.09054,2.547192 577.1,2.1294276 581.5,2.1513232 c 4.4,0.021895 19.45344,-0.4402939 33.45209,-1.0270877 18.50116,-0.77552944 32.01954,-0.75752807 49.5,0.065915 C 677.67844,1.8131979 689.625,2.2895983 691,2.2488182 c 3.85538,-0.1143439 25.45925,1.7221439 35.5,3.0177611 4.95,0.6387277 9.39648,1.0453852 9.88107,0.9036833 0.48458,-0.1417019 3.19689,0.2231233 6.02734,0.8107227 2.83045,0.5875994 6.70897,1.2157468 8.61893,1.395883 1.90996,0.1801362 5.27266,0.6360756 7.47266,1.0131987 2.2,0.377123 6.7,1.148708 10,1.714632 5.72643,0.982039 8.49938,1.552249 19.25,3.95844 16.39584,3.669696 43.07268,11.518747 47.48643,13.971797 C 836.19147,29.565721 837.45071,30 838.03474,30 c 0.58403,0 2.92466,0.9 5.2014,2 2.27673,1.1 4.5068,2 4.95569,2 1.4624,0 22.25376,10.534152 30.65602,15.532177 18.41307,10.952879 39.26129,29.35413 49.47638,43.669293 4.38234,6.141307 13.64266,23.01723 14.9795,27.29853 0.34348,1.1 1.33339,3.8 2.19981,6 0.86642,2.2 1.76959,4.675 2.00705,5.5 0.23747,0.825 0.99789,3.3 1.68984,5.5 0.98904,3.1446 1.26252,39.07125 1.27883,168 0.0114,90.2 -0.32614,168.5 -0.7501,174 -0.42396,5.5 -1.90282,14.05 -3.28636,19 -1.38354,4.95 -2.71885,9.9 -2.96735,11 -0.48244,2.13555 -3.09058,9.13515 -7.15178,19.19355 -5.40349,13.38284 -17.88586,30.93444 -30.3868,42.72719 -20.05035,18.91449 -42.16401,30.77947 -75.43687,40.47529 -21.37823,6.22969 -43.44365,7.09552 -180.74992,7.09255 -121.12925,-0.003 -208.13037,1.38787 -220.75008,3.52812 -7.75022,1.31441 -10.24385,1.87953 -19.5,4.4192 -16.7872,4.60601 -37.42252,14.62814 -50.81651,24.6805 -10.76617,8.08014 -23.18535,20.43214 -30.73516,30.56891 -11.55568,15.51524 -25.3497,42.87402 -27.58896,54.71939 -0.25003,1.32259 -0.899,3.23509 -1.44216,4.25 -0.54317,1.01492 -0.75788,1.8453 -0.47714,1.8453 0.28073,0 0.0316,1.2375 -0.55362,2.75 -0.58523,1.5125 -1.20926,3.46486 -1.38675,4.33858 -0.17748,0.87372 -0.78164,3.34872 -1.34258,5.5 -1.83038,7.01976 -3.3035,15.36451 -2.85035,16.14633 0.2439,0.4208 0.0497,5.26509 -0.4315,10.76509 -0.48122,5.5 -1.10488,45.96736 -1.38591,89.92747 -0.28103,43.96011 -0.63866,80.05517 -0.79473,80.21123 -0.35643,0.35643 -114.75474,0.94771 -120.19463,0.62124 z M 489.47103,205.43742 c 4.8053,-2.37365 10.44804,-6.25096 14.2079,-9.76269 C 509.67502,190.07434 518,178.47708 518,175.72451 c 0,-0.72848 0.35814,-1.75201 0.79586,-2.27451 2.20066,-2.62688 3.5271,-9.79962 3.53206,-19.09967 0.005,-9.14554 -0.32191,-10.97581 -3.30315,-18.5 -4.22208,-10.6559 -8.83099,-17.62636 -15.70662,-23.75451 C 496.78622,106.27401 485.94508,100.60545 479,99.380481 c -1.375,-0.242522 -4.80175,-0.850834 -7.61499,-1.351805 -4.94414,-0.880433 -16.83959,0.462319 -23.38501,2.639684 -16.05804,5.34179 -31.53029,21.53394 -36.27403,37.96181 -1.42152,4.9228 -1.45648,26.71138 -0.0506,31.51544 4.20062,14.3537 16.02366,28.10482 29.86134,34.73107 10.50729,5.03148 10.46335,5.02377 26.96326,4.72978 12.91744,-0.23016 13.05062,-0.25663 20.97103,-4.16904 z"
         id="path2" />
    </g>
  </g>
</svg>
