<?xml version="1.0" encoding="UTF-8" standalone="no"?>
<!-- Created with Inkscape (http://www.inkscape.org/) -->

<svg
   version="1.1"
   id="svg1"
   width="2300"
   height="2000"
   viewBox="0 0 2300 2000"
   xmlns="http://www.w3.org/2000/svg"
   xmlns:svg="http://www.w3.org/2000/svg">
  <defs
     id="defs1" />
  <g
     id="g1">
    <path
       style="fill:#60d9f9"
       d="m 655.90203,2000.1904 c -77.3664,-16.1199 -136.5758,-70.1072 -167.3357,-152.5773 -13.014,-34.8917 -20.8846,-70.8014 -25.863,-118 -2.5161,-23.8552 -2.5058,-102.9751 0.017,-131.5 6.0387,-68.2717 17.3372,-135.5312 34.6046,-206 1.6172,-6.6 2.6336,-12.269 2.2586,-12.5978 -0.375,-0.3288 -5.1818,-1.8396 -10.6818,-3.3573 -34.604,-9.549 -91.4831,-28.9631 -130.7479,-44.627 -136.4455,-54.4322 -235.0728,-122.906 -285.939193,-198.5184 -22.0186,-32.7303 -35.0443,-64.7641 -40.4979,-99.5958 -2.4313,-15.5283 -2.4313,-46.07923 0,-61.60753 13.5641,-86.6322 78.233393,-165.2315 191.184993,-232.3671 73.1814,-43.4972 155.9204,-77.7588 268.8022,-111.3091 7.2154,-2.1446 8.7077,-2.9229 8.2784,-4.3181 -0.288,-0.9361 -1.9128,-7.5519 -3.6107,-14.7019 -17.8172,-75.0323 -27.4366,-132.8759 -33.6756,-202.5 -2.5022,-27.9235 -2.498,-107.2509 0.01,-131 4.8098,-45.6001 12.2385,-80.4119 24.2366,-113.5759 31.0178,-85.736699 90.5618,-141.0693 168.8685,-156.9245997 11.881,-2.4055998 13.7729,-2.4994998 50.3397,-2.4994998 33.7759,0 39.314,0.2276 49.8744,2.0501998 97.4039,16.8106997 209.1028,78.2663007 327.87957,180.3961997 19.4644,16.7363 41.5971,36.8071 56.701,51.4184 l 12.7817,12.3649 13.2586,-12.7769 c 15.763,-15.1902 43.9945,-40.623 62.7587,-56.5372 116.6696,-98.948999 226.1591,-158.5268 321.3796,-174.8758997 10.5341,-1.8086998 16.1825,-2.0396998 49.8743,-2.0396998 36.5669,0 38.4588,0.094 50.3398,2.4994998 78.2737,15.8486997 137.9616,71.3168007 168.9444,157.0004997 24.2845,67.159 32.0994,154.7549 22.9285,257 -4.9147,54.7922 -16.608,123.8886 -31.3917,185.495 -2.705,11.2722 -4.7813,20.6318 -4.614,20.7991 0.1673,0.1673 10.7946,3.4588 23.6162,7.3143 252.5359,75.9396 407.3778,187.9371 440.38,318.5281 4.686,18.5426 5.927,29.2971 5.927,51.36353 0,21.9473 -1.2549,32.9245 -5.8148,50.8634 -18.1255,71.3064 -70.7651,136.0508 -157.5693,193.8033 -73.0637,48.6107 -168.3346,90.7672 -283.163,125.297 -12.6896,3.8158 -23.2015,7.0725 -23.3598,7.2371 -0.1583,0.1645 1.9182,9.5242 4.6144,20.7992 11.3377,47.4118 22.7429,109.6415 27.8577,152 8.1646,67.6147 9.4256,135.647 3.4752,187.5 -6.7142,58.5091 -19.8477,104.1761 -41.701,145 -32.9118,61.4821 -85.7649,101.968 -150.1298,115.0004 -11.881,2.4056 -13.7729,2.4996 -50.3398,2.4996 -41.5216,0 -46.5945,-0.4803 -73.7539,-6.9829 -105.7122,-25.3099 -232.2905,-104.5094 -356.7685,-223.2285 l -16.7686,-15.9927 -12.2746,11.852 c -6.7511,6.5186 -19.0052,17.952 -27.2315,25.4074 -130.6249,118.3856 -252.16267,188.6565 -357.83637,206.8944 -10.6408,1.8365 -15.9065,2.0434 -50.5,1.9849 -36.2511,-0.061 -39.2953,-0.206 -49.6205,-2.3573 z m 78.5,-95.1686 c 91.0555,-13.3039 209.6155,-85.1415 333.75007,-202.225 8.9375,-8.4298 16.25,-15.7668 16.25,-16.3044 0,-0.5377 -4.8375,-6.253 -10.75,-12.7008 -53.3942,-58.2283 -115.34527,-135.2361 -169.77367,-211.0361 -4.8803,-6.7967 -9.3465,-12.4805 -9.9249,-12.6307 -0.5783,-0.1503 -13.2015,-1.4752 -28.0515,-2.9442 -80.8563,-7.9987 -178.1875,-23.254 -252,-39.4975 -9.9,-2.1787 -18.2906,-3.6482 -18.6457,-3.2656 -0.9496,1.0227 -10.0792,40.4092 -15.2357,65.7282 -32.0561,157.4013 -29.2778,284.9686 7.8616,360.9674 22.4019,45.8414 54.9944,70.2915 100.5346,75.4185 10.6762,1.202 32.2796,0.4927 45.9852,-1.5098 z m 893.59297,0.047 c 54.5744,-9.517 91.6894,-52.5757 109.4314,-126.9558 18.2601,-76.5524 14.7254,-182.9652 -10.1479,-305.5 -4.8656,-23.9699 -14.8553,-67.2575 -15.7322,-68.1713 -0.3543,-0.3692 -5.5942,0.4353 -11.6442,1.7878 -74.9801,16.7613 -180.7015,33.447 -262,41.3508 -12.1,1.1763 -22.9718,2.3383 -24.1596,2.5821 -1.2445,0.2555 -4.1908,3.3051 -6.9531,7.1969 -52.1059,73.4124 -118.7422,156.4658 -173.6373,216.4156 -5.9125,6.4569 -10.75,12.172 -10.75,12.7001 0,0.5282 6.6375,7.2269 14.75,14.8861 133.2235,125.7789 256.7429,197.9874 351.75,205.63 8.8472,0.7117 29.9346,-0.3252 39.0929,-1.9223 z M 1173.102,1594.363 c 27.6178,-31.0318 47.8824,-55.0103 72.8911,-86.25 17.1978,-21.4828 36.433,-46.3989 37.039,-47.9782 0.3954,-1.0304 -0.3899,-1.2526 -3.3057,-0.9355 -28.4244,3.0921 -224.4622,3.0069 -251.5743,-0.1093 -2.6923,-0.3094 -4.75,-0.1377 -4.75,0.3964 0,1.1633 27.9217,37.0248 49.6422,63.7586 27.4965,33.8428 78.424,92.368 80.377,92.368 0.4227,0 9.279,-9.5625 19.6807,-21.25 z m 33.8001,-230.7516 c 65.6933,-1.4053 150.0144,-5.7177 151.4002,-7.743 65.7518,-96.0952 128.4739,-202.8684 184.1451,-313.4745 l 19.9918,-39.719 -16.1357,-32.28103 c -51.5323,-103.0956 -106.2564,-197.9005 -168.9818,-292.7472 l -19.0838,-28.8564 -5.6679,-0.5875 c -40.2341,-4.1704 -168.564,-8.1572 -228.6679,-7.1041 -77.6759,1.3611 -173.62127,5.9028 -175.48227,8.3068 -2.0105,2.5973 -39.4611,59.4942 -47.1991,71.7075 -50.7869,80.1596 -93.1277,154.9052 -136.3544,240.7111 l -20.5092,40.71123 16.1396,32.2888 c 51.5323,103.0955 106.2593,197.9069 168.9722,292.7346 l 19.0702,28.8359 6.1815,0.6141 c 22.9365,2.2783 93.24387,5.5931 138.68147,6.5383 53.1939,1.1067 64.4781,1.1131 113.5,0.064 z m -77.9033,-162.1373 c -67.7157,-8.689 -126.1626,-50.5126 -155.62307,-111.3611 -13.7518,-28.4033 -19.9737,-55.6599 -19.9737,-87.5 0,-97.17443 68.29237,-179.09983 164.29387,-197.09163 14.2473,-2.67 42.9952,-3.6552 57.7626,-1.9794 68.4775,7.7707 128.171,49.9338 157.9595,111.571 13.7209,28.3906 19.9841,55.76 19.9841,87.32743 0,23.1895 -2.9514,41.8299 -10.0422,63.4238 -23.7172,72.2269 -87.906,125.2437 -163.759,135.2569 -12.2745,1.6203 -39.2587,1.8086 -50.6021,0.353 z m -316.12067,125.6714 c -36.1636,-57.3307 -72.4499,-119.9363 -106.2448,-183.3061 l -14.0115,-26.2735 -3.6918,8.7735 c -8.1437,19.3538 -26.8594,67.1884 -35.4913,90.7105 -9.5838,26.116 -29.2819,83.8014 -30.4631,89.2104 l -0.6874,3.1473 9.3069,2.1461 c 22.9989,5.3036 72.6914,14.7209 108.8069,20.6202 24.8124,4.0531 74.9972,11.2457 79.1818,11.3485 l 3.6818,0.091 z m 708.51357,11.8814 c 46.1954,-6.5611 93.5526,-14.7736 134.7982,-23.3761 24.57,-5.1245 27.2533,-5.7456 27.9859,-6.4781 0.3398,-0.3399 -3.9893,-14.4423 -9.6203,-31.3388 -16.0099,-48.0401 -34.3951,-97.4545 -52.8058,-141.9281 l -7.5992,-18.3569 -13.9947,26.282 c -33.4295,62.7805 -69.9643,125.8223 -106.3181,183.4548 l -10.4759,16.6076 6.7597,-0.6926 c 3.7179,-0.3809 17.7895,-2.2591 31.2702,-4.1738 z m -981.67587,-92.1921 c 25.3201,-76.5147 54.7661,-151.5015 90.2381,-229.799 l 6.5352,-14.4251 -6.9106,-15.24893 c -34.7861,-76.7587 -64.5714,-152.6323 -89.9951,-229.2488 -6.9352,-20.9 -12.6411,-38.0905 -12.6798,-38.201 -0.1269,-0.3632 -20.5984,5.7085 -43.5016,12.9023 -91.0699,28.6047 -173.917,65.7715 -232.9236,104.494 -28.457,18.6745 -49.6341,35.9193 -70.5794,57.4737 -34.203,35.1975 -50.8304,67.9533 -52.2222,102.8773 -1.2472,31.29563 8.1946,57.72703 32.1331,89.95373 8.7725,11.8096 30.5263,34.2269 45.0921,46.4672 59.5699,50.0592 148.5092,95.3782 259.5,132.2281 14.3082,4.7504 60.5894,19.0873 62,19.2062 0.275,0.023 6.2662,-17.3827 13.3138,-38.6797 z m 1265.18627,31.2796 c 101.6657,-30.4134 191.4079,-70.0397 255.2927,-112.7261 43.3794,-28.9851 78.5146,-62.6518 97.8981,-93.8061 18.1752,-29.2123 25.0153,-60.8199 19.4083,-89.68383 -2.5272,-13.0096 -5.1249,-20.587 -11.5828,-33.7854 -10.2503,-20.9493 -23.3112,-38.1279 -45.6746,-60.0742 -56.6668,-55.6096 -149.9424,-106.0491 -272.4872,-147.3494 -19.6331,-6.6168 -67.5797,-21.3292 -67.8285,-20.8132 -0.063,0.1302 -5.7878,17.3368 -12.7223,38.2368 -24.5976,74.1354 -52.6773,145.992 -86.4541,221.2383 l -10.4313,23.23823 10.4365,23.2618 c 33.878,75.5098 61.9421,147.3484 86.3248,220.9739 10.0085,30.2212 13.1494,38.6199 14.3204,38.2914 0.825,-0.2315 11.4,-3.3825 23.5,-7.0022 z M 732.89703,813.11297 c 25.1136,-45.0941 53.8479,-93.6032 80.0695,-135.1728 l 10.4759,-16.6076 -6.71,0.6875 c -15.2197,1.5593 -69.179,9.6198 -98.3304,14.6888 -38.5401,6.7015 -94.437,18.0078 -95.8084,19.3792 -0.815,0.8149 18.6608,58.9676 30.8197,92.0249 8.7536,23.7989 27.5953,71.9559 35.5157,90.7735 l 3.6928,8.7735 14.0115,-26.2735 c 7.7064,-14.4504 19.5251,-36.1735 26.2637,-48.2735 z m 898.89417,31.187 c 6.8339,-17.1529 16.5559,-42.437 21.6044,-56.187 12.1985,-33.2236 31.5994,-91.2405 30.7836,-92.0563 -1.6084,-1.6084 -60.0211,-13.2855 -102.2771,-20.4459 -28.9096,-4.8988 -78.9266,-12.311 -91.7588,-13.598 l -6.7588,-0.6778 13.1385,20.889 c 36.5622,58.1305 87.6028,146.9966 112.6588,196.1487 l 4.7203,9.2598 2.7319,-6.0727 c 1.5026,-3.34 8.3233,-20.1068 15.1572,-37.2598 z M 619.90203,596.22647 c 79.1531,-16.9276 170.3638,-30.9223 256.9548,-39.4252 l 17.9547,-1.7632 9.3469,-12.9625 c 56.42,-78.2443 120.63527,-158.0318 169.90177,-211.1031 5.6881,-6.1274 10.3419,-11.5999 10.3419,-12.1612 0,-1.13 -22.3585,-22.5186 -42.5,-40.6563 C 894.82513,145.70967 756.23033,80.188971 669.62103,102.15927 c -48.4425,12.2884 -81.0548,51.5712 -98.7545,118.9538 -19.8835,75.6961 -16.8084,186.4654 8.6476,311.5 4.1919,20.5896 14.7673,66.9497 15.5781,68.2906 0.263,0.4349 1.2278,0.5709 2.144,0.3023 0.9162,-0.2687 11.1158,-2.5094 22.6658,-4.9795 z m 1096.25317,-13.1961 c 37.7601,-158.9209 43.0672,-290.7584 15.213,-377.9173 -28.6598,-89.6801 -88.6132,-122.642999 -182.4661,-100.3216 -87.3778,20.7815 -198.1515,91.505 -311.75,199.0369 -8.1125,7.6793 -14.75,14.3944 -14.75,14.9226 0,0.5281 4.8375,6.2357 10.75,12.6835 52.5033,57.2568 114.7923,134.5466 167.1804,207.442 7.2311,10.0618 12.0958,15.9226 13.4492,16.2033 1.1662,0.242 12.0204,1.3915 24.1204,2.5546 47.2256,4.5394 110.3904,13.1392 165.5,22.5325 25.0697,4.273 89.098,16.8459 101,19.8328 3.025,0.7591 5.9491,1.283 6.4979,1.1642 0.5489,-0.1189 2.9137,-8.2789 5.2552,-18.1335 z m -652.1171,-38.4226 c 56.4429,-1.7472 194.817,-0.843 215.614,1.4089 2.0625,0.2233 3.75,0.04 3.75,-0.4067 0,-1.0534 -28.9648,-38.1792 -49.6422,-63.629 -27.8653,-34.2969 -78.4051,-92.3679 -80.3885,-92.3679 -1.9412,0 -53.3694,59.1219 -80.3401,92.3592 -21.5067,26.5036 -49.6292,62.6071 -49.6292,63.7138 0,0.4888 1.9125,0.6699 4.25,0.4026 2.3375,-0.2674 18.7112,-0.9338 36.386,-1.4809 z"
       id="path1" />
  </g>
</svg>
