<?xml version="1.0" encoding="UTF-8" standalone="no"?>
<!-- Created with Inkscape (http://www.inkscape.org/) -->

<svg
   version="1.1"
   id="svg1"
   width="2504.3479"
   height="2505.3914"
   viewBox="0 0 2504.3479 2505.3914"
   xmlns="http://www.w3.org/2000/svg"
   xmlns:svg="http://www.w3.org/2000/svg">
  <defs
     id="defs1" />
  <g
     id="g1">
    <g
       id="g2">
      <path
         style="fill:#cbe5ab"
         d="m 1198.6957,2504.6549 c 1.2913,-0.2487 3.4043,-0.2487 4.6956,0 1.2913,0.2488 0.2348,0.4523 -2.3478,0.4523 -2.5826,0 -3.6391,-0.2035 -2.3478,-0.4523 z m 90.7948,0 c 1.298,-0.2495 3.1762,-0.2401 4.1739,0.021 0.9976,0.2612 -0.064,0.4654 -2.36,0.4538 -2.2957,-0.012 -3.1119,-0.2253 -1.8139,-0.4749 z m -113.2097,-1.0285 c 1.0152,-0.2646 2.4239,-0.2472 3.1304,0.039 0.7065,0.2859 -0.1242,0.5023 -1.8459,0.4811 -1.7218,-0.021 -2.2998,-0.2552 -1.2845,-0.5197 z m 136.154,0.032 c 0.7174,-0.2895 1.8913,-0.2895 2.6087,0 0.7174,0.2895 0.1305,0.5263 -1.3043,0.5263 -1.4348,0 -2.0218,-0.2368 -1.3044,-0.5263 z m -153.3261,-1.0652 c 0.7533,-0.3014 1.6533,-0.2644 2,0.082 0.3468,0.3467 -0.2695,0.5933 -1.3695,0.548 -1.2156,-0.05 -1.4629,-0.2973 -0.6305,-0.6304 z m 170.0218,0.022 c 0.7174,-0.2894 1.8913,-0.2894 2.6087,0 0.7174,0.2895 0.1304,0.5263 -1.3044,0.5263 -1.4348,0 -2.0217,-0.2368 -1.3043,-0.5263 z m -183.587,-1.0652 c 0.7533,-0.3014 1.6533,-0.2644 2,0.082 0.3468,0.3467 -0.2696,0.5934 -1.3696,0.548 -1.2155,-0.05 -1.4628,-0.2973 -0.6304,-0.6304 z m 198.2609,0 c 0.7532,-0.3014 1.6532,-0.2644 2,0.082 0.3467,0.3467 -0.2696,0.5934 -1.3696,0.548 -1.2156,-0.05 -1.4628,-0.2973 -0.6304,-0.6304 z m -210.7826,-1.0435 c 0.7532,-0.3014 1.6532,-0.2643 2,0.082 0.3467,0.3467 -0.2696,0.5934 -1.3696,0.5481 -1.2156,-0.05 -1.4628,-0.2974 -0.6304,-0.6305 z m 223.3043,0 c 0.7533,-0.3014 1.6533,-0.2643 2,0.082 0.3468,0.3467 -0.2695,0.5934 -1.3695,0.5481 -1.2156,-0.05 -1.4629,-0.2974 -0.6305,-0.6305 z m -233.7391,-1.0434 c 0.7533,-0.3015 1.6533,-0.2644 2,0.082 0.3467,0.3468 -0.2696,0.5934 -1.3696,0.5481 -1.2156,-0.05 -1.4628,-0.2973 -0.6304,-0.6304 z m -10.4348,-1.0435 c 0.7533,-0.3015 1.6533,-0.2644 2,0.082 0.3467,0.3467 -0.2696,0.5933 -1.3696,0.548 -1.2156,-0.05 -1.4628,-0.2973 -0.6304,-0.6304 z m 292.1739,-3.1305 c 0.7533,-0.3014 1.6533,-0.2643 2,0.082 0.3468,0.3468 -0.2695,0.5934 -1.3695,0.5481 -1.2156,-0.05 -1.4629,-0.2974 -0.6305,-0.6305 z M 473.54349,2214.5916 c 0.75326,-0.3015 1.65326,-0.2644 2,0.082 0.34674,0.3467 -0.26956,0.5933 -1.36956,0.548 -1.2156,-0.05 -1.46285,-0.2973 -0.63044,-0.6304 z m 21.91305,0 c 0.75326,-0.3015 1.65326,-0.2644 2,0.082 0.34674,0.3467 -0.26957,0.5933 -1.36957,0.548 -1.21559,-0.05 -1.46285,-0.2973 -0.63043,-0.6304 z m -63.58963,-8.4176 c -1.29795,-1.6551 -1.26104,-1.692 0.39397,-0.394 1.00435,0.7877 1.82609,1.6094 1.82609,1.8261 0,0.8588 -0.85689,0.306 -2.22006,-1.4321 z m -9.3913,-8.3479 c -1.29796,-1.655 -1.26105,-1.6919 0.39397,-0.3939 1.00435,0.7876 1.82608,1.6094 1.82608,1.826 0,0.8589 -0.85688,0.3061 -2.22005,-1.4321 z m -8.79939,-7.667 c -0.90315,-1.4613 1.37358,-1.984 2.53682,-0.5823 0.86455,1.0417 0.75443,1.3798 -0.44941,1.3798 -0.877,0 -1.81634,-0.3589 -2.08741,-0.7975 z m 1671.19338,-9.6835 c 0,-0.2166 0.8218,-1.0384 1.8261,-1.826 1.655,-1.298 1.6919,-1.2611 0.394,0.3939 -1.3632,1.7382 -2.2201,2.291 -2.2201,1.4321 z m 14.087,-13.1712 c 1.0388,-1.1478 2.1234,-2.087 2.4104,-2.087 0.2869,0 -0.3282,0.9392 -1.3669,2.087 -1.0388,1.1478 -2.1235,2.087 -2.4104,2.087 -0.287,0 0.3281,-0.9392 1.3669,-2.087 z m -1731.14448,-20.087 -14.59472,-14.8695 14.86957,14.5947 c 13.81314,13.5578 15.34215,15.1444 14.59471,15.1444 -0.15116,0 -6.84247,-6.6913 -14.86956,-14.8696 z m 1763.99958,-11.4782 c 13.0724,-13.3282 14.6231,-14.8206 14.6231,-14.0725 0,0.1515 -6.4565,6.608 -14.3478,14.3478 l -14.3478,14.0725 z m -1794.84719,-20.3479 -2.52972,-2.8695 2.86957,2.5297 c 2.68204,2.3644 3.34809,3.2094 2.52972,3.2094 -0.18692,0 -1.47822,-1.2913 -2.86957,-2.8696 z m 40.85701,1.2174 c 0.0501,-1.2156 0.29733,-1.4628 0.63044,-0.6304 0.30143,0.7533 0.26436,1.6533 -0.0824,2 -0.34674,0.3467 -0.59337,-0.2696 -0.54806,-1.3696 z m 214.09382,-8.2608 c 0.0116,-2.2957 0.22527,-3.1119 0.47486,-1.814 0.2496,1.298 0.24012,3.1763 -0.0211,4.174 -0.26117,0.9976 -0.46538,-0.064 -0.4538,-2.36 z m 136.23686,0.8524 c 0.75326,-0.3015 1.65326,-0.2644 2,0.082 0.34673,0.3467 -0.26957,0.5933 -1.36957,0.548 -1.21559,-0.05 -1.46285,-0.2973 -0.63043,-0.6304 z m 1433.4131,-4.5046 c 1.0387,-1.1478 2.1234,-2.087 2.4104,-2.087 0.2869,0 -0.3282,0.9392 -1.3669,2.087 -1.0388,1.1478 -2.1235,2.087 -2.4104,2.087 -0.287,0 0.3281,-0.9392 1.3669,-2.087 z m -1836.62096,-2.3478 -1.98781,-2.3479 2.34783,1.9879 c 2.20637,1.868 2.82286,2.7078 1.98781,2.7078 -0.19801,0 -1.25453,-1.0565 -2.34783,-2.3478 z m 52.95956,-2.8696 c 0,-1.4348 0.23684,-2.0217 0.52632,-1.3043 0.28947,0.7173 0.28947,1.8913 0,2.6087 -0.28948,0.7173 -0.52632,0.1304 -0.52632,-1.3044 z m 993.0153,0.2663 c 4.762,-0.1937 12.275,-0.1927 16.6956,0 4.4206,0.1952 0.5244,0.3537 -8.6582,0.3524 -9.1826,0 -12.7995,-0.161 -8.0374,-0.3548 z m 83.9504,0.01 c 3.3,-0.2071 8.7,-0.2071 12,0 3.3,0.207 0.6,0.3765 -6,0.3765 -6.6,0 -9.3,-0.1695 -6,-0.3765 z m -646.36958,-0.9852 c 0.75326,-0.3014 1.65326,-0.2644 2,0.082 0.34674,0.3467 -0.26956,0.5933 -1.36956,0.548 -1.21559,-0.05 -1.46285,-0.2973 -0.63044,-0.6304 z m 498.71738,-0.042 c 1.8652,-0.2315 4.9174,-0.2315 6.7826,0 1.8653,0.2314 0.3392,0.4208 -3.3913,0.4208 -3.7304,0 -5.2565,-0.1894 -3.3913,-0.4208 z m 202.9709,0.01 c 1.5862,-0.2398 3.934,-0.2334 5.2174,0.014 1.2834,0.2477 -0.014,0.4439 -2.8839,0.4361 -2.8696,-0.01 -3.9196,-0.2105 -2.3335,-0.4504 z m -245.2174,-1.0435 c 1.5862,-0.2398 3.934,-0.2334 5.2174,0.014 1.2834,0.2477 -0.014,0.4439 -2.8839,0.4361 -2.8696,-0.01 -3.9196,-0.2105 -2.3335,-0.4504 z m 275.4639,0.029 c 1.0044,-0.2624 2.6479,-0.2624 3.6522,0 1.0044,0.2625 0.1826,0.4772 -1.8261,0.4772 -2.0087,0 -2.8304,-0.2147 -1.8261,-0.4772 z m -311.9856,-1.0729 c 1.5861,-0.2399 3.9339,-0.2335 5.2174,0.014 1.2834,0.2477 -0.014,0.4439 -2.884,0.4361 -2.8695,-0.01 -3.9196,-0.2105 -2.3334,-0.4503 z m 334.9422,0.029 c 1.0043,-0.2625 2.6478,-0.2625 3.6521,0 1.0044,0.2624 0.1826,0.4772 -1.8261,0.4772 -2.0087,0 -2.8304,-0.2148 -1.826,-0.4772 z m -722.54355,-1.037 c 0.75326,-0.3015 1.65326,-0.2644 2,0.082 0.34674,0.3468 -0.26956,0.5934 -1.36956,0.5481 -1.2156,-0.05 -1.46286,-0.2973 -0.63044,-0.6304 z m 353.67395,-0.024 c 1.2913,-0.2488 3.4043,-0.2488 4.6956,0 1.2913,0.2487 0.2348,0.4522 -2.3478,0.4522 -2.5826,0 -3.6391,-0.2035 -2.3478,-0.4522 z m 388.1739,0.045 c 0.7174,-0.2895 1.8913,-0.2895 2.6087,0 0.7174,0.2895 0.1304,0.5263 -1.3044,0.5263 -1.4347,0 -2.0217,-0.2368 -1.3043,-0.5263 z m -730.36959,-1.0652 c 0.75326,-0.3015 1.65326,-0.2644 2,0.082 0.34674,0.3467 -0.26956,0.5933 -1.36956,0.548 -1.2156,-0.05 -1.46285,-0.2973 -0.63044,-0.6304 z m 308.29699,-0.036 c 1.5861,-0.2398 3.934,-0.2334 5.2174,0.014 1.2834,0.2476 -0.014,0.4439 -2.8839,0.436 -2.8696,-0.01 -3.9197,-0.2104 -2.3335,-0.4503 z m 438.7683,0.058 c 0.7173,-0.2895 1.8913,-0.2895 2.6086,0 0.7174,0.2895 0.1305,0.5263 -1.3043,0.5263 -1.4348,0 -2.0217,-0.2368 -1.3043,-0.5263 z m -1283.35058,-2.1785 c -1.29795,-1.655 -1.26104,-1.6919 0.39397,-0.3939 1.00435,0.7876 1.82609,1.6094 1.82609,1.826 0,0.8589 -0.85689,0.3061 -2.22006,-1.4321 z m 549.85051,1.1133 c 0.75326,-0.3014 1.65326,-0.2644 2,0.082 0.34674,0.3467 -0.26957,0.5933 -1.36957,0.548 -1.21559,-0.05 -1.46285,-0.2973 -0.63043,-0.6304 z m 260.29697,-0.036 c 1.5861,-0.2398 3.934,-0.2334 5.2174,0.014 1.2834,0.2477 -0.014,0.4439 -2.8839,0.4361 -2.8696,-0.01 -3.9197,-0.2105 -2.3335,-0.4504 z m 488.9204,0.036 c 0.7533,-0.3014 1.6533,-0.2644 2,0.082 0.3468,0.3467 -0.2695,0.5933 -1.3695,0.548 -1.2156,-0.05 -1.4629,-0.2973 -0.6305,-0.6304 z m -732.0652,-1.05 c 1.00435,-0.2624 2.64783,-0.2624 3.65218,0 1.00435,0.2625 0.18261,0.4772 -1.82609,0.4772 -2.00869,0 -2.83043,-0.2147 -1.82609,-0.4772 z m 205.5652,-0.028 c 1.5783,-0.239 4.1609,-0.239 5.7392,0 1.5782,0.2391 0.2869,0.4347 -2.8696,0.4347 -3.1565,0 -4.4478,-0.1956 -2.8696,-0.4347 z m 538.9566,0.056 c 0.7174,-0.2895 1.8913,-0.2895 2.6087,0 0.7174,0.2894 0.1304,0.5263 -1.3044,0.5263 -1.4348,0 -2.0217,-0.2369 -1.3043,-0.5263 z m 544.9565,0.2971 c 0,-0.2167 0.8217,-1.0385 1.8261,-1.8261 1.655,-1.298 1.6919,-1.2611 0.394,0.3939 -1.3632,1.7382 -2.2201,2.291 -2.2201,1.4322 z m -1258.677,-1.4058 c 1.8755,-0.2322 4.69289,-0.2274 6.26087,0.011 1.56798,0.2381 0.0335,0.4281 -3.40999,0.4222 -3.44348,-0.01 -4.72637,-0.2006 -2.85088,-0.4329 z m 125.1987,-0.01 c 2.4391,-0.2197 6.4304,-0.2197 8.8696,0 2.4391,0.2197 0.4435,0.3995 -4.4348,0.3995 -4.8783,0 -6.8739,-0.1798 -4.4348,-0.3995 z m 602.1522,0.051 c 0.7533,-0.3014 1.6533,-0.2643 2,0.082 0.3467,0.3468 -0.2696,0.5934 -1.3696,0.5481 -1.2156,-0.05 -1.4628,-0.2974 -0.6304,-0.6305 z m 11.4783,-1.0434 c 0.7532,-0.3015 1.6532,-0.2644 2,0.082 0.3467,0.3468 -0.2696,0.5934 -1.3696,0.5481 -1.2156,-0.05 -1.4629,-0.2973 -0.6304,-0.6304 z m 10.4347,-1.0435 c 0.7533,-0.3014 1.6533,-0.2644 2,0.082 0.3468,0.3467 -0.2695,0.5933 -1.3695,0.548 -1.2156,-0.05 -1.4629,-0.2973 -0.6305,-0.6304 z m 518.8044,-6.9855 c 0,-0.2167 0.8217,-1.0384 1.8261,-1.8261 1.655,-1.298 1.6919,-1.261 0.394,0.394 -1.3632,1.7381 -2.2201,2.2909 -2.2201,1.4321 z m -1775.47831,-47.606 c 1.03877,-1.1479 2.12346,-2.087 2.41041,-2.087 0.28696,0 -0.32816,0.9391 -1.36693,2.087 -1.03877,1.1478 -2.12345,2.0869 -2.41041,2.0869 -0.28695,0 0.32817,-0.9391 1.36693,-2.0869 z m 153.85688,-2.8696 -3.596,-3.9131 3.91304,3.596 c 2.15218,1.9778 3.91305,3.7387 3.91305,3.9131 0,0.7968 -0.88301,0.046 -4.23009,-3.596 z m -148.63948,-2.3478 c 1.03876,-1.1479 2.12345,-2.087 2.41041,-2.087 0.28695,0 -0.32817,0.9391 -1.36694,2.087 -1.03876,1.1478 -2.12345,2.0869 -2.4104,2.0869 -0.28696,0 0.32816,-0.9391 1.36693,-2.0869 z m 63.97826,-28.8868 c 0.75326,-0.3014 1.65326,-0.2643 2,0.082 0.34674,0.3468 -0.26957,0.5934 -1.36957,0.5481 -1.21559,-0.05 -1.46285,-0.2974 -0.63043,-0.6305 z m 16.63043,0.022 c 0.7174,-0.2895 1.89131,-0.2895 2.6087,0 0.71739,0.2894 0.13043,0.5263 -1.30435,0.5263 -1.43478,0 -2.02174,-0.2369 -1.30435,-0.5263 z M 2182.9566,1895.6061 c 0,-0.2167 0.8217,-1.0385 1.8261,-1.8261 1.655,-1.298 1.6919,-1.2611 0.3939,0.394 -1.3631,1.7381 -2.22,2.2909 -2.22,1.4321 z M 2195.4783,1884 c 1.3479,-1.4347 2.6856,-2.6087 2.9725,-2.6087 0.287,0 -0.5811,1.174 -1.929,2.6087 -1.3479,1.4348 -2.6855,2.6087 -2.9725,2.6087 -0.2869,0 0.5811,-1.1739 1.929,-2.6087 z m -1698.91573,-6.5217 c -1.29796,-1.655 -1.26105,-1.6919 0.39397,-0.394 1.73817,1.3632 2.29093,2.2201 1.43211,2.2201 -0.21668,0 -1.03842,-0.8218 -1.82608,-1.8261 z m -19.77197,-19.8261 -2.52972,-2.8696 2.86957,2.5298 c 2.68204,2.3644 3.34809,3.2094 2.52972,3.2094 -0.18692,0 -1.47822,-1.2913 -2.86957,-2.8696 z m 1752.6008,-7.5652 c 1.0387,-1.1478 2.1234,-2.087 2.4104,-2.087 0.2869,0 -0.3282,0.9392 -1.367,2.087 -1.0387,1.1478 -2.1234,2.087 -2.4104,2.087 -0.2869,0 0.3282,-0.9392 1.367,-2.087 z m 8.8695,-9.7853 c 0,-0.2167 0.8218,-1.0384 1.8261,-1.8261 1.655,-1.2979 1.6919,-1.261 0.394,0.394 -1.3632,1.7382 -2.2201,2.2909 -2.2201,1.4321 z m -557.2174,-155.4782 c 0,-0.2167 0.8218,-1.0385 1.8261,-1.8261 1.655,-1.298 1.6919,-1.2611 0.394,0.3939 -1.3632,1.7382 -2.2201,2.291 -2.2201,1.4322 z m 33.3913,-29.2174 c 0,-0.2167 0.8218,-1.0385 1.8261,-1.8261 1.655,-1.298 1.6919,-1.2611 0.394,0.3939 -1.3632,1.7382 -2.2201,2.291 -2.2201,1.4322 z m 13.0435,-12.1278 c 1.0388,-1.1478 2.1235,-2.087 2.4104,-2.087 0.287,0 -0.3281,0.9392 -1.3669,2.087 -1.0388,1.1478 -2.1235,2.087 -2.4104,2.087 -0.287,0 0.3281,-0.9392 1.3669,-2.087 z m 14.087,-13.0435 c 1.3479,-1.4348 2.6855,-2.6087 2.9725,-2.6087 0.2869,0 -0.5811,1.1739 -1.9291,2.6087 -1.3479,1.4348 -2.6855,2.6087 -2.9724,2.6087 -0.287,0 0.5811,-1.1739 1.929,-2.6087 z m 36,-34.9565 c 8.5943,-8.6087 15.8608,-15.6522 16.1478,-15.6522 0.2869,0 -6.51,7.0435 -15.1044,15.6522 -8.5943,8.6087 -15.8608,15.6522 -16.1478,15.6522 -0.2869,0 6.51,-7.0435 15.1044,-15.6522 z M 364.33868,1565.2174 c 0,-1.4348 0.23685,-2.0217 0.52632,-1.3043 0.28947,0.7174 0.28947,1.8913 0,2.6087 -0.28947,0.7174 -0.52632,0.1304 -0.52632,-1.3044 z m 1447.13962,-4.6956 c 1.3479,-1.4348 2.6855,-2.6087 2.9725,-2.6087 0.287,0 -0.5811,1.1739 -1.929,2.6087 -1.3479,1.4348 -2.6855,2.6087 -2.9725,2.6087 -0.2869,0 0.5811,-1.1739 1.929,-2.6087 z m 14.087,-15.1305 c 1.0387,-1.1478 2.1234,-2.0869 2.4104,-2.0869 0.2869,0 -0.3282,0.9391 -1.367,2.0869 -1.0387,1.1479 -2.1234,2.087 -2.4104,2.087 -0.2869,0 0.3282,-0.9391 1.367,-2.087 z M 363.53256,1530.7826 c 0,-7.1739 0.16671,-10.1087 0.37047,-6.5217 0.20376,3.587 0.20376,9.4565 0,13.0435 -0.20376,3.5869 -0.37047,0.6522 -0.37047,-6.5218 z m 1470.90224,4.8235 c 0,-0.2167 0.8218,-1.0385 1.8261,-1.8261 1.655,-1.298 1.6919,-1.2611 0.394,0.3939 -1.3632,1.7382 -2.2201,2.291 -2.2201,1.4322 z M 364.37735,1494.7826 c 0.0213,-1.7217 0.25513,-2.2997 0.51969,-1.2844 0.26457,1.0152 0.24717,2.4239 -0.0387,3.1304 -0.28583,0.7065 -0.5023,-0.1242 -0.48103,-1.846 z m 0.92243,-15.7391 c 0.0501,-1.2156 0.29733,-1.4628 0.63044,-0.6304 0.30143,0.7532 0.26436,1.6532 -0.0824,2 -0.34674,0.3467 -0.59337,-0.2696 -0.54806,-1.3696 z m 1.04348,-11.4783 c 0.0501,-1.2155 0.29733,-1.4628 0.63044,-0.6304 0.30143,0.7533 0.26435,1.6533 -0.0824,2 -0.34674,0.3468 -0.59337,-0.2696 -0.54806,-1.3696 z m 1394.00464,1.2583 c 0,-0.2167 0.8217,-1.0385 1.8261,-1.8261 1.655,-1.298 1.6919,-1.2611 0.3939,0.3939 -1.3631,1.7382 -2.22,2.291 -2.22,1.4322 z m 7.3043,-6.2609 c 0,-0.2167 0.8218,-1.0384 1.8261,-1.8261 1.655,-1.298 1.6919,-1.261 0.394,0.394 -1.3632,1.7381 -2.2201,2.2909 -2.2201,1.4321 z m 8.3479,-7.3044 c 0,-0.2166 0.8217,-1.0384 1.826,-1.8261 1.6551,-1.2979 1.692,-1.261 0.394,0.394 -1.3632,1.7382 -2.22,2.291 -2.22,1.4321 z m -1407.56988,-5.4321 c 0.0501,-1.2156 0.29733,-1.4628 0.63043,-0.6304 0.30143,0.7532 0.26436,1.6532 -0.0824,2 -0.34674,0.3467 -0.59336,-0.2696 -0.54805,-1.3696 z m 1416.96118,-2.9157 c 0,-0.2167 0.8217,-1.0384 1.826,-1.8261 1.6551,-1.2979 1.692,-1.261 0.394,0.394 -1.3632,1.7382 -2.22,2.2909 -2.22,1.4321 z m 10.9565,-10.0408 c 1.0387,-1.1478 2.1234,-2.087 2.4104,-2.087 0.2869,0 -0.3282,0.9392 -1.3669,2.087 -1.0388,1.1478 -2.1235,2.087 -2.4105,2.087 -0.2869,0 0.3282,-0.9392 1.367,-2.087 z m 12,-10.9565 c 1.3479,-1.4348 2.6855,-2.6087 2.9725,-2.6087 0.2869,0 -0.5811,1.1739 -1.929,2.6087 -1.348,1.4348 -2.6856,2.6087 -2.9725,2.6087 -0.287,0 0.5811,-1.1739 1.929,-2.6087 z m 14.6087,-13.37 c 0,-0.1796 1.5261,-1.7057 3.3913,-3.3913 l 3.3913,-3.0648 -3.0648,3.3913 c -2.8568,3.1612 -3.7178,3.8709 -3.7178,3.0648 z m 669.9954,-27.4126 c 0.05,-1.2156 0.2973,-1.4629 0.6305,-0.6305 0.3014,0.7533 0.2643,1.6533 -0.082,2 -0.3468,0.3468 -0.5934,-0.2695 -0.5481,-1.3695 z M 4.256293,1368.4348 c 0.05007,-1.2156 0.297329,-1.4628 0.6304348,-0.6304 0.3014302,0.7532 0.2643593,1.6532 -0.08238,2 -0.3467392,0.3467 -0.5933639,-0.2696 -0.5480548,-1.3696 z M 2495.039,1364.2609 c 0.05,-1.2156 0.2973,-1.4629 0.6304,-0.6304 0.3014,0.7532 0.2644,1.6532 -0.082,2 -0.3467,0.3467 -0.5933,-0.2696 -0.548,-1.3696 z M 3.2128147,1355.9131 c 0.05007,-1.2156 0.2973291,-1.4629 0.6304348,-0.6305 0.3014303,0.7533 0.2643593,1.6533 -0.08238,2 -0.3467392,0.3468 -0.5933639,-0.2695 -0.5480548,-1.3695 z M 1884.5218,1350.7826 c 1.9469,-2.0087 3.7746,-3.6521 4.0616,-3.6521 0.2869,0 -1.0712,1.6434 -3.0181,3.6521 -1.9469,2.0087 -3.7746,3.6522 -4.0616,3.6522 -0.2869,0 1.0712,-1.6435 3.0181,-3.6522 z m 611.5607,2 c 0.05,-1.2156 0.2973,-1.4628 0.6304,-0.6304 0.3014,0.7533 0.2643,1.6533 -0.082,2 -0.3467,0.3467 -0.5934,-0.2696 -0.548,-1.3696 z M 2.1693364,1341.3044 c 0.05007,-1.2156 0.2973291,-1.4629 0.6304349,-0.6305 0.3014302,0.7533 0.2643592,1.6533 -0.08238,2 -0.3467392,0.3468 -0.5933639,-0.2695 -0.5480549,-1.3695 z M 2439.7346,1340.2609 c 0.05,-1.2156 0.2974,-1.4629 0.6305,-0.6304 0.3014,0.7532 0.2643,1.6532 -0.082,2 -0.3468,0.3467 -0.5934,-0.2696 -0.5481,-1.3696 z m 57.3913,-1.0435 c 0.05,-1.2156 0.2974,-1.4628 0.6305,-0.6304 0.3014,0.7532 0.2643,1.6532 -0.082,2 -0.3468,0.3467 -0.5934,-0.2696 -0.5481,-1.3696 z m -597.9954,-4.0869 c 1.3479,-1.4348 2.6855,-2.6087 2.9725,-2.6087 0.2869,0 -0.5811,1.1739 -1.929,2.6087 -1.3479,1.4347 -2.6856,2.6087 -2.9725,2.6087 -0.287,0 0.5811,-1.174 1.929,-2.6087 z m 541.6476,-5.3044 c 0.05,-1.2156 0.2973,-1.4628 0.6304,-0.6304 0.3015,0.7532 0.2644,1.6532 -0.082,2 -0.3468,0.3467 -0.5934,-0.2696 -0.5481,-1.3696 z m 57.3913,-1.0435 c 0.05,-1.2156 0.2973,-1.4628 0.6304,-0.6304 0.3015,0.7533 0.2644,1.6533 -0.082,2 -0.3468,0.3467 -0.5934,-0.2696 -0.5481,-1.3696 z M 1.246903,1323.6522 c 0.021266,-1.7217 0.255129,-2.2998 0.5196961,-1.2845 0.264567,1.0153 0.2471677,2.424 -0.038665,3.1304 -0.2858328,0.7065 -0.5022967,-0.1242 -0.4810311,-1.8459 z M 1910.087,1323.1305 c 1.0388,-1.1479 2.1235,-2.087 2.4104,-2.087 0.287,0 -0.3281,0.9391 -1.3669,2.087 -1.0388,1.1478 -2.1235,2.0869 -2.4104,2.0869 -0.287,0 0.3281,-0.9391 1.3669,-2.0869 z m 531.7346,-3.7392 c 0.05,-1.2156 0.2973,-1.4628 0.6304,-0.6304 0.3014,0.7533 0.2644,1.6533 -0.082,2 -0.3467,0.3467 -0.5933,-0.2696 -0.548,-1.3696 z m 57.3913,-2.0869 c 0.05,-1.2156 0.2973,-1.4629 0.6304,-0.6305 0.3015,0.7533 0.2644,1.6533 -0.082,2 -0.3467,0.3468 -0.5933,-0.2695 -0.548,-1.3695 z m -581.2998,-2.9157 c 0,-0.2167 0.8217,-1.0385 1.8261,-1.8261 1.655,-1.298 1.6919,-1.2611 0.394,0.3939 -1.3632,1.7382 -2.2201,2.291 -2.2201,1.4322 z m 524.952,-7.5191 c 0.05,-1.2156 0.2973,-1.4629 0.6304,-0.6304 0.3014,0.7532 0.2644,1.6532 -0.082,2 -0.3467,0.3467 -0.5933,-0.2696 -0.548,-1.3696 z m 57.3913,-2.087 c 0.05,-1.2156 0.2973,-1.4628 0.6304,-0.6304 0.3014,0.7533 0.2644,1.6533 -0.082,2 -0.3467,0.3467 -0.5933,-0.2696 -0.548,-1.3696 z M 0.28420603,1299.1305 c 0,-2.5826 0.20349497,-3.6392 0.45221104,-2.3479 0.24871607,1.2913 0.24871607,3.4044 0,4.6957 -0.24871607,1.2913 -0.45221104,0.2348 -0.45221104,-2.3478 z M 2443.9909,1293.9131 c 0,-1.4348 0.2369,-2.0218 0.5263,-1.3044 0.2895,0.7174 0.2895,1.8913 0,2.6087 -0.2894,0.7174 -0.5263,0.1305 -0.5263,-1.3043 z m 57.3913,-3.1305 c 0,-1.4347 0.2369,-2.0217 0.5263,-1.3043 0.2895,0.7174 0.2895,1.8913 0,2.6087 -0.2894,0.7174 -0.5263,0.1304 -0.5263,-1.3044 z m -56.3478,-13.5652 c 0,-1.4348 0.2368,-2.0217 0.5263,-1.3043 0.2895,0.7174 0.2895,1.8913 0,2.6087 -0.2895,0.7174 -0.5263,0.1304 -0.5263,-1.3044 z m 57.43,-3.6522 c 0.021,-1.7217 0.2551,-2.2997 0.5197,-1.2844 0.2645,1.0152 0.2471,2.4239 -0.039,3.1304 -0.2858,0.7065 -0.5023,-0.1242 -0.481,-1.846 z m -56.3092,-16.1739 c 0,-2.0087 0.2147,-2.8304 0.4772,-1.8261 0.2625,1.0044 0.2625,2.6479 0,3.6522 -0.2625,1.0044 -0.4772,0.1826 -0.4772,-1.8261 z m 57.4124,-7.8261 c 0.012,-2.2956 0.2252,-3.1119 0.4748,-1.8139 0.2496,1.298 0.2402,3.1763 -0.021,4.1739 -0.2612,0.9977 -0.4654,-0.064 -0.4538,-2.36 z m -56.3126,-19.826 c 0.01,-2.8696 0.2105,-3.9197 0.4504,-2.3335 0.2398,1.5861 0.2334,3.934 -0.014,5.2174 -0.2477,1.2834 -0.4439,-0.014 -0.4361,-2.8839 z M 0.28420603,1215.6522 c 0,-2.5826 0.20349497,-3.6391 0.45221104,-2.3478 0.24871607,1.2913 0.24871607,3.4043 0,4.6956 -0.24871607,1.2913 -0.45221104,0.2348 -0.45221104,-2.3478 z M 1.246903,1191.1305 c 0.021266,-1.7218 0.255129,-2.2998 0.5196961,-1.2845 0.264567,1.0152 0.2471677,2.4239 -0.038665,3.1304 -0.2858328,0.7065 -0.5022967,-0.1242 -0.4810311,-1.8459 z m 1.0048133,-17.2174 c 0,-1.4348 0.2368421,-2.0218 0.5263158,-1.3044 0.2894737,0.7174 0.2894737,1.8913 0,2.6087 -0.2894737,0.7174 -0.5263158,0.1305 -0.5263158,-1.3043 z m 0.9610984,-14.1739 c 0.05007,-1.2156 0.2973291,-1.4629 0.6304348,-0.6305 0.3014303,0.7533 0.2643593,1.6533 -0.08238,2 -0.3467392,0.3468 -0.5933639,-0.2695 -0.5480548,-1.3695 z M 2503.5886,1148.8696 c 0,-2.5826 0.2035,-3.6391 0.4522,-2.3478 0.2488,1.2913 0.2488,3.4043 0,4.6956 -0.2487,1.2913 -0.4522,0.2348 -0.4522,-2.3478 z M 4.256293,1147.2174 c 0.05007,-1.2156 0.297329,-1.4628 0.6304348,-0.6304 0.3014302,0.7532 0.2643593,1.6532 -0.08238,2 -0.3467392,0.3467 -0.5933639,-0.2696 -0.5480548,-1.3696 z m 2443.013007,-5.6522 c 0,-3.1565 0.1956,-4.4478 0.4347,-2.8695 0.2391,1.5782 0.2391,4.1608 0,5.7391 -0.2391,1.5783 -0.4347,0.287 -0.4347,-2.8696 z M 5.2997713,1135.7392 c 0.05007,-1.2156 0.297329,-1.4629 0.6304348,-0.6305 0.3014302,0.7533 0.2643593,1.6533 -0.08238,2 -0.3467392,0.3468 -0.5933639,-0.2695 -0.5480548,-1.3695 z M 2502.4644,1123.3044 c 0.021,-1.7218 0.2551,-2.2998 0.5197,-1.2845 0.2645,1.0153 0.2471,2.4239 -0.039,3.1304 -0.2858,0.7065 -0.5023,-0.1242 -0.481,-1.8459 z M 7.3867279,1115.9131 c 0.05007,-1.2156 0.297329,-1.4629 0.6304348,-0.6305 0.3014302,0.7533 0.2643593,1.6533 -0.08238,2 -0.3467391,0.3468 -0.5933638,-0.2695 -0.5480548,-1.3695 z m 2438.7297721,-4.087 c 0.021,-1.7217 0.2552,-2.2997 0.5197,-1.2845 0.2646,1.0153 0.2472,2.424 -0.039,3.1305 -0.2859,0.7064 -0.5023,-0.1243 -0.4811,-1.846 z M 2501.3822,1104 c 0,-1.4348 0.2369,-2.0217 0.5263,-1.3043 0.2895,0.7174 0.2895,1.8913 0,2.6087 -0.2894,0.7174 -0.5263,0.1304 -0.5263,-1.3044 z m -1974.42566,-0.3939 c 0,-0.2167 0.82174,-1.0385 1.82608,-1.8261 1.65502,-1.298 1.69193,-1.2611 0.39398,0.3939 -1.36317,1.7382 -2.22006,2.291 -2.22006,1.4322 z m 1918.07786,-13.1713 c 0,-1.4348 0.2368,-2.0217 0.5263,-1.3043 0.2895,0.7173 0.2895,1.8913 0,2.6087 -0.2895,0.7173 -0.5263,0.1304 -0.5263,-1.3044 z m -1902.94743,-3.1304 c 2.24165,-2.2957 4.3105,-4.1739 4.59746,-4.1739 0.28696,0 -1.31233,1.8782 -3.55398,4.1739 -2.24164,2.2956 -4.3105,4.1739 -4.59746,4.1739 -0.28695,0 1.31234,-1.8783 3.55398,-4.1739 z m 1958.25173,0 c 0,-1.4348 0.2369,-2.0218 0.5264,-1.3044 0.2894,0.7174 0.2894,1.8913 0,2.6087 -0.2895,0.7174 -0.5264,0.1305 -0.5264,-1.3043 z m -56.3478,-13.5652 c 0,-1.4348 0.2369,-2.0218 0.5263,-1.3044 0.2895,0.7174 0.2895,1.8913 0,2.6087 -0.2894,0.7174 -0.5263,0.1304 -0.5263,-1.3043 z m 55.3044,0 c 0,-1.4348 0.2368,-2.0218 0.5263,-1.3044 0.2895,0.7174 0.2895,1.8913 0,2.6087 -0.2895,0.7174 -0.5263,0.1304 -0.5263,-1.3043 z m -1936.8605,-6.7827 c 1.9469,-2.0087 3.77461,-3.6521 4.06156,-3.6521 0.28696,0 -1.07118,1.6434 -3.01808,3.6521 -1.94691,2.0087 -3.77461,3.6522 -4.06157,3.6522 -0.28695,0 1.07118,-1.6435 3.01809,-3.6522 z m 1935.7346,-6.3478 c 0.05,-1.2156 0.2973,-1.4628 0.6304,-0.6304 0.3015,0.7532 0.2644,1.6532 -0.082,2 -0.3468,0.3467 -0.5934,-0.2696 -0.5481,-1.3696 z m -55.3043,-3.1304 c 0.05,-1.2156 0.2973,-1.4629 0.6304,-0.6305 0.3014,0.7533 0.2644,1.6533 -0.082,2 -0.3467,0.3468 -0.5933,-0.2695 -0.548,-1.3695 z m -1866.86508,-2.9157 c 0,-0.2167 0.82174,-1.0384 1.82608,-1.8261 1.65502,-1.298 1.69193,-1.2611 0.39397,0.394 -1.36316,1.7381 -2.22005,2.2909 -2.22005,1.4321 z m 1921.12588,-6.4756 c 0.05,-1.2156 0.2974,-1.4629 0.6305,-0.6305 0.3014,0.7533 0.2643,1.6533 -0.082,2 -0.3468,0.3468 -0.5934,-0.2695 -0.5481,-1.3695 z m -55.3043,-4.1739 c 0.05,-1.2156 0.2973,-1.4629 0.6304,-0.6305 0.3014,0.7533 0.2644,1.6533 -0.082,2 -0.3467,0.3468 -0.5933,-0.2695 -0.548,-1.3695 z m -1.0435,-12.5218 c 0.05,-1.2156 0.2973,-1.4628 0.6304,-0.6304 0.3015,0.7533 0.2644,1.6533 -0.082,2 -0.3468,0.3467 -0.5934,-0.2696 -0.5481,-1.3696 z m -1.0435,-11.4782 c 0.05,-1.2156 0.2974,-1.4629 0.6305,-0.6305 0.3014,0.7533 0.2643,1.6533 -0.082,2 -0.3468,0.3468 -0.5934,-0.2695 -0.5481,-1.3695 z m 54.2609,-4.1739 c 0.05,-1.2156 0.2973,-1.4629 0.6304,-0.6305 0.3015,0.7533 0.2644,1.6533 -0.082,2 -0.3468,0.3468 -0.5934,-0.2695 -0.5481,-1.3695 z m -55.3044,-7.3044 c 0.05,-1.2156 0.2974,-1.4628 0.6305,-0.6304 0.3014,0.7532 0.2643,1.6532 -0.082,2 -0.3467,0.3467 -0.5934,-0.2696 -0.5481,-1.3696 z m -1.0434,-10.43478 c 0.05,-1.21559 0.2973,-1.46285 0.6304,-0.63043 0.3014,0.75326 0.2644,1.65326 -0.082,2 -0.3467,0.34674 -0.5933,-0.26957 -0.548,-1.36957 z m -1.0435,-10.43478 c 0.05,-1.21559 0.2973,-1.46285 0.6304,-0.63044 0.3015,0.75326 0.2644,1.65326 -0.082,2 -0.3467,0.34674 -0.5933,-0.26956 -0.548,-1.36956 z m 53.2174,-8.34783 c 0.05,-1.21559 0.2973,-1.46285 0.6304,-0.63043 0.3014,0.75326 0.2644,1.65326 -0.082,2 -0.3467,0.34674 -0.5933,-0.26957 -0.548,-1.36957 z M 1054.7609,859.11329 c 0.7533,-0.30143 1.6533,-0.26436 2,0.0824 0.3467,0.34674 -0.2696,0.59336 -1.3696,0.54806 -1.2156,-0.0501 -1.4628,-0.29733 -0.6304,-0.63044 z m 11.4783,-1.04348 c 0.7532,-0.30143 1.6532,-0.26436 2,0.0824 0.3467,0.34674 -0.2696,0.59337 -1.3696,0.54806 -1.2156,-0.0501 -1.4629,-0.29733 -0.6304,-0.63044 z m 11.4782,-1.04348 c 0.7533,-0.30143 1.6533,-0.26436 2,0.0824 0.3468,0.34674 -0.2695,0.59337 -1.3695,0.54806 -1.2156,-0.0501 -1.4629,-0.29733 -0.6305,-0.63044 z m 12.5218,-1.04347 c 0.7532,-0.30143 1.6532,-0.26436 2,0.0824 0.3467,0.34673 -0.2696,0.59336 -1.3696,0.54805 -1.2156,-0.0501 -1.4629,-0.29733 -0.6304,-0.63043 z m 12.4565,-1.02174 c 0.7174,-0.28948 1.8913,-0.28948 2.6087,0 0.7174,0.28947 0.1304,0.52631 -1.3044,0.52631 -1.4347,0 -2.0217,-0.23684 -1.3043,-0.52631 z m 14.6087,-1.04348 c 0.7174,-0.28948 1.8913,-0.28948 2.6087,0 0.7174,0.28947 0.1304,0.52631 -1.3044,0.52631 -1.4348,0 -2.0217,-0.23684 -1.3043,-0.52631 z m 17.7391,-1.04348 c 0.7174,-0.28947 1.8913,-0.28947 2.6087,0 0.7174,0.28947 0.1304,0.52632 -1.3043,0.52632 -1.4348,0 -2.0218,-0.23685 -1.3044,-0.52632 z m 17.2373,-1.07552 c 1.0152,-0.26457 2.4239,-0.24717 3.1304,0.0387 0.7065,0.28583 -0.1242,0.5023 -1.8459,0.48103 -1.7218,-0.0213 -2.2998,-0.25513 -1.2845,-0.51969 z m 17.7391,-1.04348 c 1.0153,-0.26457 2.424,-0.24717 3.1304,0.0387 0.7065,0.28584 -0.1242,0.5023 -1.8459,0.48103 -1.7218,-0.0213 -2.2998,-0.25512 -1.2845,-0.51969 z m 19.8261,-1.04348 c 1.0153,-0.26457 2.4239,-0.24717 3.1304,0.0387 0.7065,0.28584 -0.1242,0.5023 -1.8459,0.48104 -1.7218,-0.0213 -2.2998,-0.25513 -1.2845,-0.5197 z m 19.8062,-1.03965 c 1.0044,-0.26247 2.6478,-0.26247 3.6522,0 1.0043,0.26246 0.1826,0.4772 -1.8261,0.4772 -2.0087,0 -2.8304,-0.21474 -1.8261,-0.4772 z m 20.8894,-1.04731 c 1.0153,-0.26456 2.424,-0.24716 3.1305,0.0387 0.7064,0.28583 -0.1242,0.5023 -1.846,0.48103 -1.7217,-0.0213 -2.2997,-0.25513 -1.2845,-0.5197 z m 18.7826,-1.04347 c 1.0153,-0.26457 2.424,-0.24717 3.1305,0.0387 0.7064,0.28583 -0.1242,0.5023 -1.846,0.48103 -1.7217,-0.0213 -2.2997,-0.25513 -1.2845,-0.51969 z m 19.2845,-1.01144 c 0.7174,-0.28947 1.8913,-0.28947 2.6087,0 0.7174,0.28948 0.1305,0.52632 -1.3043,0.52632 -1.4348,0 -2.0218,-0.23684 -1.3044,-0.52632 z m 16.6957,-1.04348 c 0.7174,-0.28947 1.8913,-0.28947 2.6087,0 0.7174,0.28948 0.1304,0.52632 -1.3044,0.52632 -1.4347,0 -2.0217,-0.23684 -1.3043,-0.52632 z m 16.7609,-1.06521 c 0.7532,-0.30143 1.6532,-0.26436 2,0.0824 0.3467,0.34674 -0.2696,0.59336 -1.3696,0.54805 -1.2156,-0.0501 -1.4629,-0.29733 -0.6304,-0.63043 z m 14.5434,-1.02174 c 0.7174,-0.28948 1.8913,-0.28948 2.6087,0 0.7174,0.28947 0.1305,0.52631 -1.3043,0.52631 -1.4348,0 -2.0218,-0.23684 -1.3044,-0.52631 z m 13.6305,-1.06522 c 0.7532,-0.30143 1.6532,-0.26436 2,0.0824 0.3467,0.34674 -0.2696,0.59336 -1.3696,0.54805 -1.2156,-0.0501 -1.4628,-0.29732 -0.6304,-0.63043 z m 12.4565,-1.02174 c 0.7174,-0.28947 1.8913,-0.28947 2.6087,0 0.7174,0.28947 0.1304,0.52632 -1.3044,0.52632 -1.4347,0 -2.0217,-0.23685 -1.3043,-0.52632 z m 12.5869,-1.06522 c 0.7533,-0.30143 1.6533,-0.26436 2,0.0824 0.3468,0.34674 -0.2695,0.59337 -1.3695,0.54806 -1.2156,-0.0501 -1.4629,-0.29733 -0.6305,-0.63044 z m 11.4783,-1.04348 c 0.7533,-0.30143 1.6533,-0.26435 2,0.0824 0.3467,0.34674 -0.2696,0.59337 -1.3696,0.54806 -1.2155,-0.0501 -1.4628,-0.29733 -0.6304,-0.63044 z m 9.3913,-1.04347 c 0.7533,-0.30143 1.6533,-0.26436 2,0.0824 0.3468,0.34674 -0.2696,0.59336 -1.3696,0.54805 -1.2155,-0.0501 -1.4628,-0.29733 -0.6304,-0.63043 z m 28.1739,-3.13044 c 0.7533,-0.30143 1.6533,-0.26436 2,0.0824 0.3468,0.34674 -0.2695,0.59337 -1.3695,0.54806 -1.2156,-0.0501 -1.4629,-0.29733 -0.6305,-0.63044 z m 645.0653,-292.89855 c 0,-0.21669 0.8217,-1.03842 1.8261,-1.82609 1.655,-1.29795 1.6919,-1.26104 0.3939,0.39397 -1.3631,1.73817 -2.22,2.29094 -2.22,1.43212 z m 10.4347,-9.39131 c 0,-0.21668 0.8218,-1.03842 1.8261,-1.82608 1.655,-1.29796 1.692,-1.26105 0.394,0.39397 -1.3632,1.73817 -2.2201,2.29093 -2.2201,1.43211 z m 12.5218,-11.4108 c 0,-0.17958 1.5261,-1.70567 3.3913,-3.3913 l 3.3913,-3.0648 -3.0648,3.39131 c -2.8568,3.16117 -3.7178,3.87094 -3.7178,3.06479 z m 48,-48.19523 c 1.3479,-1.43478 2.6855,-2.60869 2.9725,-2.60869 0.2869,0 -0.5811,1.17391 -1.929,2.60869 -1.3479,1.43479 -2.6856,2.6087 -2.9725,2.6087 -0.287,0 0.5811,-1.17391 1.929,-2.6087 z m 11.4783,-12.39397 c 0,-0.21668 0.8217,-1.03842 1.826,-1.82608 1.6551,-1.29796 1.692,-1.26105 0.394,0.39397 -1.3632,1.73817 -2.22,2.29093 -2.22,1.43211 z m 8.3478,-9.3913 c 0,-0.21669 0.8217,-1.03843 1.8261,-1.82609 1.655,-1.29795 1.6919,-1.26104 0.3939,0.39397 -1.3631,1.73817 -2.22,2.29094 -2.22,1.43212 z M 300.52175,444.12778 c 0,-0.21669 0.82174,-1.03843 1.82609,-1.82609 1.65501,-1.29795 1.69192,-1.26104 0.39397,0.39397 -1.36317,1.73817 -2.22006,2.29094 -2.22006,1.43212 z m 6.26087,-7.30435 c 0,-0.21668 0.82174,-1.03842 1.82608,-1.82609 1.65502,-1.29795 1.69193,-1.26104 0.39398,0.39397 -1.36317,1.73818 -2.22006,2.29094 -2.22006,1.43212 z m 7.30435,-8.34783 c 0,-0.21668 0.82173,-1.03842 1.82608,-1.82608 1.65502,-1.29796 1.69193,-1.26105 0.39397,0.39397 -1.36316,1.73817 -2.22005,2.29093 -2.22005,1.43211 z m 9.3913,-10.43478 c 0,-0.21668 0.82174,-1.03842 1.82609,-1.82609 1.65501,-1.29795 1.69192,-1.26104 0.39397,0.39397 -1.36317,1.73818 -2.22006,2.29094 -2.22006,1.43212 z m 12,-13.17125 c 1.03877,-1.14782 2.12345,-2.08695 2.41041,-2.08695 0.28696,0 -0.32816,0.93913 -1.36693,2.08695 -1.03877,1.14783 -2.12345,2.08696 -2.41041,2.08696 -0.28696,0 0.32816,-0.93913 1.36693,-2.08696 z m 17.73913,-18.78261 c 2.24165,-2.29565 4.3105,-4.17391 4.59746,-4.17391 0.28695,0 -1.31234,1.87826 -3.55398,4.17391 -2.24164,2.29566 -4.3105,4.17392 -4.59746,4.17392 -0.28695,0 1.31234,-1.87826 3.55398,-4.17392 z m 1783.2717,-25.30434 -6.2282,-6.52174 6.5218,6.2282 c 3.5869,3.42552 6.5217,6.3603 6.5217,6.52174 0,0.77103 -1.0298,-0.17006 -6.8153,-6.2282 z M 386.04336,353.47827 c 4.32414,-4.60716 5.261,-5.43558 5.261,-4.65204 0,0.16746 -2.23044,2.39789 -4.95652,4.95652 l -4.95652,4.65204 z m 1725.87774,-16.17392 -2.5297,-2.86956 2.8695,2.52972 c 1.5783,1.39134 2.8696,2.68265 2.8696,2.86956 0,0.81838 -0.845,0.15233 -3.2094,-2.52972 z M 404.86958,335.47827 c 1.34791,-1.43478 2.68552,-2.6087 2.97248,-2.6087 0.28696,0 -0.5811,1.17392 -1.929,2.6087 -1.34791,1.43478 -2.68553,2.60869 -2.97249,2.60869 -0.28695,0 0.5811,-1.17391 1.92901,-2.60869 z m 1693.98782,-10.17392 -1.9878,-2.34782 2.3479,1.98781 c 2.2063,1.86806 2.8228,2.70784 1.9878,2.70784 -0.198,0 -1.2546,-1.05652 -2.3479,-2.34783 z m -1682.50956,-0.1331 c 0,-0.21668 0.82174,-1.03842 1.82609,-1.82608 1.65501,-1.29796 1.69192,-1.26105 0.39397,0.39397 -1.36317,1.73817 -2.22006,2.29093 -2.22006,1.43211 z m 1672.56256,-8.73646 c -1.2979,-1.65502 -1.261,-1.69192 0.394,-0.39397 1.7382,1.36317 2.2909,2.22006 1.4321,2.22006 -0.2167,0 -1.0384,-0.82174 -1.8261,-1.82609 z m -1663.17126,0.38864 c 0,-0.21669 0.82174,-1.03843 1.82609,-1.82609 1.65501,-1.29795 1.69192,-1.26104 0.39397,0.39397 -1.36317,1.73817 -2.22006,2.29094 -2.22006,1.43212 z m 8.34783,-7.30435 c 0,-0.21668 0.82174,-1.03842 1.82609,-1.82609 1.65501,-1.29795 1.69192,-1.26104 0.39397,0.39397 -1.36317,1.73817 -2.22006,2.29094 -2.22006,1.43212 z m 14.6087,-12.52174 c 0,-0.21668 0.82173,-1.03842 1.82608,-1.82609 1.65502,-1.29795 1.69193,-1.26104 0.39397,0.39397 -1.36317,1.73818 -2.22005,2.29094 -2.22005,1.43212 z M 1115.2826,7.6350116 c 0.7533,-0.3014302 1.6533,-0.2643593 2,0.08238 0.3468,0.3467391 -0.2695,0.5933638 -1.3695,0.5480549 -1.2156,-0.05007 -1.4629,-0.297329 -0.6305,-0.6304349 z m 20.8696,-2.0869566 c 0.7533,-0.3014302 1.6533,-0.2643592 2,0.08238 0.3467,0.3467391 -0.2696,0.5933639 -1.3696,0.5480549 -1.2156,-0.05007 -1.4628,-0.297329 -0.6304,-0.6304349 z m 238.9565,0 c 0.7533,-0.3014302 1.6533,-0.2643592 2,0.08238 0.3468,0.3467391 -0.2695,0.5933639 -1.3695,0.5480549 -1.2156,-0.05007 -1.4629,-0.297329 -0.6305,-0.6304349 z M 1146.587,4.5045768 c 0.7533,-0.3014303 1.6533,-0.2643593 2,0.08238 0.3467,0.3467392 -0.2696,0.5933639 -1.3696,0.548055 -1.2156,-0.05007 -1.4628,-0.2973291 -0.6304,-0.630435 z m 217.0435,0 c 0.7532,-0.3014303 1.6532,-0.2643593 2,0.08238 0.3467,0.3467392 -0.2696,0.5933639 -1.3696,0.548055 -1.2156,-0.05007 -1.4628,-0.2973291 -0.6304,-0.630435 z M 1159.1087,3.4610985 c 0.7533,-0.3014302 1.6533,-0.2643593 2,0.08238 0.3468,0.3467392 -0.2695,0.5933639 -1.3695,0.548055 -1.2156,-0.05007 -1.4629,-0.297329 -0.6305,-0.630435 z m 192,0 c 0.7533,-0.3014302 1.6533,-0.2643593 2,0.08238 0.3468,0.3467392 -0.2695,0.5933639 -1.3695,0.548055 -1.2156,-0.05007 -1.4629,-0.297329 -0.6305,-0.630435 z M 1173.6522,2.4393593 c 0.7174,-0.2894737 1.8913,-0.2894737 2.6087,0 0.7174,0.2894737 0.1304,0.5263158 -1.3043,0.5263158 -1.4348,0 -2.0218,-0.2368421 -1.3044,-0.5263158 z m 161.7391,0 c 0.7174,-0.2894737 1.8913,-0.2894737 2.6087,0 0.7174,0.2894737 0.1305,0.5263158 -1.3043,0.5263158 -1.4348,0 -2.0217,-0.2368421 -1.3044,-0.5263158 z M 1191.9329,1.3638358 c 1.0153,-0.264567 2.424,-0.2471678 3.1305,0.038665 0.7064,0.2858328 -0.1242,0.5022968 -1.846,0.481031 -1.7217,-0.021266 -2.2997,-0.255129 -1.2845,-0.519696 z m 125.2174,0 c 1.0153,-0.264567 2.424,-0.2471678 3.1305,0.038665 0.7064,0.2858328 -0.1242,0.5022968 -1.846,0.481031 -1.7217,-0.021266 -2.2997,-0.255129 -1.2845,-0.519696 z M 1216.4348,0.30706122 c 1.2913,-0.24871607 3.4044,-0.24871607 4.6957,0 1.2913,0.24871607 0.2348,0.45221103 -2.3479,0.45221103 -2.5826,0 -3.6391,-0.20349496 -2.3478,-0.45221103 z m 73.5796,-0.0123634 c 1.5861,-0.23984805 3.934,-0.23343847 5.2174,0.0142435 1.2834,0.24768199 -0.014,0.4439213 -2.8839,0.43608736 -2.8696,-0.007834 -3.9197,-0.21048283 -2.3335,-0.45033086 z"
         id="path8" />
      <path
         style="fill:#b7db8a"
         d="m 1206,2504.7003 c 0.7174,-0.2895 1.8913,-0.2895 2.6087,0 0.7174,0.2895 0.1305,0.5263 -1.3043,0.5263 -1.4348,0 -2.0218,-0.2368 -1.3044,-0.5263 z m 78.2609,0 c 0.7174,-0.2895 1.8913,-0.2895 2.6087,0 0.7174,0.2895 0.1304,0.5263 -1.3043,0.5263 -1.4348,0 -2.0218,-0.2368 -1.3044,-0.5263 z m 25.1087,-1.0652 c 0.7533,-0.3015 1.6533,-0.2644 2,0.082 0.3467,0.3468 -0.2696,0.5934 -1.3696,0.5481 -1.2156,-0.05 -1.4628,-0.2973 -0.6304,-0.6304 z m 792.1957,-338.8116 c 0,-0.2167 0.8217,-1.0385 1.8261,-1.8261 1.655,-1.298 1.6919,-1.2611 0.3939,0.394 -1.3631,1.7381 -2.22,2.2909 -2.22,1.4321 z m -1509.83073,-61.78 c 0.0501,-1.2156 0.29733,-1.4628 0.63044,-0.6304 0.30143,0.7532 0.26436,1.6532 -0.0824,2 -0.34674,0.3467 -0.59337,-0.2696 -0.54806,-1.3696 z m 764.01893,-3.2705 c 1.5862,-0.2398 3.934,-0.2334 5.2174,0.014 1.2834,0.2477 -0.014,0.444 -2.8839,0.4361 -2.8696,-0.01 -3.9196,-0.2104 -2.3335,-0.4503 z m 118.4326,0.011 c 1.298,-0.2496 3.1763,-0.2401 4.1739,0.021 0.9977,0.2612 -0.064,0.4654 -2.36,0.4538 -2.2956,-0.012 -3.1119,-0.2252 -1.8139,-0.4748 z m -173.7314,-1.0286 c 1.0153,-0.2646 2.4239,-0.2472 3.1304,0.039 0.7065,0.2859 -0.1242,0.5023 -1.8459,0.4811 -1.7218,-0.021 -2.2998,-0.2551 -1.2845,-0.5197 z m 217.5453,0.032 c 0.7174,-0.2894 1.8913,-0.2894 2.6087,0 0.7174,0.2895 0.1305,0.5263 -1.3043,0.5263 -1.4348,0 -2.0217,-0.2368 -1.3044,-0.5263 z m -259.2845,-1.0755 c 1.0153,-0.2646 2.424,-0.2472 3.1305,0.039 0.7065,0.2858 -0.1242,0.5023 -1.846,0.481 -1.7217,-0.021 -2.2997,-0.2551 -1.2845,-0.5197 z m 287.5237,0.01 c 0.7532,-0.3014 1.6532,-0.2643 2,0.082 0.3467,0.3467 -0.2696,0.5934 -1.3696,0.548 -1.2156,-0.05 -1.4628,-0.2973 -0.6304,-0.6304 z m -323.5435,-1.0217 c 0.7174,-0.2895 1.8913,-0.2895 2.6087,0 0.7174,0.2894 0.1304,0.5263 -1.3044,0.5263 -1.4347,0 -2.0217,-0.2369 -1.3043,-0.5263 z m -33.8932,-1.0756 c 1.0153,-0.2645 2.424,-0.2471 3.1304,0.039 0.7065,0.2858 -0.1242,0.5023 -1.8459,0.481 -1.7217,-0.021 -2.2998,-0.2551 -1.2845,-0.5197 z m 398.1323,0.01 c 0.7533,-0.3015 1.6533,-0.2644 2,0.082 0.3468,0.3468 -0.2695,0.5934 -1.3695,0.5481 -1.2156,-0.05 -1.4629,-0.2973 -0.6305,-0.6304 z m -432.0652,-1.0218 c 0.7174,-0.2895 1.8913,-0.2895 2.6087,0 0.7174,0.2895 0.1304,0.5263 -1.3044,0.5263 -1.4347,0 -2.0217,-0.2368 -1.3043,-0.5263 z m -34.9367,-1.0755 c 1.0153,-0.2646 2.424,-0.2472 3.1305,0.039 0.7064,0.2858 -0.1242,0.5023 -1.846,0.481 -1.7217,-0.021 -2.2997,-0.2551 -1.2845,-0.5197 z m -231.15026,-1.0114 c 0.71739,-0.2895 1.8913,-0.2895 2.60869,0 0.71739,0.2894 0.13044,0.5263 -1.30435,0.5263 -1.43478,0 -2.02174,-0.2369 -1.30434,-0.5263 z m 192.52176,-0.028 c 1.0043,-0.2624 2.6478,-0.2624 3.6522,0 1.0043,0.2625 0.1826,0.4772 -1.8261,0.4772 -2.0087,0 -2.8305,-0.2147 -1.8261,-0.4772 z m -157.03134,-1.0622 c 1.298,-0.2495 3.17626,-0.2401 4.17392,0.021 0.99765,0.2612 -0.0643,0.4654 -2.36,0.4538 -2.29565,-0.012 -3.11191,-0.2253 -1.81392,-0.4749 z m 102.77044,-0.01 c 1.5783,-0.2391 4.1609,-0.2391 5.7391,0 1.5783,0.239 0.287,0.4347 -2.8695,0.4347 -3.1565,0 -4.4479,-0.1957 -2.8696,-0.4347 z m 717.6522,-463.9944 c 0,-0.2167 0.8217,-1.0385 1.8261,-1.8261 1.655,-1.298 1.6919,-1.2611 0.394,0.3939 -1.3632,1.7382 -2.2201,2.291 -2.2201,1.4322 z m -1381.40049,-82.04 c 0,-1.4347 0.23684,-2.0217 0.52631,-1.3043 0.28947,0.7174 0.28947,1.8913 0,2.6087 -0.28947,0.7174 -0.52631,0.1304 -0.52631,-1.3044 z m 0.0387,-29.7391 c 0.0213,-1.7217 0.25513,-2.2998 0.5197,-1.2845 0.26456,1.0153 0.24716,2.424 -0.0387,3.1305 -0.28583,0.7064 -0.5023,-0.1243 -0.48103,-1.846 z M 1819.8261,1415.6061 c 0,-0.2167 0.8218,-1.0385 1.8261,-1.8261 1.655,-1.298 1.692,-1.2611 0.394,0.3939 -1.3632,1.7382 -2.2201,2.291 -2.2201,1.4322 z m 34.4348,-33.5191 c 4.8529,-4.8783 9.0583,-8.8696 9.3453,-8.8696 0.2869,0 -3.4489,3.9913 -8.3018,8.8696 -4.8529,4.8782 -9.0583,8.8696 -9.3452,8.8696 -0.287,0 3.4488,-3.9914 8.3017,-8.8696 z M 1.1258582,1319.3913 c 0.05007,-1.2156 0.297329,-1.4628 0.6304348,-0.6304 0.3014302,0.7533 0.2643592,1.6533 -0.08238,2 -0.3467391,0.3467 -0.5933639,-0.2696 -0.5480548,-1.3696 z m -0.96109847,-26.5217 c 0,-1.4348 0.23684211,-2.0217 0.52631581,-1.3044 0.28947369,0.7174 0.28947369,1.8913 0,2.6087 -0.2894737,0.7174 -0.52631581,0.1305 -0.52631581,-1.3043 z M 2502.3433,1269.3044 c 0.05,-1.2156 0.2974,-1.4629 0.6305,-0.6305 0.3014,0.7533 0.2643,1.6533 -0.082,2 -0.3468,0.3468 -0.5934,-0.2695 -0.5481,-1.3695 z M 2445.9955,1262 c 0.05,-1.2156 0.2973,-1.4628 0.6304,-0.6304 0.3015,0.7533 0.2644,1.6533 -0.082,2 -0.3468,0.3467 -0.5934,-0.2696 -0.5481,-1.3696 z m 57.5123,-18.6956 c 0.021,-1.7218 0.2552,-2.2998 0.5197,-1.2845 0.2646,1.0153 0.2472,2.424 -0.039,3.1304 -0.2859,0.7065 -0.5023,-0.1242 -0.4811,-1.8459 z m -56.3864,-6.7826 c 0,-1.4348 0.2368,-2.0218 0.5263,-1.3044 0.2894,0.7174 0.2894,1.8913 0,2.6087 -0.2895,0.7174 -0.5263,0.1304 -0.5263,-1.3043 z M 0.16475973,1221.9131 c 0,-1.4348 0.23684211,-2.0218 0.52631581,-1.3044 0.28947369,0.7174 0.28947369,1.8913 0,2.6087 -0.2894737,0.7174 -0.52631581,0.1305 -0.52631581,-1.3043 z m 0.96109847,-26.6957 c 0.05007,-1.2156 0.297329,-1.4628 0.6304348,-0.6304 0.3014302,0.7532 0.2643592,1.6532 -0.08238,2 -0.3467391,0.3467 -0.5933639,-0.2696 -0.5480548,-1.3696 z M 2503.5078,1155.6522 c 0.021,-1.7217 0.2552,-2.2998 0.5197,-1.2845 0.2646,1.0153 0.2472,2.424 -0.039,3.1304 -0.2859,0.7065 -0.5023,-0.1242 -0.4811,-1.8459 z m -56.3864,-21.3913 c 0,-1.4348 0.2368,-2.0217 0.5263,-1.3044 0.2894,0.7174 0.2894,1.8914 0,2.6087 -0.2895,0.7174 -0.5263,0.1305 -0.5263,-1.3043 z m 55.2219,-6.8696 c 0.05,-1.2156 0.2974,-1.4628 0.6305,-0.6304 0.3014,0.7533 0.2643,1.6533 -0.082,2 -0.3468,0.3467 -0.5934,-0.2696 -0.5481,-1.3696 z m -56.3478,-19.8261 c 0.05,-1.2156 0.2973,-1.4628 0.6304,-0.6304 0.3015,0.7533 0.2644,1.6533 -0.082,2 -0.3468,0.3467 -0.5934,-0.2696 -0.5481,-1.3696 z m 55.3043,0 c 0.05,-1.2156 0.2974,-1.4628 0.6305,-0.6304 0.3014,0.7533 0.2643,1.6533 -0.082,2 -0.3467,0.3467 -0.5934,-0.2696 -0.5481,-1.3696 z m -56.3478,-20.8695 c 0.05,-1.2156 0.2973,-1.4629 0.6305,-0.6305 0.3014,0.7533 0.2643,1.6533 -0.082,2 -0.3468,0.3468 -0.5934,-0.2695 -0.5481,-1.3695 z M 2443.9085,1070 c 0.05,-1.2156 0.2974,-1.4628 0.6305,-0.6304 0.3014,0.7532 0.2643,1.6532 -0.082,2 -0.3467,0.3467 -0.5934,-0.2696 -0.5481,-1.3696 z M 1131.9783,852.85242 c 0.7533,-0.30143 1.6533,-0.26436 2,0.0824 0.3467,0.34674 -0.2696,0.59336 -1.3696,0.54806 -1.2156,-0.0501 -1.4628,-0.29733 -0.6304,-0.63044 z m 34.4348,-2.08696 c 0.7532,-0.30143 1.6532,-0.26436 2,0.0824 0.3467,0.34674 -0.2696,0.59337 -1.3696,0.54806 -1.2156,-0.0501 -1.4628,-0.29733 -0.6304,-0.63044 z m 60.5217,-3.13043 c 0.7533,-0.30143 1.6533,-0.26436 2,0.0824 0.3468,0.34674 -0.2695,0.59336 -1.3695,0.54805 -1.2156,-0.0501 -1.4629,-0.29732 -0.6305,-0.63043 z m 38.6087,-2.08696 c 0.7533,-0.30143 1.6533,-0.26436 2,0.0824 0.3468,0.34674 -0.2695,0.59337 -1.3695,0.54806 -1.2156,-0.0501 -1.4629,-0.29733 -0.6305,-0.63044 z m 813.0653,-331.50725 c 0,-0.21668 0.8217,-1.03842 1.826,-1.82608 1.6551,-1.29796 1.692,-1.26105 0.394,0.39397 -1.3632,1.73817 -2.22,2.29093 -2.22,1.43211 z m 36.5217,-36.52174 c 0,-0.21668 0.8217,-1.03842 1.8261,-1.82608 1.655,-1.29796 1.6919,-1.26105 0.394,0.39397 -1.3632,1.73817 -2.2201,2.29093 -2.2201,1.43211 z M 363.13045,376.17392 c 3.11731,-3.15652 5.90262,-5.73913 6.18957,-5.73913 0.28696,0 -2.02878,2.58261 -5.1461,5.73913 -3.11731,3.15652 -5.90262,5.73913 -6.18958,5.73913 -0.28695,0 2.02879,-2.58261 5.14611,-5.73913 z m 12.52174,-12.52174 c 3.11731,-3.15652 5.90262,-5.73913 6.18957,-5.73913 0.28696,0 -2.02878,2.58261 -5.1461,5.73913 -3.11731,3.15652 -5.90262,5.73913 -6.18958,5.73913 -0.28695,0 2.02879,-2.58261 5.14611,-5.73913 z M 1196.6739,1.3741419 c 0.7533,-0.3014302 1.6533,-0.2643593 2,0.08238 0.3468,0.3467391 -0.2695,0.5933638 -1.3695,0.5480549 -1.2156,-0.05007 -1.4629,-0.297329 -0.6305,-0.6304349 z m 116.8696,0 c 0.7533,-0.3014302 1.6533,-0.2643593 2,0.08238 0.3468,0.3467391 -0.2695,0.5933638 -1.3695,0.5480549 -1.2156,-0.05007 -1.4629,-0.297329 -0.6305,-0.6304349 z m -88.7487,-1.06867497 c 1.298,-0.24959293 3.1763,-0.24011677 4.1739,0.0210581 0.9977,0.2611749 -0.064,0.4653873 -2.36,0.45380533 -2.2956,-0.011582 -3.1119,-0.22527052 -1.8139,-0.47486343 z m 57.9009,0.0187151 c 1.0043,-0.26246353 2.6478,-0.26246353 3.6522,0 1.0043,0.26246353 0.1826,0.47720642 -1.8261,0.47720642 -2.0087,0 -2.8305,-0.21474289 -1.8261,-0.47720642 z"
         id="path7" />
      <path
         style="fill:#a7d370"
         d="m 1210.1739,2504.7003 c 0.7174,-0.2895 1.8914,-0.2895 2.6087,0 0.7174,0.2895 0.1305,0.5263 -1.3043,0.5263 -1.4348,0 -2.0217,-0.2368 -1.3044,-0.5263 z m 69.4112,-0.032 c 1.0153,-0.2645 2.424,-0.2471 3.1304,0.039 0.7065,0.2858 -0.1242,0.5023 -1.8459,0.481 -1.7217,-0.021 -2.2998,-0.2551 -1.2845,-0.5197 z m -96.4764,-1.0331 c 0.7533,-0.3015 1.6533,-0.2644 2,0.082 0.3468,0.3468 -0.2695,0.5934 -1.3695,0.5481 -1.2156,-0.05 -1.4629,-0.2973 -0.6305,-0.6304 z m -18.7826,-1.0435 c 0.7533,-0.3014 1.6533,-0.2644 2,0.082 0.3468,0.3467 -0.2695,0.5933 -1.3695,0.548 -1.2156,-0.05 -1.4629,-0.2973 -0.6305,-0.6304 z m 940.3696,-340.8986 c 0,-0.2167 0.8218,-1.0384 1.8261,-1.8261 1.655,-1.2979 1.6919,-1.261 0.394,0.394 -1.3632,1.7382 -2.2201,2.2909 -2.2201,1.4321 z M 591.73457,2115.5653 c 0.0501,-1.2156 0.29733,-1.4629 0.63044,-0.6305 0.30143,0.7533 0.26436,1.6533 -0.0824,2 -0.34674,0.3468 -0.59337,-0.2695 -0.54806,-1.3695 z m 1563.04813,-3.9592 c 0,-0.2167 0.8217,-1.0384 1.8261,-1.8261 1.655,-1.298 1.6919,-1.2611 0.3939,0.394 -1.3631,1.7381 -2.22,2.2909 -2.22,1.4321 z m -808.4205,-11.8331 c 1.5862,-0.2398 3.934,-0.2334 5.2174,0.014 1.2834,0.2477 -0.014,0.444 -2.8839,0.4361 -2.8696,-0.01 -3.9196,-0.2104 -2.3335,-0.4503 z m 135.1283,0.011 c 1.298,-0.2496 3.1762,-0.2401 4.1739,0.021 0.9976,0.2612 -0.064,0.4654 -2.36,0.4538 -2.2957,-0.012 -3.1119,-0.2252 -1.8139,-0.4748 z m -187.3165,-1.0248 c 1.0043,-0.2625 2.6478,-0.2625 3.6521,0 1.0044,0.2625 0.1826,0.4772 -1.8261,0.4772 -2.0087,0 -2.8304,-0.2147 -1.826,-0.4772 z m 228,0.028 c 0.7173,-0.2894 1.8913,-0.2894 2.6087,0 0.7173,0.2895 0.1304,0.5263 -1.3044,0.5263 -1.4348,0 -2.0217,-0.2368 -1.3043,-0.5263 z M 1254,2097.7438 c 0.7174,-0.2895 1.8913,-0.2895 2.6087,0 0.7174,0.2894 0.1305,0.5263 -1.3043,0.5263 -1.4348,0 -2.0218,-0.2369 -1.3044,-0.5263 z m 295.3696,-0.022 c 0.7533,-0.3014 1.6533,-0.2643 2,0.082 0.3468,0.3467 -0.2696,0.5934 -1.3696,0.548 -1.2155,-0.05 -1.4628,-0.2973 -0.6304,-0.6304 z m -331.3497,-1.0538 c 1.0153,-0.2645 2.424,-0.2471 3.1304,0.039 0.7065,0.2858 -0.1242,0.5023 -1.8459,0.481 -1.7218,-0.021 -2.2998,-0.2551 -1.2845,-0.5197 z m -33.9329,-1.0114 c 0.7174,-0.2895 1.8913,-0.2895 2.6087,0 0.7174,0.2895 0.1304,0.5263 -1.3044,0.5263 -1.4347,0 -2.0217,-0.2368 -1.3043,-0.5263 z m -33.3913,-1.0435 c 0.7174,-0.2895 1.8913,-0.2895 2.6087,0 0.7174,0.2895 0.1304,0.5263 -1.3044,0.5263 -1.4347,0 -2.0217,-0.2368 -1.3043,-0.5263 z m -35.4783,-1.0435 c 0.7174,-0.2894 1.8913,-0.2894 2.6087,0 0.7174,0.2895 0.1305,0.5264 -1.3043,0.5264 -1.4348,0 -2.0218,-0.2369 -1.3044,-0.5264 z m -222.19563,-1.0652 c 0.75326,-0.3014 1.65326,-0.2643 2,0.082 0.34673,0.3467 -0.26957,0.5934 -1.36957,0.5481 -1.21559,-0.05 -1.46285,-0.2974 -0.63043,-0.6305 z m 182.02173,-0.01 c 1.0044,-0.2624 2.6478,-0.2624 3.6522,0 1.0043,0.2625 0.1826,0.4772 -1.8261,0.4772 -2.0087,0 -2.8304,-0.2147 -1.8261,-0.4772 z m -143.99999,-1.0434 c 1.00434,-0.2625 2.64782,-0.2625 3.65217,0 1.00435,0.2624 0.18261,0.4772 -1.82609,0.4772 -2.00869,0 -2.83043,-0.2148 -1.82608,-0.4772 z m 86.62309,-0.029 c 1.5861,-0.2399 3.9339,-0.2335 5.2173,0.014 1.2835,0.2477 -0.014,0.4439 -2.8839,0.4361 -2.8695,-0.01 -3.9196,-0.2105 -2.3334,-0.4503 z m 1195.0291,-223.5991 c 3.4076,-3.4435 6.4303,-6.2608 6.7173,-6.2608 0.287,0 -2.2663,2.8173 -5.6738,6.2608 -3.4076,3.4435 -6.4303,6.2609 -6.7173,6.2609 -0.2869,0 2.2663,-2.8174 5.6738,-6.2609 z m -464.8696,-243.5244 c 0,-0.2167 0.8218,-1.0384 1.8261,-1.8261 1.655,-1.2979 1.6919,-1.261 0.394,0.394 -1.3632,1.7382 -2.2201,2.2909 -2.2201,1.4321 z m 56.3479,-56.3478 c 0,-0.2167 0.8217,-1.0384 1.8261,-1.8261 1.655,-1.298 1.6919,-1.261 0.3939,0.394 -1.3631,1.7381 -2.22,2.2909 -2.22,1.4321 z M 363.29521,1549.5653 c 0,-1.4348 0.23684,-2.0218 0.52631,-1.3044 0.28947,0.7174 0.28947,1.8913 0,2.6087 -0.28947,0.7174 -0.52631,0.1304 -0.52631,-1.3043 z m 0.0387,-39.1305 c 0.0213,-1.7217 0.25513,-2.2997 0.5197,-1.2845 0.26456,1.0153 0.24716,2.424 -0.0387,3.1305 -0.28583,0.7064 -0.5023,-0.1242 -0.48103,-1.846 z M 1842.7827,1393.5652 c 1.3479,-1.4347 2.6855,-2.6086 2.9724,-2.6086 0.287,0 -0.5811,1.1739 -1.929,2.6086 -1.3479,1.4348 -2.6855,2.6087 -2.9724,2.6087 -0.287,0 0.5811,-1.1739 1.929,-2.6087 z m 24.5217,-24.5217 c 2.2416,-2.2956 4.3105,-4.1739 4.5975,-4.1739 0.2869,0 -1.3124,1.8783 -3.554,4.1739 -2.2417,2.2957 -4.3105,4.1739 -4.5975,4.1739 -0.2869,0 1.3124,-1.8782 3.554,-4.1739 z M 2.1693364,1336.087 c 0.05007,-1.2156 0.2973291,-1.4629 0.6304349,-0.6304 0.3014302,0.7532 0.2643592,1.6532 -0.08238,2 -0.3467392,0.3467 -0.5933639,-0.2696 -0.5480549,-1.3696 z m -1.92724662,-48.4348 c 0,-2.0087 0.21474289,-2.8304 0.47720643,-1.8261 0.26246353,1.0044 0.26246353,2.6478 0,3.6522 -0.26246354,1.0043 -0.47720643,0.1826 -0.47720643,-1.8261 z M 2502.3433,1266.1739 c 0.05,-1.2156 0.2974,-1.4628 0.6305,-0.6304 0.3014,0.7533 0.2643,1.6533 -0.082,2 -0.3468,0.3467 -0.5934,-0.2696 -0.5481,-1.3696 z m -56.3478,-1.0434 c 0.05,-1.2156 0.2973,-1.4629 0.6304,-0.6305 0.3015,0.7533 0.2644,1.6533 -0.082,2 -0.3468,0.3468 -0.5934,-0.2695 -0.5481,-1.3695 z m 1.1645,-23.9131 c 0.021,-1.7217 0.2551,-2.2997 0.5197,-1.2845 0.2646,1.0153 0.2472,2.424 -0.039,3.1305 -0.2859,0.7064 -0.5023,-0.1242 -0.4811,-1.846 z m 56.3478,-3.1304 c 0.021,-1.7218 0.2552,-2.2998 0.5197,-1.2845 0.2646,1.0153 0.2472,2.424 -0.039,3.1304 -0.2859,0.7065 -0.5023,-0.1242 -0.4811,-1.8459 z M 0.24208978,1227.1305 c 0,-2.0087 0.21474289,-2.8305 0.47720643,-1.8261 0.26246353,1.0043 0.26246353,2.6478 0,3.6521 -0.26246354,1.0044 -0.47720643,0.1827 -0.47720643,-1.826 z m 0.88376842,-28.7826 c 0.05007,-1.2156 0.297329,-1.4629 0.6304348,-0.6305 0.3014302,0.7533 0.2643592,1.6533 -0.08238,2 -0.3467391,0.3468 -0.5933639,-0.2695 -0.5480548,-1.3695 z M 2503.5078,1160.8696 c 0.021,-1.7217 0.2552,-2.2998 0.5197,-1.2845 0.2646,1.0153 0.2472,2.424 -0.039,3.1304 -0.2859,0.7065 -0.5023,-0.1242 -0.4811,-1.8459 z m -56.4688,-30.3478 c 0.05,-1.2156 0.2973,-1.4629 0.6304,-0.6305 0.3014,0.7533 0.2644,1.6533 -0.082,2 -0.3467,0.3468 -0.5933,-0.2695 -0.548,-1.3695 z m 55.3043,0 c 0.05,-1.2156 0.2974,-1.4629 0.6305,-0.6305 0.3014,0.7533 0.2643,1.6533 -0.082,2 -0.3468,0.3468 -0.5934,-0.2695 -0.5481,-1.3695 z m -56.3478,-26.087 c 0.05,-1.2156 0.2973,-1.4628 0.6304,-0.6304 0.3015,0.7532 0.2644,1.6532 -0.082,2 -0.3468,0.3467 -0.5934,-0.2696 -0.5481,-1.3696 z M 568.69567,1060.8234 c 0,-0.2166 0.82174,-1.0384 1.82609,-1.826 1.65501,-1.298 1.69192,-1.2611 0.39397,0.3939 -1.36317,1.7382 -2.22006,2.291 -2.22006,1.4321 z M 1184.1522,849.72199 c 0.7533,-0.30143 1.6533,-0.26436 2,0.0824 0.3467,0.34673 -0.2696,0.59336 -1.3696,0.54805 -1.2155,-0.0501 -1.4628,-0.29733 -0.6304,-0.63043 z m 19.8261,-1.04348 c 0.7533,-0.30143 1.6533,-0.26436 2,0.0824 0.3467,0.34674 -0.2696,0.59336 -1.3696,0.54805 -1.2156,-0.0501 -1.4628,-0.29733 -0.6304,-0.63043 z m 19.8261,-1.04348 c 0.7532,-0.30143 1.6532,-0.26436 2,0.0824 0.3467,0.34674 -0.2696,0.59336 -1.3696,0.54805 -1.2156,-0.0501 -1.4628,-0.29732 -0.6304,-0.63043 z m 19.8261,-1.04348 c 0.7532,-0.30143 1.6532,-0.26436 2,0.0824 0.3467,0.34674 -0.2696,0.59336 -1.3696,0.54806 -1.2156,-0.0501 -1.4628,-0.29733 -0.6304,-0.63044 z M 2083.3044,509.2174 c 1.0388,-1.14782 2.1235,-2.08695 2.4104,-2.08695 0.287,0 -0.3281,0.93913 -1.3669,2.08695 -1.0388,1.14783 -2.1235,2.08696 -2.4104,2.08696 -0.287,0 0.3281,-0.93913 1.3669,-2.08696 z m 29.2174,-29.21739 c 1.0388,-1.14783 2.1235,-2.08696 2.4104,-2.08696 0.287,0 -0.3282,0.93913 -1.3669,2.08696 -1.0388,1.14783 -2.1235,2.08696 -2.4104,2.08696 -0.287,0 0.3281,-0.93913 1.3669,-2.08696 z m 5.606,-136.43479 c -1.2979,-1.65501 -1.261,-1.69192 0.394,-0.39397 1.7382,1.36317 2.2909,2.22006 1.4321,2.22006 -0.2167,0 -1.0384,-0.82174 -1.8261,-1.82609 z M 398.60871,341.86691 c 0,-0.21669 0.82174,-1.03843 1.82608,-1.82609 1.65502,-1.29795 1.69193,-1.26104 0.39398,0.39397 -1.36317,1.73817 -2.22006,2.29093 -2.22006,1.43212 z M 1199.8044,1.3741419 c 0.7532,-0.3014302 1.6532,-0.2643593 2,0.08238 0.3467,0.3467391 -0.2696,0.5933638 -1.3696,0.5480549 -1.2156,-0.05007 -1.4628,-0.297329 -0.6304,-0.6304349 z m 110.6087,0 c 0.7532,-0.3014302 1.6532,-0.2643593 2,0.08238 0.3467,0.3467391 -0.2696,0.5933638 -1.3696,0.5480549 -1.2156,-0.05007 -1.4628,-0.297329 -0.6304,-0.6304349 z m -78.3139,-1.06867497 c 1.298,-0.24959293 3.1762,-0.24011677 4.1739,0.0210581 0.9976,0.2611749 -0.064,0.4653873 -2.36,0.45380533 -2.2957,-0.011582 -3.1119,-0.22527052 -1.8139,-0.47486343 z m 43.826,0 c 1.298,-0.24959293 3.1763,-0.24011677 4.174,0.0210581 0.9976,0.2611749 -0.064,0.4653873 -2.36,0.45380533 -2.2957,-0.011582 -3.1119,-0.22527052 -1.814,-0.47486343 z"
         id="path6" />
      <path
         style="fill:#93c94f"
         d="m 1214.3479,2504.7003 c 0.7174,-0.2895 1.8913,-0.2895 2.6087,0 0.7173,0.2895 0.1304,0.5263 -1.3044,0.5263 -1.4348,0 -2.0217,-0.2368 -1.3043,-0.5263 z m 60.0198,-0.032 c 1.0153,-0.2645 2.424,-0.2471 3.1305,0.039 0.7064,0.2858 -0.1242,0.5023 -1.846,0.481 -1.7217,-0.021 -2.2997,-0.2551 -1.2845,-0.5197 z m 29.7845,-1.0331 c 0.7533,-0.3015 1.6533,-0.2644 2,0.082 0.3468,0.3468 -0.2696,0.5934 -1.3696,0.5481 -1.2155,-0.05 -1.4628,-0.2973 -0.6304,-0.6304 z M 482.88175,2215.6099 c 1.29799,-0.2496 3.17625,-0.2402 4.17391,0.021 0.99766,0.2612 -0.0643,0.4654 -2.35999,0.4538 -2.29566,-0.012 -3.11192,-0.2252 -1.81392,-0.4748 z m -64.96869,-22.2185 c -0.3547,-0.574 -0.14763,-1.0435 0.46015,-1.0435 0.60779,0 1.10506,0.4695 1.10506,1.0435 0,0.5739 -0.20707,1.0434 -0.46015,1.0434 -0.25309,0 -0.75037,-0.4695 -1.10506,-1.0434 z m -7.93874,-7.5653 c -0.85525,-0.7174 -2.21837,-2.2434 -3.02915,-3.3913 -0.81078,-1.1478 0.034,-0.7078 1.8773,0.9779 1.8433,1.6856 3.35146,3.2117 3.35146,3.3913 0,0.6132 -0.64408,0.3269 -2.19961,-0.9779 z m 148.28657,0.9779 c 0,-0.1796 1.52608,-1.7057 3.3913,-3.3913 l 3.39131,-3.0648 -3.0648,3.3913 c -2.85681,3.1611 -3.71781,3.8709 -3.71781,3.0648 z m 1549.56521,-28.2414 c 0,-0.2167 0.8218,-1.0384 1.8261,-1.8261 1.6551,-1.2979 1.692,-1.261 0.394,0.394 -1.3632,1.7382 -2.2201,2.2909 -2.2201,1.4321 z m -1762.01219,-34.3017 -1.98781,-2.3478 2.34782,1.9878 c 2.20638,1.8681 2.82286,2.7078 1.98782,2.7078 -0.19801,0 -1.25453,-1.0565 -2.34783,-2.3478 z M 2152.174,2114.087 c 1.0387,-1.1478 2.1234,-2.087 2.4104,-2.087 0.2869,0 -0.3282,0.9392 -1.3669,2.087 -1.0388,1.1478 -2.1235,2.087 -2.4105,2.087 -0.2869,0 0.3282,-0.9392 1.367,-2.087 z m -814.6957,-14.3016 c 1.2913,-0.2487 3.4043,-0.2487 4.6957,0 1.2913,0.2487 0.2347,0.4522 -2.3479,0.4522 -2.5826,0 -3.6391,-0.2035 -2.3478,-0.4522 z m 151.3165,0 c 1.298,-0.2496 3.1763,-0.2401 4.1739,0.021 0.9977,0.2612 -0.064,0.4654 -2.36,0.4538 -2.2956,-0.012 -3.1119,-0.2252 -1.8139,-0.4748 z m -200.8817,-1.0248 c 1.0043,-0.2625 2.6478,-0.2625 3.6522,0 1.0043,0.2625 0.1826,0.4772 -1.8261,0.4772 -2.0087,0 -2.8305,-0.2147 -1.8261,-0.4772 z m 238.5,0.01 c 0.7532,-0.3014 1.6532,-0.2644 2,0.082 0.3467,0.3467 -0.2696,0.5933 -1.3696,0.548 -1.2156,-0.05 -1.4628,-0.2973 -0.6304,-0.6304 z m 639.8478,0.3188 c 0,-0.2166 0.8218,-1.0384 1.8261,-1.8261 1.655,-1.2979 1.6919,-1.261 0.394,0.394 -1.3632,1.7382 -2.2201,2.291 -2.2201,1.4321 z m -916.9367,-1.3726 c 1.0153,-0.2646 2.424,-0.2472 3.1305,0.039 0.7064,0.2858 -0.1242,0.5023 -1.846,0.481 -1.7217,-0.021 -2.2997,-0.2551 -1.2845,-0.5197 z m 303.1758,0.01 c 0.7533,-0.3014 1.6533,-0.2643 2,0.082 0.3468,0.3467 -0.2695,0.5934 -1.3695,0.548 -1.2156,-0.05 -1.4629,-0.2973 -0.6305,-0.6304 z m -339.1956,-1.0217 c 0.7174,-0.2895 1.8913,-0.2895 2.6087,0 0.7174,0.2894 0.1304,0.5263 -1.3044,0.5263 -1.4348,0 -2.0217,-0.2369 -1.3043,-0.5263 z m 360.0652,-0.022 c 0.7533,-0.3014 1.6533,-0.2643 2,0.082 0.3468,0.3468 -0.2696,0.5934 -1.3696,0.5481 -1.2155,-0.05 -1.4628,-0.2974 -0.6304,-0.6305 z m -393.4565,-1.0217 c 0.7174,-0.2895 1.8913,-0.2895 2.6087,0 0.7174,0.2895 0.1304,0.5263 -1.3044,0.5263 -1.4348,0 -2.0217,-0.2368 -1.3043,-0.5263 z m -33.3913,-1.0435 c 0.7174,-0.2895 1.8913,-0.2895 2.6087,0 0.7174,0.2895 0.1304,0.5263 -1.3044,0.5263 -1.4348,0 -2.0217,-0.2368 -1.3043,-0.5263 z m -35.9802,-1.0755 c 1.0153,-0.2646 2.424,-0.2472 3.1305,0.039 0.7064,0.2858 -0.1242,0.5023 -1.846,0.481 -1.7217,-0.021 -2.2997,-0.2551 -1.2845,-0.5197 z m -214.45462,-1.0114 c 0.71739,-0.2895 1.89131,-0.2895 2.6087,0 0.71739,0.2894 0.13043,0.5263 -1.30435,0.5263 -1.43478,0 -2.02174,-0.2369 -1.30435,-0.5263 z m 172.69562,-0.028 c 1.0044,-0.2624 2.6479,-0.2624 3.6522,0 1.0044,0.2625 0.1826,0.4772 -1.8261,0.4772 -2.0087,0 -2.8304,-0.2147 -1.8261,-0.4772 z m -129.93628,-1.0773 c 1.85242,-0.2305 5.13937,-0.2343 7.30435,-0.01 2.16497,0.2259 0.64936,0.4145 -3.36803,0.4192 -4.01739,0 -5.78874,-0.1802 -3.93632,-0.4108 z m 68.37108,0.01 c 1.5783,-0.2391 4.1609,-0.2391 5.7392,0 1.5782,0.239 0.2869,0.4347 -2.8696,0.4347 -3.1565,0 -4.4478,-0.1957 -2.8696,-0.4347 z m 1196.6088,-214.7309 c 1.3479,-1.4348 2.6855,-2.6087 2.9724,-2.6087 0.287,0 -0.5811,1.1739 -1.929,2.6087 -1.3479,1.4348 -2.6855,2.6087 -2.9725,2.6087 -0.2869,0 0.5811,-1.1739 1.9291,-2.6087 z m -1717.64429,-8.6087 -2.52972,-2.8696 2.86956,2.5297 c 2.68204,2.3645 3.3481,3.2095 2.52972,3.2095 -0.18691,0 -1.47822,-1.2913 -2.86956,-2.8696 z m 1735.38339,-9.1304 c 1.3479,-1.4348 2.6855,-2.6087 2.9725,-2.6087 0.2869,0 -0.5811,1.1739 -1.929,2.6087 -1.3479,1.4347 -2.6856,2.6087 -2.9725,2.6087 -0.287,0 0.5811,-1.174 1.929,-2.6087 z m -468.5218,-240 c 1.3479,-1.4348 2.6856,-2.6087 2.9725,-2.6087 0.287,0 -0.5811,1.1739 -1.929,2.6087 -1.3479,1.4347 -2.6855,2.6087 -2.9725,2.6087 -0.2869,0 0.5811,-1.174 1.929,-2.6087 z m 44.8696,-44.6744 c 0,-0.1796 1.5261,-1.7057 3.3913,-3.3913 l 3.3913,-3.0648 -3.0648,3.3913 c -2.8568,3.1612 -3.7178,3.871 -3.7178,3.0648 z m -1434.61789,-20.543 c 0,-1.4348 0.23684,-2.0218 0.52631,-1.3044 0.28947,0.7174 0.28947,1.8913 0,2.6087 -0.28947,0.7174 -0.52631,0.1304 -0.52631,-1.3043 z m 0,-48 c 0,-1.4348 0.23684,-2.0218 0.52631,-1.3044 0.28947,0.7174 0.28947,1.8913 0,2.6087 -0.28947,0.7174 -0.52631,0.1304 -0.52631,-1.3043 z m 1451.31349,-84.9157 c 0,-0.2167 0.8218,-1.0385 1.8261,-1.8261 1.6551,-1.298 1.692,-1.2611 0.394,0.3939 -1.3632,1.7382 -2.2201,2.291 -2.2201,1.4322 z m 21.9131,-20.9974 c 1.9469,-2.0087 3.7746,-3.6522 4.0616,-3.6522 0.2869,0 -1.0712,1.6435 -3.0181,3.6522 -1.9469,2.0087 -3.7746,3.6522 -4.0616,3.6522 -0.287,0 1.0712,-1.6435 3.0181,-3.6522 z m 35.4783,-35.283 c 0,-0.1796 1.526,-1.7057 3.3913,-3.3913 l 3.3913,-3.0648 -3.0648,3.3913 c -2.8568,3.1612 -3.7178,3.8709 -3.7178,3.0648 z m 20.8695,-21.9805 c 0,-0.2167 0.8218,-1.0384 1.8261,-1.8261 1.655,-1.298 1.6919,-1.2611 0.394,0.394 -1.3632,1.7381 -2.2201,2.2909 -2.2201,1.4321 z M 1.1258582,1314.1739 c 0.05007,-1.2156 0.297329,-1.4628 0.6304348,-0.6304 0.3014302,0.7533 0.2643592,1.6533 -0.08238,2 -0.3467391,0.3467 -0.5933639,-0.2696 -0.5480548,-1.3696 z m -0.86271029,-33.3043 c 0.011582,-2.2957 0.22527052,-3.1119 0.47486345,-1.8139 0.24959293,1.298 0.24011677,3.1762 -0.0210581,4.1739 -0.2611749,0.9976 -0.4653873,-0.064 -0.45380535,-2.36 z M 2445.9955,1268.2609 c 0.05,-1.2156 0.2973,-1.4629 0.6304,-0.6304 0.3015,0.7532 0.2644,1.6532 -0.082,2 -0.3468,0.3467 -0.5934,-0.2696 -0.5481,-1.3696 z m 1.0435,-22.9565 c 0.05,-1.2156 0.2973,-1.4629 0.6304,-0.6305 0.3014,0.7533 0.2644,1.6533 -0.082,2 -0.3467,0.3468 -0.5933,-0.2695 -0.548,-1.3695 z M 0.26314791,1233.9131 c 0.011582,-2.2957 0.22527052,-3.1119 0.47486345,-1.814 0.24959293,1.298 0.24011677,3.1763 -0.0210581,4.174 -0.2611749,0.9976 -0.4653873,-0.064 -0.45380535,-2.36 z M 2503.5078,1232.8696 c 0.021,-1.7217 0.2552,-2.2998 0.5197,-1.2845 0.2646,1.0153 0.2472,2.424 -0.039,3.1304 -0.2859,0.7065 -0.5023,-0.1242 -0.4811,-1.8459 z M 1.1258582,1201.4783 c 0.05007,-1.2156 0.297329,-1.4629 0.6304348,-0.6304 0.3014302,0.7532 0.2643592,1.6532 -0.08238,2 -0.3467391,0.3467 -0.5933639,-0.2696 -0.5480548,-1.3696 z M 2448.4292,1184.3479 c 0,-10.0435 0.1565,-14.1522 0.3478,-9.1305 0.1913,5.0218 0.1913,13.2391 0,18.2609 -0.1913,5.0217 -0.3478,0.913 -0.3478,-9.1304 z m 55.1173,-17.7392 c 0,-2.0087 0.2148,-2.8304 0.4772,-1.8261 0.2625,1.0044 0.2625,2.6479 0,3.6522 -0.2624,1.0044 -0.4772,0.1826 -0.4772,-1.8261 z m -1.2032,-32.9565 c 0.05,-1.2156 0.2974,-1.4629 0.6305,-0.6304 0.3014,0.7532 0.2643,1.6532 -0.082,2 -0.3468,0.3467 -0.5934,-0.2696 -0.5481,-1.3696 z m -55.2219,-6.6957 c 0,-1.4347 0.2368,-2.0217 0.5263,-1.3043 0.2894,0.7174 0.2894,1.8913 0,2.6087 -0.2895,0.7174 -0.5263,0.1304 -0.5263,-1.3044 z M 531.13045,1098.3887 c 0,-0.2167 0.82174,-1.0385 1.82609,-1.8261 1.65501,-1.298 1.69192,-1.2611 0.39397,0.3939 -1.36317,1.7382 -2.22006,2.291 -2.22006,1.4322 z M 2067.1305,524.47561 c 0,-0.21669 0.8217,-1.03843 1.8261,-1.82609 1.655,-1.29795 1.6919,-1.26105 0.394,0.39397 -1.3632,1.73817 -2.2201,2.29093 -2.2201,1.43212 z m 22.4348,-21.51908 c 2.2416,-2.29565 4.3105,-4.17391 4.5974,-4.17391 0.287,0 -1.3123,1.87826 -3.5539,4.17391 -2.2417,2.29565 -4.3105,4.17392 -4.5975,4.17392 -0.287,0 1.3123,-1.87827 3.554,-4.17392 z m 17.2174,-17.21739 c 1.9469,-2.00869 3.7746,-3.65217 4.0615,-3.65217 0.287,0 -1.0711,1.64348 -3.0181,3.65217 -1.9469,2.0087 -3.7746,3.65217 -4.0615,3.65217 -0.287,0 1.0712,-1.64347 3.0181,-3.65217 z M 343.8261,396.52175 c 1.03877,-1.14783 2.12345,-2.08696 2.41041,-2.08696 0.28695,0 -0.32817,0.93913 -1.36693,2.08696 -1.03877,1.14782 -2.12346,2.08695 -2.41041,2.08695 -0.28696,0 0.32816,-0.93913 1.36693,-2.08695 z m 1777.9879,-49.30435 -1.9879,-2.34783 2.3479,1.98782 c 2.2064,1.86805 2.8228,2.70783 1.9878,2.70783 -0.198,0 -1.2545,-1.05652 -2.3478,-2.34782 z M 395.47827,344.99734 c 0,-0.21668 0.82174,-1.03842 1.82609,-1.82609 1.65501,-1.29795 1.69192,-1.26104 0.39397,0.39397 -1.36317,1.73818 -2.22006,2.29094 -2.22006,1.43212 z m 14.6087,-13.56522 c 0,-0.21668 0.82174,-1.03842 1.82609,-1.82608 1.65501,-1.29796 1.69192,-1.26105 0.39397,0.39397 -1.36317,1.73817 -2.22006,2.29093 -2.22006,1.43211 z M 1182.0653,2.4176202 c 0.7532,-0.3014302 1.6532,-0.2643593 2,0.08238 0.3467,0.3467391 -0.2696,0.5933638 -1.3696,0.5480549 -1.2156,-0.05007 -1.4629,-0.297329 -0.6304,-0.6304349 z m 146.0869,0 c 0.7533,-0.3014302 1.6533,-0.2643593 2,0.08238 0.3468,0.3467391 -0.2696,0.5933638 -1.3696,0.5480549 -1.2155,-0.05007 -1.4628,-0.297329 -0.6304,-0.6304349 z M 1202.9348,1.3741419 c 0.7533,-0.3014302 1.6533,-0.2643593 2,0.08238 0.3468,0.3467391 -0.2695,0.5933638 -1.3695,0.5480549 -1.2156,-0.05007 -1.4629,-0.297329 -0.6305,-0.6304349 z m 104.3478,0 c 0.7533,-0.3014302 1.6533,-0.2643593 2,0.08238 0.3468,0.3467391 -0.2695,0.5933638 -1.3695,0.5480549 -1.2156,-0.05007 -1.4629,-0.297329 -0.6305,-0.6304349 z m -61.1614,-1.10683445 c 4.9927,-0.19086049 13.4449,-0.19175596 18.7826,-0.00199 5.3377,0.18976603 1.2528,0.34592462 -9.0777,0.34701908 -10.3304,0.001094 -14.6976,-0.15416866 -9.7049,-0.34502908 z"
         id="path5" />
      <path
         style="fill:#84c236"
         d="m 1218.5218,2504.7003 c 0.7174,-0.2895 1.8913,-0.2895 2.6087,0 0.7174,0.2895 0.1304,0.5263 -1.3044,0.5263 -1.4348,0 -2.0217,-0.2368 -1.3043,-0.5263 z m 51.1304,0 c 0.7174,-0.2895 1.8913,-0.2895 2.6087,0 0.7174,0.2895 0.1304,0.5263 -1.3043,0.5263 -1.4348,0 -2.0218,-0.2368 -1.3044,-0.5263 z M 489.19567,2215.6351 c 0.75326,-0.3015 1.65326,-0.2644 2,0.082 0.34674,0.3468 -0.26957,0.5934 -1.36957,0.5481 -1.21559,-0.05 -1.46285,-0.2973 -0.63043,-0.6304 z m -75.01376,-26.1568 -2.52972,-2.8696 2.86956,2.5298 c 1.57826,1.3913 2.86957,2.6826 2.86957,2.8695 0,0.8184 -0.84501,0.1523 -3.20941,-2.5297 z m 1680.07899,-18.394 c 0,-0.2166 0.8218,-1.0384 1.8261,-1.8261 1.655,-1.2979 1.6919,-1.261 0.394,0.394 -1.3632,1.7382 -2.2201,2.291 -2.2201,1.4321 z m -1709.27358,-7.6929 -3.596,-3.9131 3.91304,3.596 c 2.15217,1.9778 3.91304,3.7387 3.91304,3.9131 0,0.7968 -0.88301,0.046 -4.23008,-3.596 z m 1725.96928,-7.8918 c 0,-0.1796 1.5261,-1.7057 3.3913,-3.3913 l 3.3913,-3.0648 -3.0648,3.3913 c -2.8568,3.1612 -3.7178,3.871 -3.7178,3.0648 z m -1759.8918,-26.0213 -3.06479,-3.3913 3.3913,3.0648 c 1.86522,1.6856 3.39131,3.2117 3.39131,3.3913 0,0.8061 -0.861,0.096 -3.71782,-3.0648 z m 1796.4135,-10.6956 c 1.3479,-1.4348 2.6855,-2.6087 2.9725,-2.6087 0.287,0 -0.5811,1.1739 -1.929,2.6087 -1.3479,1.4347 -2.6855,2.6086 -2.9725,2.6086 -0.2869,0 0.5811,-1.1739 1.929,-2.6086 z m -815.7193,-18.984 c 1.0153,-0.2646 2.424,-0.2472 3.1305,0.039 0.7064,0.2859 -0.1242,0.5023 -1.846,0.4811 -1.7217,-0.021 -2.2997,-0.2552 -1.2845,-0.5197 z m 163.3497,0.01 c 0.7533,-0.3015 1.6533,-0.2644 2,0.082 0.3468,0.3468 -0.2695,0.5934 -1.3695,0.5481 -1.2156,-0.05 -1.4629,-0.2973 -0.6305,-0.6304 z m -210.7826,-1.0435 c 0.7533,-0.3014 1.6533,-0.2644 2,0.082 0.3468,0.3467 -0.2695,0.5933 -1.3695,0.548 -1.2156,-0.05 -1.4629,-0.2973 -0.6305,-0.6304 z m 245.2174,0 c 0.7533,-0.3014 1.6533,-0.2644 2,0.082 0.3468,0.3467 -0.2695,0.5933 -1.3695,0.548 -1.2156,-0.05 -1.4629,-0.2973 -0.6305,-0.6304 z m -283.8261,-1.0435 c 0.7533,-0.3014 1.6533,-0.2643 2,0.082 0.3468,0.3467 -0.2695,0.5934 -1.3695,0.548 -1.2156,-0.05 -1.4629,-0.2973 -0.6305,-0.6304 z m -68.8695,-2.0869 c 0.7532,-0.3015 1.6532,-0.2644 2,0.082 0.3467,0.3468 -0.2696,0.5934 -1.3696,0.5481 -1.2156,-0.05 -1.4629,-0.2973 -0.6304,-0.6304 z m -33.3913,-1.0435 c 0.7532,-0.3015 1.6532,-0.2644 2,0.082 0.3467,0.3467 -0.2696,0.5933 -1.3696,0.548 -1.2156,-0.05 -1.4629,-0.2973 -0.6304,-0.6304 z m -36.5218,-1.0435 c 0.7533,-0.3014 1.6533,-0.2644 2,0.082 0.3468,0.3467 -0.2695,0.5933 -1.3695,0.548 -1.2156,-0.05 -1.4629,-0.2973 -0.6305,-0.6304 z m -206.60869,-1.0435 c 0.75326,-0.3014 1.65326,-0.2643 2,0.082 0.34674,0.3467 -0.26956,0.5934 -1.36956,0.5481 -1.21559,-0.05 -1.46285,-0.2974 -0.63044,-0.6305 z m 163.76089,0.022 c 0.7174,-0.2895 1.8913,-0.2895 2.6087,0 0.7174,0.2894 0.1304,0.5263 -1.3044,0.5263 -1.4347,0 -2.0217,-0.2369 -1.3043,-0.5263 z m -112.6835,-1.0905 c 1.29799,-0.2495 3.17626,-0.2401 4.17391,0.021 0.99766,0.2612 -0.0643,0.4654 -2.35999,0.4538 -2.29565,-0.012 -3.11192,-0.2253 -1.81392,-0.4749 z m 34.42262,-0.034 c 3.58695,-0.2038 9.45652,-0.2038 13.04347,0 3.58701,0.2037 0.65218,0.3704 -6.52173,0.3704 -7.17392,0 -10.1087,-0.1667 -6.52174,-0.3704 z M 2198.6088,1882.0409 c 0,-0.2167 0.8217,-1.0385 1.826,-1.8261 1.6551,-1.298 1.692,-1.2611 0.394,0.3939 -1.3631,1.7382 -2.22,2.291 -2.22,1.4322 z m -1707.2095,-8.7365 -2.52972,-2.8696 2.86957,2.5297 c 2.68204,2.3644 3.34809,3.2095 2.52971,3.2095 -0.18691,0 -1.47822,-1.2914 -2.86956,-2.8696 z m -10.43478,-10.4348 -2.52972,-2.8696 2.86956,2.5298 c 2.68204,2.3644 3.34809,3.2094 2.52972,3.2094 -0.18691,0 -1.47822,-1.2913 -2.86956,-2.8696 z m 1743.73118,-6.9157 c 0,-0.2167 0.8218,-1.0384 1.8261,-1.8261 1.655,-1.2979 1.6919,-1.261 0.394,0.394 -1.3632,1.7382 -2.2201,2.2909 -2.2201,1.4321 z M 1736.8696,1634.087 c 1.0388,-1.1478 2.1235,-2.087 2.4104,-2.087 0.287,0 -0.3281,0.9392 -1.3669,2.087 -1.0388,1.1478 -2.1235,2.0869 -2.4104,2.0869 -0.287,0 0.3281,-0.9391 1.3669,-2.0869 z m 21.3913,-20.3478 c 1.3479,-1.4348 2.6855,-2.6087 2.9725,-2.6087 0.287,0 -0.5811,1.1739 -1.929,2.6087 -1.3479,1.4347 -2.6855,2.6087 -2.9725,2.6087 -0.2869,0 0.5811,-1.174 1.929,-2.6087 z m 36.5218,-36.5218 c 1.3479,-1.4348 2.6855,-2.6087 2.9724,-2.6087 0.287,0 -0.5811,1.1739 -1.929,2.6087 -1.3479,1.4348 -2.6855,2.6087 -2.9724,2.6087 -0.287,0 0.5811,-1.1739 1.929,-2.6087 z m 20.3478,-21.3913 c 1.0388,-1.1478 2.1234,-2.0869 2.4104,-2.0869 0.287,0 -0.3282,0.9391 -1.3669,2.0869 -1.0388,1.1478 -2.1235,2.087 -2.4104,2.087 -0.287,0 0.3281,-0.9392 1.3669,-2.087 z m -3.6522,-131.8722 c 0,-0.2167 0.8218,-1.0384 1.8261,-1.8261 1.655,-1.298 1.6919,-1.261 0.394,0.394 -1.3632,1.7381 -2.2201,2.2909 -2.2201,1.4321 z m 19.3044,-18.3887 c 1.0387,-1.1478 2.1234,-2.0869 2.4104,-2.0869 0.2869,0 -0.3282,0.9391 -1.367,2.0869 -1.0387,1.1479 -2.1234,2.087 -2.4104,2.087 -0.2869,0 0.3282,-0.9391 1.367,-2.087 z m 49.0434,-49.0434 c 1.0388,-1.1479 2.1235,-2.087 2.4105,-2.087 0.2869,0 -0.3282,0.9391 -1.367,2.087 -1.0387,1.1478 -2.1234,2.0869 -2.4104,2.0869 -0.2869,0 0.3282,-0.9391 1.3669,-2.0869 z M 0.26314791,1273.5652 c 0.011582,-2.2956 0.22527052,-3.1119 0.47486345,-1.8139 0.24959293,1.298 0.24011677,3.1763 -0.0210581,4.1739 -0.2611749,0.9977 -0.4653873,-0.064 -0.45380535,-2.36 z m 0.0210581,-31.826 c 0,-2.5827 0.20349497,-3.6392 0.45221104,-2.3479 0.24871607,1.2913 0.24871607,3.4044 0,4.6957 -0.24871607,1.2913 -0.45221104,0.2348 -0.45221104,-2.3478 z M 2503.5078,1227.6522 c 0.021,-1.7217 0.2552,-2.2998 0.5197,-1.2845 0.2646,1.0153 0.2472,2.424 -0.039,3.1304 -0.2859,0.7065 -0.5023,-0.1242 -0.4811,-1.8459 z m -55.2235,-21.3913 c 0,-2.5826 0.2035,-3.6391 0.4522,-2.3478 0.2487,1.2913 0.2487,3.4043 0,4.6956 -0.2487,1.2913 -0.4522,0.2348 -0.4522,-2.3478 z m 55.2235,-33.913 c 0.021,-1.7218 0.2552,-2.2998 0.5197,-1.2845 0.2646,1.0152 0.2472,2.4239 -0.039,3.1304 -0.2859,0.7065 -0.5023,-0.1242 -0.4811,-1.8459 z M 2448.2035,1164 c 0.021,-1.7217 0.2551,-2.2997 0.5197,-1.2845 0.2646,1.0153 0.2472,2.424 -0.039,3.1305 -0.2858,0.7064 -0.5023,-0.1242 -0.481,-1.846 z m 54.1398,-27.2174 c 0.05,-1.2156 0.2974,-1.4628 0.6305,-0.6304 0.3014,0.7533 0.2643,1.6533 -0.082,2 -0.3468,0.3467 -0.5934,-0.2696 -0.5481,-1.3696 z m -55.3043,-13.5652 c 0.05,-1.2156 0.2973,-1.4628 0.6304,-0.6304 0.3014,0.7532 0.2644,1.6532 -0.082,2 -0.3467,0.3467 -0.5933,-0.2696 -0.548,-1.3696 z M 551.47828,1076.8696 c 3.40754,-3.4435 6.43032,-6.2609 6.71728,-6.2609 0.28695,0 -2.26626,2.8174 -5.6738,6.2609 -3.40755,3.4435 -6.43033,6.2609 -6.71728,6.2609 -0.28696,0 2.26625,-2.8174 5.6738,-6.2609 z M 2094.2609,498.38865 c 0,-0.21669 0.8218,-1.03842 1.8261,-1.82609 1.655,-1.29795 1.6919,-1.26104 0.394,0.39397 -1.3632,1.73817 -2.2201,2.29094 -2.2201,1.43212 z m 6.2609,-6.38864 c 1.3479,-1.43478 2.6855,-2.6087 2.9725,-2.6087 0.2869,0 -0.5811,1.17392 -1.929,2.6087 -1.3479,1.43478 -2.6855,2.6087 -2.9725,2.6087 -0.287,0 0.5811,-1.17392 1.929,-2.6087 z m 21.913,-22.82875 c 0,-0.21669 0.8218,-1.03843 1.8261,-1.82609 1.655,-1.29795 1.692,-1.26104 0.394,0.39397 -1.3632,1.73817 -2.2201,2.29093 -2.2201,1.43212 z M 348.00001,392.34783 c 1.03877,-1.14782 2.12345,-2.08695 2.41041,-2.08695 0.28696,0 -0.32816,0.93913 -1.36693,2.08695 -1.03877,1.14783 -2.12345,2.08696 -2.41041,2.08696 -0.28696,0 0.32816,-0.93913 1.36693,-2.08696 z m 1778.52979,-40.43478 -2.5297,-2.86956 2.8695,2.52971 c 1.5783,1.39135 2.8696,2.68265 2.8696,2.86957 0,0.81837 -0.845,0.15232 -3.2094,-2.52972 z M 392.34784,348.12778 c 0,-0.21669 0.82174,-1.03843 1.82608,-1.82609 1.65502,-1.29795 1.69193,-1.26105 0.39398,0.39397 -1.36317,1.73817 -2.22006,2.29093 -2.22006,1.43212 z M 2107.693,334.17392 c -1.2979,-1.65501 -1.261,-1.69192 0.394,-0.39397 1.7382,1.36317 2.291,2.22006 1.4321,2.22006 -0.2166,0 -1.0384,-0.82174 -1.8261,-1.82609 z"
         id="path4" />
      <path
         style="fill:#7abc25"
         d="m 1222.7609,2504.6785 c 0.7533,-0.3014 1.6533,-0.2643 2,0.082 0.3467,0.3468 -0.2696,0.5934 -1.3696,0.5481 -1.2156,-0.05 -1.4628,-0.2974 -0.6304,-0.6305 z m 42.7174,0.022 c 0.7174,-0.2895 1.8913,-0.2895 2.6087,0 0.7174,0.2895 0.1304,0.5263 -1.3044,0.5263 -1.4347,0 -2.0217,-0.2368 -1.3043,-0.5263 z m -841.34728,-306.161 c -0.3783,-0.6121 -0.46402,-1.3367 -0.19049,-1.6102 0.27352,-0.2735 0.77537,0.2273 1.11521,1.1129 0.70559,1.8387 0.1042,2.1621 -0.92472,0.4973 z m -47.43536,-43.2349 c -2.53464,-2.5826 -4.37365,-4.6957 -4.08669,-4.6957 0.28695,0 2.59553,2.1131 5.13017,4.6957 2.53464,2.5826 4.37365,4.6956 4.0867,4.6956 -0.28696,0 -2.59554,-2.113 -5.13018,-4.6956 z m 1745.21744,-10.9565 c 2.8264,-2.8696 5.3737,-5.2174 5.6607,-5.2174 0.2869,0 -1.7908,2.3478 -4.6172,5.2174 -2.8264,2.8695 -5.3737,5.2174 -5.6607,5.2174 -0.2869,0 1.7908,-2.3479 4.6172,-5.2174 z m -1762.95657,-6.7826 c -2.53464,-2.5826 -4.37365,-4.6957 -4.08669,-4.6957 0.28695,0 2.59553,2.1131 5.13017,4.6957 2.53464,2.5826 4.37365,4.6956 4.0867,4.6956 -0.28696,0 -2.59554,-2.113 -5.13018,-4.6956 z m 1780.17397,-10.4348 c 3.1173,-3.1565 5.9026,-5.7392 6.1896,-5.7392 0.2869,0 -2.0288,2.5827 -5.1461,5.7392 -3.1173,3.1565 -5.9026,5.7391 -6.1896,5.7391 -0.287,0 2.0288,-2.5826 5.1461,-5.7391 z m -1802.70789,-13.3044 -1.98782,-2.3478 2.34783,1.9878 c 2.20638,1.8681 2.82286,2.7079 1.98781,2.7079 -0.19801,0 -1.25453,-1.0566 -2.34782,-2.3479 z m 1824.62089,-9.5244 c 0,-0.2167 0.8218,-1.0384 1.8261,-1.8261 1.655,-1.2979 1.692,-1.261 0.394,0.394 -1.3632,1.7382 -2.2201,2.2909 -2.2201,1.4321 z m -834,-4.471 c 0.7174,-0.2895 1.8913,-0.2895 2.6087,0 0.7174,0.2895 0.1304,0.5263 -1.3043,0.5263 -1.4348,0 -2.0218,-0.2368 -1.3044,-0.5263 z m -45.8478,-1.0652 c 0.7533,-0.3014 1.6533,-0.2644 2,0.082 0.3467,0.3467 -0.2696,0.5933 -1.3696,0.548 -1.2156,-0.05 -1.4628,-0.2973 -0.6304,-0.6304 z m -318.84785,-7.3627 c 3.3,-0.207 8.7,-0.207 12,0 3.30001,0.2071 0.60001,0.3765 -6,0.3765 -6.6,0 -9.3,-0.1694 -6,-0.3765 z m -557.47827,-55.9706 c 0,-0.2167 0.82174,-1.0385 1.82608,-1.8261 1.65502,-1.298 1.69193,-1.2611 0.39397,0.3939 -1.36316,1.7382 -2.22005,2.291 -2.22005,1.4322 z m 155.34516,-4.5626 c -1.29795,-1.655 -1.26104,-1.6919 0.39397,-0.394 1.73817,1.3632 2.29094,2.2201 1.43212,2.2201 -0.21669,0 -1.03842,-0.8217 -1.82609,-1.8261 z m -149.60603,-1.3043 c 1.03877,-1.1479 2.12345,-2.087 2.41041,-2.087 0.28695,0 -0.32817,0.9391 -1.36693,2.087 -1.03877,1.1478 -2.12346,2.0869 -2.41041,2.0869 -0.28696,0 0.32816,-0.9391 1.36693,-2.0869 z m 1784.86959,-144.394 c 0,-0.2167 0.8218,-1.0384 1.8261,-1.8261 1.655,-1.298 1.6919,-1.261 0.394,0.394 -1.3632,1.7381 -2.2201,2.2909 -2.2201,1.4321 z m -1699.95921,-7.693 c -1.29795,-1.655 -1.26105,-1.6919 0.39397,-0.394 1.73817,1.3632 2.29093,2.2201 1.43211,2.2201 -0.21668,0 -1.03842,-0.8218 -1.82608,-1.8261 z m -18.78261,-18.7826 c -1.29795,-1.655 -1.26105,-1.6919 0.39397,-0.394 1.00435,0.7877 1.82609,1.6094 1.82609,1.8261 0,0.8588 -0.85689,0.3061 -2.22006,-1.4321 z m 1751.08972,-5.8722 c 0,-0.2167 0.8217,-1.0385 1.826,-1.8261 1.6551,-1.298 1.692,-1.2611 0.394,0.3939 -1.3632,1.7382 -2.22,2.291 -2.22,1.4322 z m -502.9566,-207.6522 c 0,-0.2167 0.8218,-1.0384 1.8261,-1.8261 1.655,-1.298 1.6919,-1.261 0.394,0.394 -1.3632,1.7381 -2.2201,2.2909 -2.2201,1.4321 z m 14.6087,-13.5652 c 0,-0.2167 0.8218,-1.0385 1.8261,-1.8261 1.655,-1.298 1.6919,-1.2611 0.394,0.3939 -1.3632,1.7382 -2.2201,2.291 -2.2201,1.4322 z m 28.6957,-27.78 c 3.9866,-4.0174 7.4831,-7.3043 7.7701,-7.3043 0.2869,0 -2.74,3.2869 -6.7267,7.3043 -3.9866,4.0174 -7.4831,7.3044 -7.7701,7.3044 -0.2869,0 2.7401,-3.287 6.7267,-7.3044 z m 17.2174,-17.2174 c 3.6972,-3.7304 6.9571,-6.7826 7.244,-6.7826 0.287,0 -2.5033,3.0522 -6.2006,6.7826 -3.6972,3.7305 -6.9571,6.7826 -7.244,6.7826 -0.287,0 2.5033,-3.0521 6.2006,-6.7826 z m 25.0434,-25.9592 c 0,-0.2166 0.8218,-1.0384 1.8261,-1.826 1.655,-1.298 1.6919,-1.2611 0.394,0.3939 -1.3632,1.7382 -2.2201,2.291 -2.2201,1.4321 z m -2.0869,-133.5652 c 0,-0.2167 0.8217,-1.0384 1.8261,-1.8261 1.655,-1.2979 1.6919,-1.261 0.3939,0.394 -1.3631,1.7382 -2.22,2.2909 -2.22,1.4321 z m 18.2608,-17.3451 c 1.0388,-1.1479 2.1235,-2.087 2.4105,-2.087 0.2869,0 -0.3282,0.9391 -1.367,2.087 -1.0387,1.1478 -2.1234,2.0869 -2.4104,2.0869 -0.2869,0 0.3282,-0.9391 1.3669,-2.0869 z m 57.3914,-57.3913 c 1.0387,-1.1479 2.1234,-2.087 2.4104,-2.087 0.2869,0 -0.3282,0.9391 -1.367,2.087 -1.0387,1.1478 -2.1234,2.0869 -2.4104,2.0869 -0.2869,0 0.3282,-0.9391 1.367,-2.0869 z m 14.0869,-15.0027 c 0,-0.2167 0.8218,-1.0384 1.8261,-1.8261 1.655,-1.298 1.6919,-1.261 0.394,0.394 -1.3632,1.7381 -2.2201,2.2909 -2.2201,1.4321 z M 0.31269307,1264.6957 c 0,-3.1565 0.1956163,-4.4478 0.43470289,-2.8696 0.23908658,1.5783 0.23908658,4.1609 0,5.7391 -0.23908659,1.5783 -0.43470289,0.287 -0.43470289,-2.8695 z m -0.028487,-14.6087 c 0,-2.5826 0.20349497,-3.6391 0.45221104,-2.3478 0.24871607,1.2913 0.24871607,3.4043 0,4.6956 -0.24871607,1.2913 -0.45221104,0.2348 -0.45221104,-2.3478 z M 2503.4692,1222.9565 c 0,-1.4347 0.2368,-2.0217 0.5263,-1.3043 0.2895,0.7174 0.2895,1.8913 0,2.6087 -0.2895,0.7174 -0.5263,0.1304 -0.5263,-1.3044 z m -55.2657,-9.913 c 0.021,-1.7217 0.2551,-2.2998 0.5197,-1.2845 0.2646,1.0153 0.2472,2.424 -0.039,3.1305 -0.2858,0.7064 -0.5023,-0.1243 -0.481,-1.846 z m 55.1833,-36.6087 c 0.05,-1.2156 0.2973,-1.4628 0.6304,-0.6304 0.3015,0.7532 0.2644,1.6532 -0.082,2 -0.3468,0.3467 -0.5934,-0.2696 -0.5481,-1.3696 z m -55.3043,-16.6956 c 0.05,-1.2156 0.2973,-1.4629 0.6304,-0.6305 0.3014,0.7533 0.2643,1.6533 -0.082,2 -0.3467,0.3468 -0.5934,-0.2695 -0.548,-1.3695 z m -1905.47379,-74 c 1.34791,-1.4348 2.68553,-2.6087 2.97248,-2.6087 0.28696,0 -0.58109,1.1739 -1.929,2.6087 -1.34791,1.4347 -2.68552,2.6086 -2.97248,2.6086 -0.28696,0 0.58109,-1.1739 1.929,-2.6086 z m 15.65218,-15.457 c 0,-0.1796 1.52608,-1.7057 3.3913,-3.3913 l 3.39131,-3.0648 -3.0648,3.3913 c -2.85681,3.1612 -3.71781,3.871 -3.71781,3.0648 z M 2072.3479,519.25821 c 0,-0.21668 0.8217,-1.03842 1.8261,-1.82608 1.655,-1.29795 1.6919,-1.26105 0.3939,0.39397 -1.3631,1.73817 -2.22,2.29093 -2.22,1.43211 z m 46.9565,-46.95652 c 0,-0.21668 0.8217,-1.03842 1.8261,-1.82609 1.655,-1.29795 1.6919,-1.26104 0.394,0.39398 -1.3632,1.73817 -2.2201,2.29093 -2.2201,1.43211 z m 12.5218,-13.56522 c 0,-0.21668 0.8217,-1.03842 1.826,-1.82608 1.6551,-1.29796 1.692,-1.26105 0.394,0.39397 -1.3632,1.73817 -2.22,2.29093 -2.22,1.43211 z M 333.91305,407.60604 c 0,-0.21669 0.82174,-1.03843 1.82609,-1.82609 1.65502,-1.29795 1.69192,-1.26104 0.39397,0.39397 -1.36317,1.73817 -2.22006,2.29094 -2.22006,1.43212 z m 18.78261,-19.95386 c 1.34791,-1.43478 2.68553,-2.60869 2.97248,-2.60869 0.28696,0 -0.58109,1.17391 -1.929,2.60869 -1.34791,1.43478 -2.68552,2.6087 -2.97248,2.6087 -0.28696,0 0.58109,-1.17392 1.929,-2.6087 z m 1781.69994,-27.91304 -5.1781,-5.47826 5.4782,5.17816 c 5.0905,4.81165 5.9568,5.77836 5.1782,5.77836 -0.1651,0 -2.6303,-2.46522 -5.4783,-5.47826 z M 388.17392,352.17392 c 1.94691,-2.0087 3.77461,-3.65217 4.06157,-3.65217 0.28696,0 -1.07118,1.64347 -3.01809,3.65217 -1.9469,2.0087 -3.77461,3.65217 -4.06156,3.65217 -0.28696,0 1.07118,-1.64347 3.01808,-3.65217 z M 2110.8235,337.30435 c -1.298,-1.65501 -1.2611,-1.69192 0.394,-0.39397 1.7381,1.36317 2.2909,2.22006 1.4321,2.22006 -0.2167,0 -1.0385,-0.82174 -1.8261,-1.82609 z M 404.86958,336.64951 c 0,-0.21668 0.82174,-1.03842 1.82608,-1.82608 1.65502,-1.29795 1.69193,-1.26105 0.39397,0.39397 -1.36316,1.73817 -2.22005,2.29093 -2.22005,1.43211 z"
         id="path3" />
      <path
         style="fill:#76bb1e"
         d="m 1214.6087,2504.7648 c -19.7287,-0.6125 -54.4244,-2.5842 -73.0434,-4.1508 -256.78716,-21.6071 -500.95604,-121.7204 -698.60877,-286.4414 -17.5533,-14.6286 -21.29687,-18.417 -13.45298,-13.6139 19.15297,11.7281 44.18927,17.3943 65.93237,14.9219 50.55011,-5.7482 89.04237,-42.5092 96.27016,-91.9403 1.63854,-11.2061 0.70969,-30.2366 -2.01479,-41.2794 -11.02683,-44.6935 -49.90116,-78.1421 -95.00596,-81.7459 -21.19353,-1.6934 -38.00423,1.4762 -56.94619,10.7368 -33.82342,16.5362 -56.87586,50.0965 -59.8329,87.1064 -2.37527,29.7286 5.12903,53.6687 25.04641,79.9027 3.73201,4.9156 -14.5217,-12.0311 -34.99715,-32.4912 C 156.60783,1934.5803 27.166764,1652.6006 4.2189439,1353.3913 0.80747674,1308.9103 -0.16833407,1236.9543 2.072772,1195.1333 13.201615,987.4591 72.888051,792.25959 179.74014,614.08697 256.34145,486.35661 358.77642,369.41619 476.25906,275.5791 672.95552,118.47141 908.06583,24.819108 1156.1739,4.7462457 c 62.979,-5.09523266 135.8995,-5.09998953 199.3044,-0.013001 204.6081,16.4157473 399.8175,81.8447913 574.4348,192.5353953 70.2587,44.53725 140.9633,100.39234 198.925,157.14631 7.8262,7.66308 14.6349,13.91201 15.1305,13.88651 1.0347,-0.0533 6.9897,-8.38439 24.9533,-34.91015 39.0672,-57.68843 72.7235,-118.92156 101.7436,-185.10882 l 7.0439,-16.06534 12.5548,38.50012 c 75.1429,230.43109 124.2703,407.46191 159.814,575.89144 45.8973,217.49109 62.7502,408.58809 49.5554,561.91309 -6.2644,72.792 -8.0178,89.3558 -13.0897,123.6521 -22.0332,148.9893 -72.0195,295.3247 -145.7342,426.6383 -48.4611,86.3275 -107.751,167.9077 -174.5293,240.1444 -18.6043,20.125 -60.2761,61.5723 -78.3219,77.8999 -50.2323,45.4497 -98.1791,82.7694 -153.3497,119.3606 -187.2817,124.2123 -399.6925,194.747 -623.4783,207.037 -20.6124,1.132 -79.1895,2.0488 -96.5218,1.5107 z m -463.25854,-397.919 c 47.81796,-6.706 102.38947,-12.0536 139.23488,-13.6442 30.29313,-1.3077 145.40886,-1.2897 194.11066,0.03 21.2348,0.5756 69.3652,1.9804 106.9565,3.1219 118.0057,3.5832 148.7776,4.1561 223.3044,4.1569 147.6318,0 242.8201,-6.3379 345.2337,-22.9926 234.4889,-38.1331 402.5618,-129.6657 514.3709,-280.1268 160.2734,-215.6793 209.9977,-522.6345 148.8232,-918.70761 -26.7346,-173.09202 -75.5907,-366.86545 -146.2326,-579.98803 -6.135,-18.5087 -11.4082,-33.64765 -11.7183,-33.64211 -0.3101,0.006 -2.5305,4.11423 -4.9342,9.13043 -21.0836,43.99846 -59.4,102.43202 -98.0103,149.4682 -38.0955,46.40916 -90.6066,98.75857 -140.2281,139.79623 -94.2118,77.91461 -202.5365,143.34074 -316.1533,190.95083 -115.547,48.41896 -222.8797,73.63133 -364.1945,85.54905 -32.4985,2.74074 -62.5357,4.62448 -134.087,8.40906 -117.7001,6.22556 -165.3775,10.35161 -223.82607,19.37016 -220.25008,33.98435 -403.06965,143.36459 -512.1495,306.41719 -63.87889,95.4861 -100.25091,203.1507 -107.7914,319.0727 -1.48489,22.8276 -0.59076,74.1288 1.6641,95.4783 12.27725,116.2436 54.02111,212.723 121.0145,279.6917 25.14495,25.1356 47.59675,41.4468 81.64093,59.312 l 18.98733,9.9639 39.44745,-8.2407 c 295.66604,-61.7656 546.39636,-128.8794 678.94736,-181.7361 183.1073,-73.0167 367.8034,-192.3898 518.1431,-334.8871 133.6449,-126.6734 235.7056,-264.9538 300.3106,-406.8863 8.8056,-19.34528 27.147,-64.45307 29.5971,-72.78937 2.5244,-8.589 2.0255,-3.52822 -1.1686,11.85492 -29.9457,144.21945 -97.4698,294.64995 -195.5995,435.75725 -94.8356,136.3705 -218.0499,263.7334 -351.4811,363.3155 -112.4445,83.9194 -225.2249,144.7925 -354.9537,191.586 -45.2023,16.3046 -85.5453,29.2553 -193.5652,62.1371 -106.06762,32.2876 -164.79019,51.0342 -233.73913,74.6191 -37.54202,12.8418 -95.00918,34.9969 -97.44335,37.5671 -0.88043,0.9296 -0.65511,1.0846 0.92161,0.6341 1.14783,-0.328 12.20321,-2.015 24.56753,-3.749 z m -329.91803,88.8934 c -1.29795,-1.655 -1.26105,-1.6919 0.39397,-0.394 1.00435,0.7877 1.82609,1.6094 1.82609,1.8261 0,0.8588 -0.85689,0.306 -2.22006,-1.4321 z"
         id="path2" />
    </g>
  </g>
</svg>
